<svg xmlns="http://www.w3.org/2000/svg" class="flex-none w-[3.25rem] md:w-16 lg:w-18" viewBox="0 0 185 185"><defs><clipPath id="clippath"><circle cx="92.5" cy="92.5" r="84.79" class="hasslefree-cls-1"/></clipPath><style>.hasslefree-cls-1{fill:none}.hasslefree-cls-3{fill:#040651}.hasslefree-cls-4{fill:#050055}.hasslefree-cls-5{fill:#000059}.hasslefree-cls-6{fill:#fff}.hasslefree-cls-7{fill:#d9d9d9}.hasslefree-cls-8{fill:#6e6eff}</style></defs><g id="Nav"><circle cx="92.5" cy="92.5" r="92.5" class="hasslefree-cls-3"/><circle cx="92.5" cy="92.5" r="84.79" class="hasslefree-cls-3"/><g style="clip-path:url(#clippath)"><path d="M161.74 121a4.495 4.495 0 0 1-4.35-5.65l5.87-22.08a4.495 4.495 0 1 1 8.69 2.31l-5.87 22.08a4.52 4.52 0 0 1-4.35 3.35ZM147.71 89.97a4.495 4.495 0 0 1-4.35-5.65l5.87-22.08a4.495 4.495 0 1 1 8.69 2.31l-5.87 22.08a4.52 4.52 0 0 1-4.35 3.35ZM126.6 154.4a4.495 4.495 0 0 1-4.35-5.65l5.87-22.08a4.495 4.495 0 1 1 8.69 2.31l-5.87 22.08a4.52 4.52 0 0 1-4.35 3.35ZM82.41 115.22a4.495 4.495 0 0 1-4.35-5.65l5.87-22.08a4.495 4.495 0 1 1 8.69 2.31l-5.87 22.08a4.52 4.52 0 0 1-4.35 3.35ZM62.38 92.15a4.495 4.495 0 0 1-4.35-5.65l5.87-22.08a4.495 4.495 0 1 1 8.69 2.31l-5.87 22.08a4.52 4.52 0 0 1-4.35 3.35ZM118.18 72.82a4.495 4.495 0 0 1-4.35-5.65l5.87-22.08a4.495 4.495 0 1 1 8.69 2.31l-5.87 22.08a4.52 4.52 0 0 1-4.35 3.35ZM105.99 124.19a4.495 4.495 0 0 1-4.35-5.65l5.87-22.08a4.495 4.495 0 1 1 8.69 2.31l-5.87 22.08a4.52 4.52 0 0 1-4.35 3.35ZM143.9 44.25a4.495 4.495 0 0 1-4.35-5.65l5.87-22.08a4.495 4.495 0 1 1 8.69 2.31l-5.87 22.08a4.52 4.52 0 0 1-4.35 3.35ZM108.34 31.55a4.495 4.495 0 0 1-4.35-5.65l5.87-22.08a4.495 4.495 0 1 1 8.69 2.31l-5.87 22.08a4.52 4.52 0 0 1-4.35 3.35ZM75.64 42.03a4.495 4.495 0 0 1-4.35-5.65l5.87-22.08a4.495 4.495 0 1 1 8.69 2.31l-5.87 22.08a4.52 4.52 0 0 1-4.35 3.35ZM86.31 170.98a4.495 4.495 0 0 1-4.35-5.65l5.87-22.08a4.495 4.495 0 1 1 8.69 2.31l-5.87 22.08a4.52 4.52 0 0 1-4.35 3.35ZM59.13 184.9a4.495 4.495 0 0 1-4.35-5.65l5.87-22.08a4.495 4.495 0 1 1 8.69 2.31l-5.87 22.08a4.52 4.52 0 0 1-4.35 3.35ZM46.11 148.71a4.495 4.495 0 0 1-4.35-5.65l5.87-22.08a4.495 4.495 0 1 1 8.69 2.31l-5.87 22.08a4.52 4.52 0 0 1-4.35 3.35ZM28.92 123.91a4.495 4.495 0 0 1-4.35-5.65l5.87-22.08a4.495 4.495 0 1 1 8.69 2.31l-5.87 22.08a4.52 4.52 0 0 1-4.35 3.35ZM42.26 67.39a4.495 4.495 0 0 1-4.35-5.65l5.87-22.08a4.495 4.495 0 1 1 8.69 2.31L46.6 64.05a4.52 4.52 0 0 1-4.35 3.35ZM16.3 89.43a4.495 4.495 0 0 1-4.35-5.65l5.87-22.08a4.495 4.495 0 1 1 8.69 2.31l-5.87 22.08a4.52 4.52 0 0 1-4.35 3.35Z" class="hasslefree-cls-8"/></g><circle cx="92.5" cy="92.5" r="84.79" class="hasslefree-cls-1"/><path d="M130.81 77.9h16.28c-6.72 2.59-21.45 6.2-21.45 21.18l-6.2-4.39c8.01-6.2 10.34-12.92 11.37-16.79Z" class="hasslefree-cls-4"/><path d="M125.64 103.09c-.81 0-1.62-.25-2.31-.74l-6.2-4.39a4.003 4.003 0 0 1-.14-6.43c6.82-5.28 8.95-10.9 9.96-14.66a3.992 3.992 0 0 1 3.86-2.96h16.28a3.99 3.99 0 0 1 3.93 3.27c.35 1.9-.7 3.77-2.5 4.46-.7.27-1.47.55-2.31.85-8.74 3.12-16.58 6.75-16.58 16.61 0 1.5-.83 2.87-2.16 3.55a4 4 0 0 1-1.84.45Z" class="hasslefree-cls-5"/><path d="m119.45 94.7 6.2 4.39c-7.91 1.33-18.02 6.38-19.15 14.52l-5.9-4.77 18.84-14.14Z" class="hasslefree-cls-4"/><path d="M106.5 117.62c-.9 0-1.79-.3-2.52-.89l-5.9-4.77c-.96-.78-1.51-1.95-1.48-3.18s.61-2.39 1.6-3.13l18.84-14.14c1.36-1.02 3.34-1.04 4.72-.06l6.2 4.39c1.32.94 1.95 2.58 1.59 4.16s-1.64 2.78-3.23 3.05c-7.1 1.2-15.07 5.5-15.86 11.13a4.001 4.001 0 0 1-3.96 3.45Z" class="hasslefree-cls-5"/><path d="M92.87 17.48c-31.46 0-56.96 23.98-56.96 55.44 0 23.51 14.24 46.65 34.56 56.86h44.81c20.32-10.2 34.56-33.35 34.56-56.86 0-31.46-25.5-55.44-56.96-55.44Z" class="hasslefree-cls-7"/><path d="M115.27 133.78H70.46c-.62 0-1.24-.15-1.79-.43-21.65-10.87-36.76-35.72-36.76-60.43 0-33.33 26.78-59.44 60.96-59.44s60.96 26.11 60.96 59.44c0 24.71-15.12 49.56-36.76 60.43a4 4 0 0 1-1.79.43Zm-43.84-8h42.88c18.61-9.78 31.52-31.37 31.52-52.86 0-28.85-23.26-51.44-52.96-51.44s-52.96 22.6-52.96 51.44c0 21.49 12.92 43.08 31.52 52.86Z" class="hasslefree-cls-5"/><path d="M92.87 17.48c-31.46 0-56.96 23.98-56.96 55.44 0 23.51 14.24 46.65 34.56 56.86h44.81c20.32-10.2 34.56-33.35 34.56-56.86 0-31.46-25.5-55.44-56.96-55.44Z" class="hasslefree-cls-6"/><path d="M115.27 133.78H70.46c-.62 0-1.24-.15-1.79-.43-21.65-10.87-36.76-35.72-36.76-60.43 0-33.33 26.78-59.44 60.96-59.44s60.96 26.11 60.96 59.44c0 24.71-15.12 49.56-36.76 60.43a4 4 0 0 1-1.79.43Zm-43.84-8h42.88c18.61-9.78 31.52-31.37 31.52-52.86 0-28.85-23.26-51.44-52.96-51.44s-52.96 22.6-52.96 51.44c0 21.49 12.92 43.08 31.52 52.86Z" class="hasslefree-cls-5"/><path d="M82.23 153.43h22.03l-1 13.47a7.587 7.587 0 0 1-7.57 7.03h-4.88c-3.98 0-7.28-3.07-7.57-7.03l-1-13.47Z" class="hasslefree-cls-6"/><path d="M95.69 177.94h-4.88c-6.04 0-11.12-4.72-11.56-10.74l-1-13.47c-.08-1.11.3-2.2 1.06-3.02.76-.81 1.82-1.28 2.93-1.28h22.03a4.01 4.01 0 0 1 3.99 4.3l-1 13.47c-.45 6.02-5.53 10.74-11.56 10.74Zm-9.15-20.51.68 9.18a3.606 3.606 0 0 0 3.58 3.33h4.88c1.87 0 3.45-1.46 3.58-3.33l.68-9.18H86.53ZM76.24 134.88c-.72 0-1.45-.2-2.11-.61-16.05-10-37.09-40.21-31.28-73.28 5.75-32.7 33.87-45.22 49.58-47.47 2.2-.31 4.21 1.21 4.53 3.39a4.01 4.01 0 0 1-3.39 4.53c-13.58 1.94-37.88 12.75-42.84 40.94-5.17 29.45 13.43 56.26 27.63 65.11a3.995 3.995 0 0 1 1.28 5.51 3.993 3.993 0 0 1-3.4 1.89Z" class="hasslefree-cls-5"/><path d="M109.33 134.88c-1.34 0-2.64-.67-3.4-1.89a3.993 3.993 0 0 1 1.28-5.51c14.2-8.85 32.8-35.66 27.63-65.11-4.95-28.19-29.26-39-42.84-40.94a3.99 3.99 0 0 1-3.39-4.53 3.99 3.99 0 0 1 4.53-3.39c15.71 2.25 43.84 14.77 49.58 47.48 5.81 33.08-15.23 63.28-31.28 73.28-.66.41-1.39.61-2.11.61Z" class="hasslefree-cls-5"/><path d="M84.55 134.88c-1.17 0-2.34-.51-3.13-1.5-8.17-10.22-18.4-39.33-15.54-72.04 1.22-13.98 4.67-25.51 10.26-34.29 4.41-6.94 10.12-11.83 15.65-13.42A4 4 0 0 1 94 21.32c-5.88 1.69-17.66 12.37-20.15 40.71-1.62 18.54 2.28 51.92 13.82 66.35a3.993 3.993 0 0 1-.63 5.62c-.74.59-1.62.88-2.5.88Z" class="hasslefree-cls-5"/><path d="M101.03 134.88c-.88 0-1.76-.29-2.5-.88a3.994 3.994 0 0 1-.63-5.62c7.42-9.27 16.34-37.49 13.82-66.35-2.48-28.34-14.26-39.02-20.15-40.71a4 4 0 0 1 2.21-7.69c5.53 1.59 11.24 6.48 15.65 13.42 5.58 8.78 9.03 20.31 10.26 34.29 2.86 32.71-7.36 61.82-15.54 72.04-.79.99-1.95 1.5-3.13 1.5Z" class="hasslefree-cls-5"/><path d="M105.87 138.27c-6.61.72-11.33 16.78-12.25 21.64l.11 2.03 8.6-.73c.53-1.08 1.53-13.08 2.52-15.09 6.99-1.03 9.27-8.74 1.01-7.84Z" class="hasslefree-cls-6"/><path d="M93.73 165.94c-.96 0-1.89-.35-2.62-.98a3.987 3.987 0 0 1-1.37-2.79l-.12-2.03c-.02-.32 0-.65.06-.97.42-2.25 1.86-7.92 4.27-13.28 3.3-7.33 7.05-11.12 11.48-11.6 6.5-.71 9.26 2.65 9.66 5.74.5 3.92-2.48 7.72-6.95 9.35-.34 1.91-.71 4.86-.95 6.68-.63 4.9-.79 5.94-1.27 6.91a4.007 4.007 0 0 1-3.25 2.21l-8.6.73c-.11 0-.23.01-.34.01Zm5.69-12.19c-.43 1.25-.83 2.52-1.17 3.79l.68-.06c.11-.8.22-1.67.32-2.43.06-.45.11-.88.17-1.3Z" class="hasslefree-cls-5"/><path d="M79.96 152.12c-1.53 0-2.98-.88-3.65-2.36l-6.83-15.19c-.91-2.01 0-4.38 2.01-5.29s4.38 0 5.29 2.01l4.72 10.49-2.35-8.54c-.59-2.13.67-4.33 2.8-4.92 2.13-.59 4.33.67 4.92 2.8l2.4 8.72v-7.66c0-2.21 1.79-4 4-4s4 1.79 4 4v15.19a3.999 3.999 0 0 1-7.04 2.6c-.5.59-1.18 1.03-1.98 1.25a4 4 0 0 1-4.49-1.8 3.986 3.986 0 0 1-3.78 2.7Zm21.65-11.01c-.2 0-.41-.02-.61-.05a3.998 3.998 0 0 1-3.34-4.56l.76-4.94a4 4 0 0 1 4.56-3.35c2.18.34 3.68 2.38 3.34 4.56l-.25 1.63 1.77-3.89c.91-2.01 3.29-2.9 5.3-1.99 2.01.91 2.9 3.29 1.99 5.3l-1.9 4.18a4.009 4.009 0 0 1-5.3 1.99 4.006 4.006 0 0 1-2.27-2.88l-.09.61a3.995 3.995 0 0 1-3.95 3.39Z" class="hasslefree-cls-5"/><path d="M79.39 129.33h26.41v32.39H79.39z" class="hasslefree-cls-5"/><path d="M130.81 77.9h16.28c-6.72 2.59-21.45 6.2-21.45 21.18l-6.2-4.39c8.01-6.2 10.34-12.92 11.37-16.79ZM119.45 94.7l6.2 4.39c-7.91 1.33-18.02 6.38-19.15 14.52l-5.9-4.77 18.84-14.14Z" class="hasslefree-cls-4"/><path d="M92.87 17.48c-31.46 0-56.96 23.98-56.96 55.44 0 23.51 14.24 46.65 34.56 56.86h44.81c20.32-10.2 34.56-33.35 34.56-56.86 0-31.46-25.5-55.44-56.96-55.44Z" class="hasslefree-cls-7"/><path d="M92.87 17.48c-31.46 0-56.96 23.98-56.96 55.44 0 23.51 14.24 46.65 34.56 56.86h44.81c20.32-10.2 34.56-33.35 34.56-56.86 0-31.46-25.5-55.44-56.96-55.44ZM82.23 153.43h22.03l-1 13.47a7.587 7.587 0 0 1-7.57 7.03h-4.88c-3.98 0-7.28-3.07-7.57-7.03l-1-13.47Z" class="hasslefree-cls-6"/><path d="M76.24 132.41c-.28 0-.56-.07-.81-.23-15.48-9.64-35.76-38.8-30.15-70.76 5.5-31.31 32.44-43.3 47.5-45.46.84-.12 1.61.46 1.73 1.3.12.84-.46 1.61-1.3 1.73-14.24 2.04-39.72 13.38-44.92 42.96-5.37 30.57 13.98 58.43 28.76 67.63.72.45.93 1.39.49 2.11-.29.46-.79.72-1.3.72Z" class="hasslefree-cls-3"/><path d="M109.33 132.41c-.51 0-1.01-.26-1.3-.72-.45-.72-.23-1.66.49-2.11 14.77-9.2 34.13-37.06 28.76-67.63-5.2-29.58-30.68-40.92-44.92-42.96-.83-.12-1.42-.89-1.3-1.73.12-.84.89-1.42 1.73-1.3 15.05 2.15 42 14.15 47.5 45.46 5.62 31.96-14.67 61.11-30.15 70.76-.25.16-.53.23-.81.23Z" class="hasslefree-cls-3"/><path d="M84.54 132.41c-.45 0-.89-.2-1.19-.57-7.69-9.62-17.78-38.6-15.01-70.28 2.74-31.27 16.46-43.34 24.13-45.54.81-.23 1.66.24 1.89 1.05.23.81-.24 1.66-1.05 1.89-14.74 4.23-20.79 29.89-21.93 42.87-2.7 30.85 6.96 58.88 14.35 68.11.53.66.42 1.62-.24 2.15-.28.23-.62.33-.95.33Z" class="hasslefree-cls-3"/><path d="M101.03 132.41c-.33 0-.67-.11-.95-.33-.66-.53-.77-1.49-.24-2.15 7.38-9.23 17.05-37.26 14.35-68.11-1.14-12.98-7.18-38.64-21.93-42.87a1.532 1.532 0 0 1-1.05-1.89c.23-.81 1.07-1.28 1.89-1.05 7.67 2.2 21.39 14.27 24.13 45.54 1.56 17.78-1.01 33.19-3.44 42.99-2.89 11.64-7.21 21.84-11.56 27.29-.3.38-.75.57-1.19.57Z" class="hasslefree-cls-3"/><path d="M105.87 138.27c-6.61.72-11.33 16.78-12.25 21.64l.11 2.03 8.6-.73c.53-1.08 1.53-13.08 2.52-15.09 6.99-1.03 9.27-8.74 1.01-7.84Z" class="hasslefree-cls-6"/><circle cx="107.16" cy="140.58" r="1.08" class="hasslefree-cls-3"/><path d="M79.96 148.88c-.29 0-.57-.17-.69-.45l-6.83-15.19c-.17-.38 0-.83.38-1 .38-.17.83 0 1 .38l6.83 15.19c.17.38 0 .83-.38 1-.1.05-.21.07-.31.07Zm7.22-.76c-.33 0-.64-.22-.73-.56l-4.18-15.19c-.11-.4.13-.82.53-.93s.82.13.93.53l4.18 15.19a.761.761 0 0 1-.73.96Zm6.08 0a.76.76 0 0 1-.76-.76v-15.19a.76.76 0 1 1 1.52 0v15.19c0 .42-.34.76-.76.76Zm8.36-10.25h-.12a.76.76 0 0 1-.64-.87l.76-4.94c.06-.41.45-.7.87-.63.42.06.7.45.64.87l-.76 4.94c-.06.38-.38.64-.75.64Zm7.97-.76a.67.67 0 0 1-.31-.07c-.38-.17-.55-.62-.38-1.01l1.9-4.18c.17-.38.62-.55 1.01-.38.38.17.55.62.38 1.01l-1.9 4.18c-.13.28-.4.45-.69.45Z" class="hasslefree-cls-6"/><path d="M77.78 153.14h29.03v2.33H77.78z" class="hasslefree-cls-3"/></g></svg>