<svg width="100%" height="100%" viewBox="0 0 1285 401" version="1.1" xmlns="http://www.w3.org/2000/svg" xmlns:xlink="http://www.w3.org/1999/xlink" xml:space="preserve" xmlns:serif="http://www.serif.com/" style="fill-rule:evenodd;clip-rule:evenodd;stroke-linejoin:round;stroke-miterlimit:2;">
    <circle cx="200.007" cy="200.007" r="200.007" style="fill:none;"/>
    <path id="outline" d="M261.684,245.149C295.545,246.811 330.909,231.614 341.887,201.373C352.865,171.132 348.608,141.225 309.226,123.287C269.845,105.343 251.657,84.015 219.841,71.147C199.054,62.739 175.926,67.729 152.177,80.854C88.214,116.205 30.903,227.892 57.319,331.372C57.698,332.791 57.062,334.275 55.775,334.987C54.496,335.691 52.89,335.426 51.898,334.347C16.282,295.06 -3.759,241.788 0.593,184.791C8.998,74.728 105.178,-7.806 215.241,0.599C325.296,9.003 407.83,105.182 399.425,215.245C395.896,261.466 376.89,302.829 347.866,334.644C325.671,357.444 297.393,367.579 273.796,367.16C256.689,366.857 239.957,360.048 228.387,350.094C211.871,335.866 205.196,319.609 202.913,301.459C202.341,296.952 202.677,284.662 205.025,276.15C206.77,269.807 211.21,257.551 217.701,252.193C210.106,248.927 200.34,241.805 197.255,238.388C196.502,237.55 196.603,236.232 197.281,235.331C197.952,234.422 199.147,234.069 200.206,234.451C206.734,236.69 214.683,238.895 223.066,240.302C234.087,242.146 247.795,244.461 261.684,245.149ZM192.777,85.086C203.566,84.24 212.979,93.449 214.602,105.695C216.766,122.009 210.78,138.861 191.091,139.249C174.272,139.584 169.176,122.624 170.291,112.349C171.398,102.074 179.868,86.099 192.777,85.086Z"/>
    <path d="M500.407,299.964L500.407,99.962L572.709,99.962C635.975,99.962 676.645,141.09 676.645,200.245C676.645,259.118 638.517,299.964 573.557,299.964L500.407,299.964ZM552.375,252.357L569.886,252.357C600.389,252.357 620.441,228.977 620.441,200.245C620.441,170.385 600.106,147.569 573.839,147.569L552.375,147.569L552.375,252.357Z"/>
    <g transform="matrix(16.8012,0,0,16.8012,-9286.08,-4308.23)">
        <path d="M600.234,274.47C603.882,274.47 606.474,272.022 606.474,268.422C606.474,264.822 603.882,262.374 600.234,262.374C596.514,262.374 594.018,264.918 594.018,268.422C594.018,271.926 596.514,274.47 600.234,274.47ZM600.234,271.662C598.458,271.662 597.186,270.246 597.186,268.422C597.186,266.574 598.41,265.182 600.234,265.182C601.986,265.182 603.282,266.502 603.282,268.422C603.282,270.318 601.938,271.662 600.234,271.662Z" style="fill-rule:nonzero;"/>
    </g>
    <g transform="matrix(16.8012,0,0,16.8012,-9298.38,-4308.23)">
        <path d="M614.394,274.47C616.746,274.47 618.546,273.534 619.554,272.358L617.418,270.462C616.866,271.086 615.93,271.662 614.682,271.662C612.834,271.662 611.538,270.318 611.538,268.398C611.538,266.502 612.786,265.182 614.658,265.182C615.858,265.182 616.77,265.71 617.394,266.43L619.506,264.606C618.33,263.118 616.41,262.374 614.538,262.374C610.914,262.374 608.37,264.822 608.37,268.422C608.37,272.022 610.914,274.47 614.394,274.47Z" style="fill-rule:nonzero;"/>
    </g>
    <g transform="matrix(16.8012,0,0,16.8012,-9301.46,-4308.23)">
        <path d="M625.53,274.47C628.602,274.47 630.09,272.91 630.09,270.822C630.09,268.518 628.602,267.966 626.058,267.03C624.906,266.598 624.282,266.262 624.282,265.782C624.282,265.158 624.93,264.894 625.434,264.894C626.298,264.894 627.33,265.278 628.242,266.142L629.754,263.838C628.434,262.806 627.114,262.374 625.482,262.374C623.082,262.374 621.258,263.766 621.258,265.878C621.258,268.134 622.938,269.046 624.858,269.694C626.394,270.174 626.994,270.438 626.994,270.99C626.994,271.566 626.466,271.95 625.554,271.95C624.282,271.95 623.274,271.494 622.314,270.582L620.778,272.766C622.074,273.87 623.658,274.47 625.53,274.47Z" style="fill-rule:nonzero;"/>
    </g>
</svg>
