<svg xmlns="http://www.w3.org/2000/svg" class="mt-1.5 flex-none w-[3.25rem] md:w-16 lg:w-18" viewBox="0 0 185 185"><defs><clipPath id="clippath"><circle cx="92.5" cy="92.5" r="84.79" style="fill:none"/></clipPath><style>.secure-cls-4{fill:#040651}.secure-cls-5{fill:#050055}.secure-cls-6{fill:#000059}.secure-cls-10,.secure-cls-11,.secure-cls-7,.secure-cls-8{fill:#fff}.secure-cls-12{fill:#6e6eff}.secure-cls-10,.secure-cls-11,.secure-cls-8{stroke:#050055}.secure-cls-10,.secure-cls-8{stroke-width:3.45px}.secure-cls-10{stroke-linecap:round}.secure-cls-11{stroke-width:3.17px}</style></defs><g id="Nav"><circle cx="92.5" cy="92.5" r="92.5" class="secure-cls-4"/><circle cx="92.5" cy="92.5" r="84.79" class="secure-cls-4"/><g style="clip-path:url(#clippath)"><path d="M161.74 121a4.495 4.495 0 0 1-4.35-5.65l5.87-22.08a4.495 4.495 0 1 1 8.69 2.31l-5.87 22.08a4.52 4.52 0 0 1-4.35 3.35ZM147.71 89.97a4.495 4.495 0 0 1-4.35-5.65l5.87-22.08a4.495 4.495 0 1 1 8.69 2.31l-5.87 22.08a4.52 4.52 0 0 1-4.35 3.35ZM126.6 154.4a4.495 4.495 0 0 1-4.35-5.65l5.87-22.08a4.495 4.495 0 1 1 8.69 2.31l-5.87 22.08a4.52 4.52 0 0 1-4.35 3.35ZM82.41 115.22a4.495 4.495 0 0 1-4.35-5.65l5.87-22.08a4.495 4.495 0 1 1 8.69 2.31l-5.87 22.08a4.52 4.52 0 0 1-4.35 3.35ZM62.38 92.15a4.495 4.495 0 0 1-4.35-5.65l5.87-22.08a4.495 4.495 0 1 1 8.69 2.31l-5.87 22.08a4.52 4.52 0 0 1-4.35 3.35ZM105.99 124.19a4.495 4.495 0 0 1-4.35-5.65l5.87-22.08a4.495 4.495 0 1 1 8.69 2.31l-5.87 22.08a4.52 4.52 0 0 1-4.35 3.35ZM143.9 44.25a4.495 4.495 0 0 1-4.35-5.65l5.87-22.08a4.495 4.495 0 1 1 8.69 2.31l-5.87 22.08a4.52 4.52 0 0 1-4.35 3.35ZM108.34 31.55a4.495 4.495 0 0 1-4.35-5.65l5.87-22.08a4.495 4.495 0 1 1 8.69 2.31l-5.87 22.08a4.52 4.52 0 0 1-4.35 3.35ZM75.64 42.03a4.495 4.495 0 0 1-4.35-5.65l5.87-22.08a4.495 4.495 0 1 1 8.69 2.31l-5.87 22.08a4.52 4.52 0 0 1-4.35 3.35ZM86.31 170.98a4.495 4.495 0 0 1-4.35-5.65l5.87-22.08a4.495 4.495 0 1 1 8.69 2.31l-5.87 22.08a4.52 4.52 0 0 1-4.35 3.35ZM59.13 184.9a4.495 4.495 0 0 1-4.35-5.65l5.87-22.08a4.495 4.495 0 1 1 8.69 2.31l-5.87 22.08a4.52 4.52 0 0 1-4.35 3.35ZM46.11 148.71a4.495 4.495 0 0 1-4.35-5.65l5.87-22.08a4.495 4.495 0 1 1 8.69 2.31l-5.87 22.08a4.52 4.52 0 0 1-4.35 3.35ZM28.92 123.91a4.495 4.495 0 0 1-4.35-5.65l5.87-22.08a4.495 4.495 0 1 1 8.69 2.31l-5.87 22.08a4.52 4.52 0 0 1-4.35 3.35ZM42.26 67.39a4.495 4.495 0 0 1-4.35-5.65l5.87-22.08a4.495 4.495 0 1 1 8.69 2.31L46.6 64.05a4.52 4.52 0 0 1-4.35 3.35ZM16.3 89.43a4.495 4.495 0 0 1-4.35-5.65l5.87-22.08a4.495 4.495 0 1 1 8.69 2.31l-5.87 22.08a4.52 4.52 0 0 1-4.35 3.35Z" class="secure-cls-12"/></g><path d="m53.91 103.47-.49-.31-.58.05c-1.32.12-3.88.15-7.2-1.72-3.36-1.89-7.63-5.79-12.16-13.85a3.493 3.493 0 0 0-3.76-1.73c-1.39.29-2.64 1.47-2.64 3.25-.02 11.89 3.68 20.52 9.63 26 5.94 5.46 13.9 7.59 22.04 6.91 1.78-.15 3.26-.44 4.43-.91 1.17-.46 2.16-1.15 2.77-2.14 1.27-2.09.27-4.38-.86-6.03-1.21-1.77-3.09-3.57-5.07-5.18-2-1.63-4.19-3.15-6.11-4.36Z" class="secure-cls-10"/><path d="m54.56 102.17-.49-.31-.58.05c-1.32.12-3.88.15-7.2-1.72-3.36-1.89-7.63-5.79-12.16-13.85a3.493 3.493 0 0 0-3.76-1.73c-1.39.29-2.64 1.47-2.64 3.25-.02 11.89 3.68 20.52 9.63 26 5.94 5.46 13.9 7.59 22.04 6.91 1.78-.15 3.26-.44 4.43-.91 1.17-.46 2.16-1.15 2.77-2.14 1.27-2.09.27-4.38-.86-6.03-1.21-1.77-3.09-3.57-5.07-5.18-2-1.63-4.19-3.15-6.11-4.36Z" class="secure-cls-10"/><path d="M91.64 14.98c-7.96 0-15.27 2.44-20.62 6.95-5.38 4.53-8.69 11.09-8.69 19.1v16.84c0 15.96 13.16 28.86 29.32 28.86s29.33-12.89 29.33-28.86V41.03c0-8.01-3.32-14.57-8.69-19.1-5.36-4.51-12.66-6.95-20.63-6.95Z" class="secure-cls-8"/><path d="M44.42 52.49c.03-.72.47-1.29 1.16-1.6.72-.31 1.59-.27 2.27.2 3.85 2.7 7.46 4.21 11.01 4.63 3.57.42 6.94-.29 10.29-1.78 3.33-1.48 6.66-3.75 10.19-6.5 2.71-2.11 5.6-4.56 8.73-7.21.94-.8 1.9-1.62 2.89-2.45.65-.54 1.59-.53 2.24.03 8.43 7.36 15.02 12.97 21.55 15.43 3.33 1.25 6.67 1.7 10.24 1.18 3.55-.52 7.23-1.99 11.28-4.43 1.39-.83 3 .15 3.06 1.45l1.71 39.19c1.03 23.66-12.5 45.55-34.12 55.21l-14.8 6.61-15.02-6.71c-21.52-9.61-35.03-31.34-34.13-54.89l1.46-38.35Z" style="stroke-width:3.45px;stroke:#050055;fill:#fff"/><path d="M82.5 131.3c-16.26-6.85-26.34-22.11-25.66-38.88l.86-21.36c.5.08 1.01.15 1.52.21 1.08.12 2.17.18 3.25.18 4.18 0 8.26-.86 12.47-2.63 3.71-1.55 7.42-3.76 12.04-7.16 1.64-1.21 3.33-2.51 5.02-3.85 6.31 4.96 11.62 8.51 17.57 10.61 3.6 1.28 7.29 1.93 10.96 1.93 1.46 0 2.95-.1 4.43-.31.38-.05.77-.11 1.15-.18l1.04 22.41c.78 16.87-9.29 32.22-25.65 39.11l-9.4 3.96-9.61-4.04Z" class="secure-cls-11"/><path d="M82.5 132.49c-16.26-6.85-26.34-22.11-25.66-38.88l.86-21.36c.5.08 1.01.15 1.52.21 1.08.12 2.17.18 3.25.18 4.18 0 8.26-.86 12.47-2.63 3.71-1.55 7.42-3.76 12.04-7.16 1.64-1.21 3.33-2.51 5.02-3.85 6.31 4.96 11.62 8.51 17.57 10.61 3.6 1.28 7.29 1.93 10.96 1.93 1.46 0 2.95-.1 4.43-.31.38-.05.77-.11 1.15-.18l1.04 22.41c.78 16.87-9.29 32.22-25.65 39.11l-9.4 3.96-9.61-4.04Z" class="secure-cls-11"/><path d="m62.79 124.21 30.09-17.48 30.08 17.48v34.97l-30.08 17.48-30.09-17.48v-34.97Z" class="secure-cls-8"/><path d="m121.41 124.86-28.07 17.31v33.68" style="stroke-width:3.45px;stroke:#050055;fill:none"/><path d="M119.58 63.5c-5.52 0-11.54-3.64-12.07-9.74-.27-3.07.62-5.89 2.49-7.93 1.92-2.09 4.69-3.25 7.79-3.25 4.79 0 9.5 2.71 12.9 7.44l.31.42v.52c0 6.23-3.53 12.52-11.42 12.52Z" class="secure-cls-7"/><path d="M117.79 44.21c3.81 0 8.19 2.05 11.58 6.77 0 7.71-4.84 10.9-9.8 10.9s-10.02-3.19-10.46-8.26c-.5-5.78 3.59-9.41 8.67-9.41m0-3.24c-3.57 0-6.76 1.34-8.99 3.77-2.18 2.38-3.22 5.63-2.91 9.16.61 7.02 7.44 11.22 13.69 11.22s13.04-4.37 13.04-14.14v-1.05l-.61-.85c-3.71-5.16-8.9-8.12-14.22-8.12Z" class="secure-cls-5"/><path d="M62.31 64.57c-5.27 0-11.42-3.28-11.42-12.52v-.52l.31-.42c3.41-4.73 8.11-7.44 12.9-7.44 3.11 0 5.88 1.15 7.79 3.25 1.87 2.04 2.76 4.86 2.49 7.93-.53 6.1-6.56 9.74-12.07 9.74Z" class="secure-cls-7"/><path d="M64.1 45.28c5.08 0 9.17 3.63 8.67 9.41-.44 5.06-5.51 8.26-10.46 8.26s-9.8-3.19-9.8-10.9c3.4-4.72 7.77-6.77 11.58-6.77m0-3.24c-5.32 0-10.5 2.96-14.22 8.12l-.61.85v1.05c0 9.77 6.55 14.14 13.04 14.14S75.38 62 75.99 54.98c.31-3.53-.73-6.79-2.91-9.17-2.23-2.43-5.42-3.77-8.99-3.77Z" class="secure-cls-5"/><circle cx="101.52" cy="32.04" r="3" class="secure-cls-6"/><circle cx="81.53" cy="32.04" r="3" class="secure-cls-6"/><path d="m92.19 144.3-27.94-17.08.29-3.33 29.36 17.42-1.71 2.99z" class="secure-cls-5"/></g></svg>