<svg width="100%" height="100%" viewBox="0 0 1325 441" version="1.1" xmlns="http://www.w3.org/2000/svg" xmlns:xlink="http://www.w3.org/1999/xlink" xml:space="preserve" xmlns:serif="http://www.serif.com/" style="fill-rule:evenodd;clip-rule:evenodd;stroke-linejoin:round;stroke-miterlimit:2;">
    <g transform="matrix(0.0920293,0.00428099,-0.00428099,0.0920293,-28.1272,-500.301)">
        <path d="M3053.7,5296.9C4371.65,5296.9 5441.66,6366.91 5441.66,7684.86C5441.66,9002.81 4371.65,10072.8 3053.7,10072.8C1735.75,10072.8 665.74,9002.81 665.74,7684.86C665.74,6366.91 1735.75,5296.9 3053.7,5296.9ZM3745.03,8143.22C3594.12,8142.82 3444.31,8124.57 3323.87,8110.15C3232.29,8099.18 3144.99,8079.23 3073.1,8058.23C3061.36,8054.62 3048.65,8059.09 3041.75,8069.24C3034.86,8079.4 3034.46,8093.71 3043.09,8102.44C3078.21,8137.94 3187.74,8210.21 3271.7,8241.83C3204.04,8303.2 3162.1,8438.28 3146.33,8507.94C3125.17,8601.4 3127.75,8734.83 3136.19,8783.45C3170.14,8979.04 3250.69,9151.99 3436.99,9297.9C3567.4,9400.03 3752.28,9465.38 3937.88,9460.06C4194.01,9452.71 4495.48,9328.51 4724.65,9070.17C5023.25,8710.58 5208.52,8252.45 5223.47,7749.5C5259.08,6551.9 4315.7,5550.69 3118.1,5515.08C1920.51,5479.47 919.301,6422.86 883.689,7620.45C865.246,8240.66 1109.37,8808.21 1515.43,9216.2C1526.73,9227.39 1544.21,9229.43 1557.78,9221.14C1571.35,9212.85 1577.51,9196.36 1572.7,9181.2C1234.07,8072.55 1799.11,6832.64 2474.84,6417.1C2725.71,6262.82 2973.99,6197.06 3203.56,6277.7C3555.04,6401.15 3763.03,6623.26 4199.06,6797.93C4635.09,6972.59 4696.35,7294.74 4592.58,7628.14C4488.81,7961.54 4113,8144.17 3745.03,8143.22ZM2917.17,6442.51C2777.75,6459.97 2693.93,6637.44 2687.08,6749.42C2680.18,6861.39 2744.03,7042.7 2926.19,7030.63C3139.52,7016.49 3195.89,6830.7 3164.24,6654.94C3140.48,6522.94 3033.73,6427.9 2917.17,6442.51Z" style="fill:white;"/>
    </g>
    <g transform="matrix(0.996277,0,0,0.996277,1.72059,1.53737)">
        <g transform="matrix(16.8634,0,0,16.8634,-9282.28,-4305.64)">
            <path d="M600.234,274.47C603.882,274.47 606.474,272.022 606.474,268.422C606.474,264.822 603.882,262.374 600.234,262.374C596.514,262.374 594.018,264.918 594.018,268.422C594.018,271.926 596.514,274.47 600.234,274.47ZM600.234,271.662C598.458,271.662 597.186,270.246 597.186,268.422C597.186,266.574 598.41,265.182 600.234,265.182C601.986,265.182 603.282,266.502 603.282,268.422C603.282,270.318 601.938,271.662 600.234,271.662Z" style="fill:white;fill-rule:nonzero;"/>
        </g>
        <g transform="matrix(16.8634,0,0,16.8634,-9294.63,-4305.64)">
            <path d="M614.394,274.47C616.746,274.47 618.546,273.534 619.554,272.358L617.418,270.462C616.866,271.086 615.93,271.662 614.682,271.662C612.834,271.662 611.538,270.318 611.538,268.398C611.538,266.502 612.786,265.182 614.658,265.182C615.858,265.182 616.77,265.71 617.394,266.43L619.506,264.606C618.33,263.118 616.41,262.374 614.538,262.374C610.914,262.374 608.37,264.822 608.37,268.422C608.37,272.022 610.914,274.47 614.394,274.47Z" style="fill:white;fill-rule:nonzero;"/>
        </g>
        <g transform="matrix(16.8634,0,0,16.8634,-9297.72,-4305.64)">
            <path d="M625.53,274.47C628.602,274.47 630.09,272.91 630.09,270.822C630.09,268.518 628.602,267.966 626.058,267.03C624.906,266.598 624.282,266.262 624.282,265.782C624.282,265.158 624.93,264.894 625.434,264.894C626.298,264.894 627.33,265.278 628.242,266.142L629.754,263.838C628.434,262.806 627.114,262.374 625.482,262.374C623.082,262.374 621.258,263.766 621.258,265.878C621.258,268.134 622.938,269.046 624.858,269.694C626.394,270.174 626.994,270.438 626.994,270.99C626.994,271.566 626.466,271.95 625.554,271.95C624.282,271.95 623.274,271.494 622.314,270.582L620.778,272.766C622.074,273.87 623.658,274.47 625.53,274.47Z" style="fill:white;fill-rule:nonzero;"/>
        </g>
        <g transform="matrix(1.0037,0,0,1.0037,38.1986,18.551)">
            <path d="M500.407,299.964L500.407,99.962L572.709,99.962C635.975,99.962 676.645,141.09 676.645,200.245C676.645,259.118 638.517,299.964 573.557,299.964L500.407,299.964ZM552.375,252.357L569.886,252.357C600.389,252.357 620.441,228.977 620.441,200.245C620.441,170.385 600.106,147.569 573.839,147.569L552.375,147.569L552.375,252.357Z" style="fill:white;"/>
        </g>
    </g>
</svg>
