<?xml version="1.0" encoding="UTF-8" standalone="no"?>
<!DOCTYPE svg PUBLIC "-//W3C//DTD SVG 1.1//EN" "http://www.w3.org/Graphics/SVG/1.1/DTD/svg11.dtd">
<svg width="100%" height="100%" viewBox="0 0 256 67" version="1.1" xmlns="http://www.w3.org/2000/svg" xmlns:xlink="http://www.w3.org/1999/xlink" xml:space="preserve" xmlns:serif="http://www.serif.com/" style="fill-rule:evenodd;clip-rule:evenodd;stroke-linejoin:round;stroke-miterlimit:2;">
    <g transform="matrix(0.325228,0,0,0.325228,-162.746,-32.5104)">
        <path d="M500.407,299.964L500.407,99.962L572.709,99.962C635.975,99.962 676.645,141.09 676.645,200.245C676.645,259.118 638.517,299.964 573.557,299.964L500.407,299.964ZM552.375,252.357L569.886,252.357C600.389,252.357 620.441,228.977 620.441,200.245C620.441,170.385 600.106,147.569 573.839,147.569L552.375,147.569L552.375,252.357Z"/>
    </g>
    <g transform="matrix(5.46421,0,0,5.46421,-3182.84,-1433.67)">
        <path d="M600.234,274.47C603.882,274.47 606.474,272.022 606.474,268.422C606.474,264.822 603.882,262.374 600.234,262.374C596.514,262.374 594.018,264.918 594.018,268.422C594.018,271.926 596.514,274.47 600.234,274.47ZM600.234,271.662C598.458,271.662 597.186,270.246 597.186,268.422C597.186,266.574 598.41,265.182 600.234,265.182C601.986,265.182 603.282,266.502 603.282,268.422C603.282,270.318 601.938,271.662 600.234,271.662Z" style="fill-rule:nonzero;"/>
    </g>
    <g transform="matrix(5.46421,0,0,5.46421,-3186.84,-1433.67)">
        <path d="M614.394,274.47C616.746,274.47 618.546,273.534 619.554,272.358L617.418,270.462C616.866,271.086 615.93,271.662 614.682,271.662C612.834,271.662 611.538,270.318 611.538,268.398C611.538,266.502 612.786,265.182 614.658,265.182C615.858,265.182 616.77,265.71 617.394,266.43L619.506,264.606C618.33,263.118 616.41,262.374 614.538,262.374C610.914,262.374 608.37,264.822 608.37,268.422C608.37,272.022 610.914,274.47 614.394,274.47Z" style="fill-rule:nonzero;"/>
    </g>
    <g transform="matrix(5.46421,0,0,5.46421,-3187.84,-1433.67)">
        <path d="M625.53,274.47C628.602,274.47 630.09,272.91 630.09,270.822C630.09,268.518 628.602,267.966 626.058,267.03C624.906,266.598 624.282,266.262 624.282,265.782C624.282,265.158 624.93,264.894 625.434,264.894C626.298,264.894 627.33,265.278 628.242,266.142L629.754,263.838C628.434,262.806 627.114,262.374 625.482,262.374C623.082,262.374 621.258,263.766 621.258,265.878C621.258,268.134 622.938,269.046 624.858,269.694C626.394,270.174 626.994,270.438 626.994,270.99C626.994,271.566 626.466,271.95 625.554,271.95C624.282,271.95 623.274,271.494 622.314,270.582L620.778,272.766C622.074,273.87 623.658,274.47 625.53,274.47Z" style="fill-rule:nonzero;"/>
    </g>
</svg>
