<svg width="72" height="72" viewBox="0 0 72 72" fill="none" xmlns="http://www.w3.org/2000/svg">
<g clip-path="url(#clip0_705_139)">
<path d="M36 16C47.0457 16 56 24.9543 56 36C56 47.0457 47.0457 56 36 56C24.9543 56 16 47.0457 16 36C16 24.9543 24.9543 16 36 16Z" fill="#111111"/>
<path d="M35.5513 45.7859C35.0384 45.6476 34.5108 45.9445 34.3607 46.4508L34.3541 46.4743L33.0259 51.3962L33.0198 51.42C32.8948 51.9331 33.2015 52.4551 33.7144 52.5935C34.2272 52.7319 34.7548 52.435 34.905 51.9286L34.9116 51.9051L36.2397 46.9832L36.2458 46.9595C36.2548 46.9225 36.2616 46.8853 36.2662 46.8482L36.2701 46.8112L36.2387 46.6518L36.1927 46.4222L36.1636 46.2788C36.1014 46.1586 36.0148 46.0527 35.9094 45.9679C35.8039 45.883 35.682 45.821 35.5513 45.7859ZM26.2965 40.7172C26.2723 40.7654 26.2518 40.8164 26.2355 40.8696L26.2262 40.9018L24.8981 45.8236L24.892 45.8474C24.767 46.3605 25.0737 46.8825 25.5865 47.0209C26.0994 47.1593 26.627 46.8625 26.7772 46.3561L26.7837 46.3325L27.988 41.8697C27.3573 41.5358 26.7912 41.1504 26.2965 40.7172ZM23.1294 35.0572C22.6165 34.9187 22.0889 35.2156 21.9388 35.722L21.9322 35.7455L20.604 40.6674L20.598 40.6911C20.473 41.2043 20.7796 41.7263 21.2925 41.8647C21.8053 42.0031 22.333 41.7062 22.4831 41.1998L22.4897 41.1763L23.8178 36.2544L23.8239 36.2307C23.9489 35.7176 23.6423 35.1955 23.1294 35.0572ZM52.9093 33.9394C52.3964 33.801 51.8687 34.0979 51.7187 34.6043L51.712 34.6278L50.3839 39.5497L50.3778 39.5734C50.2528 40.0865 50.5594 40.6086 51.0723 40.7469C51.5851 40.8854 52.1128 40.5885 52.263 40.0821L52.2695 40.0586L53.5976 35.1367L53.6037 35.1129C53.7287 34.5998 53.4222 34.0778 52.9093 33.9394ZM20.2371 27.367C19.1248 29.3926 18.4166 31.6149 18.1517 33.9105C18.2784 34.055 18.4451 34.1586 18.6307 34.2084C19.1436 34.3468 19.6712 34.05 19.8213 33.5436L19.828 33.5201L21.1561 28.5982L21.1622 28.5744C21.2872 28.0613 20.9805 27.5393 20.4676 27.4009C20.3924 27.3806 20.315 27.3692 20.2371 27.367ZM49.5453 27.4009C49.0325 27.2625 48.5048 27.5593 48.3547 28.0658L48.3481 28.0893L47.02 33.0111L47.0139 33.0349C46.8889 33.548 47.1955 34.07 47.7084 34.2084C48.2212 34.3468 48.7489 34.05 48.8991 33.5436L48.9056 33.5201L50.2337 28.5982L50.2398 28.5744C50.3648 28.0613 50.0582 27.5393 49.5453 27.4009Z" fill="white"/>
<path d="M26.0171 22.7209C25.5043 22.5824 24.9767 22.8793 24.8265 23.3857L24.82 23.4092L23.4918 28.3311L23.4857 28.3548C23.3607 28.868 23.6674 29.39 24.1803 29.5283C24.6931 29.6668 25.2207 29.3699 25.3709 28.8635L25.3774 28.84L26.7056 23.9181L26.7117 23.8944C26.8367 23.3812 26.53 22.8592 26.0171 22.7209ZM43.0821 23.6512C42.5693 23.5128 42.0416 23.8097 41.8915 24.3161L41.8849 24.3396L40.9925 27.6466C41.5706 27.9322 42.1223 28.2683 42.6412 28.6512L42.7271 28.7152L43.7705 24.8485L43.7766 24.8248C43.9016 24.3116 43.595 23.7896 43.0821 23.6512ZM34.3958 18.1019C33.7728 18.1569 33.153 18.2445 32.5391 18.3642L32.4089 18.3901L31.171 22.9789L31.1649 23.0026C31.0399 23.5158 31.3465 24.0378 31.8594 24.1762C32.3722 24.3146 32.8999 24.0177 33.05 23.5113L33.0566 23.4878L34.3847 18.5659L34.3908 18.5422C34.4262 18.3977 34.4279 18.2471 34.3958 18.1019ZM46.6168 21.5017L46.3559 22.4689L46.3498 22.4926C46.2248 23.0057 46.5314 23.5277 47.0443 23.6661C47.5571 23.8045 48.0848 23.5076 48.235 23.0012L48.2415 22.9777L48.27 22.8728C47.7816 22.416 47.2682 21.9868 46.7321 21.5869L46.6168 21.5017ZM38.8896 18.2623L38.4185 20.0079L38.4125 20.0316C38.2875 20.5448 38.5942 21.0668 39.1071 21.2051C39.6199 21.3436 40.1475 21.0467 40.2977 20.5403L40.3042 20.5168L40.8 18.6795C40.2166 18.5182 39.6253 18.3867 39.0285 18.2854L38.8896 18.2623Z" fill="white"/>
<path d="M28.9211 48.8337C29.0712 48.3273 29.5989 48.0305 30.1118 48.1687C30.6247 48.3071 30.9312 48.8292 30.8062 49.3423L30.8001 49.3661L29.8496 52.8885L29.7168 52.8395C29.1445 52.6259 28.5835 52.383 28.0361 52.1119L28.9145 48.8572L28.9211 48.8337Z" fill="white"/>
<path d="M35.2187 27.3211C29.4028 27.3211 24.8788 30.9824 24.8788 35.5356C24.8788 39.8359 29.0415 42.5816 35.4947 42.4442C36.0435 42.4325 36.2021 42.8011 36.3808 43.2979C36.5594 43.7947 37.0394 46.413 37.4219 48.4156C37.7642 50.208 38.1121 52.007 38.3778 53.8128C42.5918 53.2557 46.4883 51.1743 49.3434 48.0348L46.2981 36.6785C45.5391 33.9358 44.6519 31.4085 42.3044 29.5725C40.4156 28.0956 38.0162 27.3211 35.2187 27.3211Z" fill="white"/>
<path d="M36.4688 30.6094C37.1591 30.6094 37.7188 31.169 37.7188 31.8594C37.7188 32.5498 37.1591 33.1094 36.4688 33.1094C35.7784 33.1094 35.2188 32.5498 35.2188 31.8594C35.2188 31.169 35.7784 30.6094 36.4688 30.6094Z" fill="#111111"/>
</g>
<defs>
<clipPath id="clip0_705_139">
<rect width="40" height="40" fill="white" transform="translate(16 16)"/>
</clipPath>
</defs>
</svg>
