<svg xmlns="http://www.w3.org/2000/svg" width="30" height="30" fill="none" viewBox="0 0 30 30">
  <path fill="#fff" d="M14.664 22.34a.733.733 0 0 0-.893.498l-.006.018-.996 3.691-.004.018a.732.732 0 0 0 1.414.381l.005-.017.996-3.691.004-.018a.735.735 0 0 0 .016-.084l.003-.028-.024-.12-.034-.171-.022-.108a.732.732 0 0 0-.46-.37Zm-6.942-3.802a.738.738 0 0 0-.045.114l-.007.024-.996 3.692-.005.018a.732.732 0 0 0 1.414.381l.005-.018.903-3.347a6.622 6.622 0 0 1-1.269-.864Zm-2.375-4.245a.732.732 0 0 0-.893.498l-.005.018-.996 3.692-.005.017a.732.732 0 0 0 1.414.382l.005-.018.996-3.691.005-.018a.732.732 0 0 0-.52-.88Zm22.335-.838a.732.732 0 0 0-.893.498l-.005.018-.996 3.691-.005.018a.732.732 0 0 0 1.414.382l.005-.018.996-3.692.005-.017a.732.732 0 0 0-.521-.88ZM3.178 8.525a13.383 13.383 0 0 0-1.564 4.908.732.732 0 0 0 1.252-.275l.005-.018.996-3.691.005-.018a.732.732 0 0 0-.694-.906Zm21.981.026a.732.732 0 0 0-.893.498l-.005.018-.996 3.691-.005.018a.732.732 0 0 0 1.414.382l.005-.018.996-3.691.005-.018a.732.732 0 0 0-.521-.88ZM7.513 5.04a.732.732 0 0 0-.893.5l-.005.017-.996 3.691-.005.018a.732.732 0 0 0 1.414.382l.005-.018.996-3.691.005-.018a.732.732 0 0 0-.521-.88Zm12.799.698a.732.732 0 0 0-.893.5l-.005.017-.67 2.48c.434.214.848.466 1.237.753l.064.048.783-2.9.004-.017a.732.732 0 0 0-.52-.88Zm-6.515-4.162a13.47 13.47 0 0 0-1.393.197l-.097.02-.929 3.441-.004.018a.732.732 0 0 0 1.413.381l.005-.017.997-3.692.004-.017a.728.728 0 0 0 .004-.33Zm9.166 2.55-.196.726-.005.017a.732.732 0 0 0 1.414.382l.005-.018.021-.078a13.548 13.548 0 0 0-1.153-.965l-.086-.064Zm-5.796-2.43-.353 1.31-.005.018a.732.732 0 0 0 1.414.381l.005-.017.372-1.378c-.438-.121-.881-.22-1.329-.296l-.104-.017ZM9.69 24.625a.733.733 0 0 1 1.415.382l-.005.018-.713 2.641-.1-.036a13.38 13.38 0 0 1-1.26-.546l.659-2.441.005-.018Z"/>
  <path fill="#fff" fill-rule="evenodd" d="M6.66 14.652c0-3.415 3.392-6.161 7.754-6.161 2.098 0 3.898.58 5.314 1.688 1.761 1.377 2.426 3.273 2.996 5.33l2.284 8.517c-2.142 2.355-5.064 3.916-8.225 4.334-.19-1.289-.435-2.573-.68-3.852l-.037-.196-.142-.75c-.254-1.34-.526-2.776-.638-3.089-.134-.372-.253-.649-.665-.64-4.84.103-7.962-1.956-7.962-5.181Zm9.63-2.757a.937.937 0 1 0-1.876 0 .937.937 0 0 0 1.875 0Z" clip-rule="evenodd"/>
</svg>
