<?xml version="1.0" encoding="UTF-8" standalone="no"?>
<!DOCTYPE svg PUBLIC "-//W3C//DTD SVG 1.1//EN" "http://www.w3.org/Graphics/SVG/1.1/DTD/svg11.dtd">
<svg width="100%" height="100%" viewBox="0 0 420 1029" version="1.1" xmlns="http://www.w3.org/2000/svg" xmlns:xlink="http://www.w3.org/1999/xlink" xml:space="preserve" xmlns:serif="http://www.serif.com/" style="fill-rule:evenodd;clip-rule:evenodd;stroke-linejoin:round;stroke-miterlimit:1.5;">
    <g transform="matrix(1,0,0,1,-4063.49,-1311.07)">
        <path d="M4241.1,1833.46L4241.1,2325.21C4241.1,2325.21 4310.89,2337.69 4332.55,2316.56C4354.21,2295.43 4336.18,2279.77 4363.76,2277.35C4391.34,2274.93 4397.37,2275.65 4397.32,2249.91C4397.27,2224.16 4366.32,2112.53 4375.67,2100C4385.03,2087.47 4482.68,1937.72 4472.28,1741.12C4461.89,1544.51 4377.42,1388.5 4300.12,1346.12C4222.83,1303.74 4181.2,1327.05 4165.86,1342.93C4150.51,1358.81 4077.93,1368.14 4078.13,1416.54C4078.32,1464.94 4079.31,1495.13 4148.35,1517.22C4217.39,1539.31 4250.76,1502.02 4265.08,1529.19C4279.4,1556.36 4305.06,1574.54 4317.83,1646.37C4330.6,1718.2 4292.32,1829.63 4241.1,1833.46Z" style="fill:white;"/>
    </g>
    <g transform="matrix(1,0,0,1,-4424.54,-1297.36)">
        <path d="M4602.15,1819.75C4639.69,1819.75 4677.67,1762.97 4681.96,1680.09C4686.25,1597.21 4633.48,1498.14 4603.15,1503.3C4578.97,1507.41 4528.13,1514.53 4481.21,1493.71C4434.3,1472.89 4410.65,1382.81 4471.25,1360.88C4531.86,1338.94 4542.83,1292.96 4621.36,1312.5C4689.41,1329.44 4826.98,1477.77 4833.09,1722.96C4839.21,1968.15 4725.89,2117.56 4681.96,2146.52C4681.21,2187.07 4694.85,2232.29 4704.97,2272.59C4716.68,2319.18 4633.53,2314.97 4602.15,2315.16" style="fill:none;stroke:black;stroke-width:20.83px;"/>
    </g>
    <g transform="matrix(1,0,0,-0.520475,-4433.32,792.418)">
        <path d="M4567.61,1389.35C4567.61,1379.45 4563.43,1371.41 4558.28,1371.41C4553.13,1371.41 4548.94,1379.45 4548.94,1389.35L4548.94,1423.08C4548.94,1432.98 4553.13,1441.01 4558.28,1441.01C4563.43,1441.01 4567.61,1432.98 4567.61,1423.08L4567.61,1389.35Z"/>
    </g>
    <g transform="matrix(1,0,0,-0.520475,-4377.67,797.418)">
        <path d="M4567.61,1389.35C4567.61,1379.45 4563.43,1371.41 4558.28,1371.41C4553.13,1371.41 4548.94,1379.45 4548.94,1389.35L4548.94,1423.08C4548.94,1432.98 4553.13,1441.01 4558.28,1441.01C4563.43,1441.01 4567.61,1432.98 4567.61,1423.08L4567.61,1389.35Z"/>
    </g>
    <g transform="matrix(1,0,0,1,-4063.49,-1311.07)">
        <path d="M4375.67,2100C4360.88,2170.88 4403.48,2227.93 4396.36,2259.68C4391.77,2280.21 4351.5,2287.39 4342.33,2280.01" style="fill:none;stroke:black;stroke-width:20.83px;stroke-linecap:round;"/>
    </g>
</svg>
