<?xml version="1.0" encoding="utf-8"?>
<!-- Generator: Adobe Illustrator 29.7.1, SVG Export Plug-In . SVG Version: 9.03 Build 0)  -->
<svg
  version="1.1"
  id="Layer_1"
  xmlns="http://www.w3.org/2000/svg"
  xmlns:xlink="http://www.w3.org/1999/xlink"
  x="0px"
  y="0px"
  viewBox="0 0 100 100"
  style="enable-background: new 0 0 100 100"
  xml:space="preserve"
>
  <style type="text/css">
  .st0 {
    fill: #f6b74e;
  }
  .st1 {
    fill: #d79b45;
  }
  </style>
  <g>
    <path
      class="st0"
      d="M89.71,34.35c0.14,13.61-0.1,27.22,0,40.83c-0.26,2.54-2.3,4.49-4.87,4.58l-69.75,0
		c-2.6-0.22-4.52-2.11-4.73-4.73c0.05-13.56-0.05-27.13,0.01-40.69c0.55-2.26,2.09-3.83,4.42-4.18l70.05-0.01
		C87.43,30.34,89.07,31.86,89.71,34.35z"
    />
    <path
      class="st1"
      d="M89.71,34.35c-0.63-2.49-2.27-4.01-4.87-4.19l-70.05,0.01c-2.33,0.35-3.87,1.92-4.42,4.18
		c0.01-2.51-0.42-8.92,0.33-10.91c0.7-1.85,2.3-2.96,4.24-3.2l24.81,0c2.79,1.27,5.19,3.46,7.9,4.96
		c12.84,0.15,25.74-0.26,38.54,0.21C90.42,26.82,89.67,30.78,89.71,34.35z"
    />
    <path
      class="st1"
      d="M39.61,45.08c2.23-0.36,3.62,1.7,2.65,3.73c-0.96,1.99-3.02,4.03-4.01,6.08c-0.05,0.58,3.5,5.16,4.01,6.22
		c1.4,2.91-2.06,5.23-4.22,2.67c-1.12-1.33-4.29-6.01-5.02-7.53c-0.47-0.97-0.47-1.6,0-2.58c0.75-1.57,3.81-6.04,4.96-7.44
		C38.43,45.67,38.85,45.2,39.61,45.08z"
    />
    <path
      class="st1"
      d="M59.45,45.08c1.1-0.18,1.81,0.15,2.52,0.97c1.08,1.25,4.39,6.15,5.09,7.62c0.47,0.97,0.47,1.6,0,2.58
		c-0.73,1.51-3.9,6.2-5.02,7.53c-2.16,2.56-5.62,0.24-4.22-2.67c0.96-1.99,3.02-4.03,4.01-6.08c0.05-0.58-3.5-5.16-4.01-6.22
		C57.08,47.29,57.68,45.37,59.45,45.08z"
    />
    <path
      class="st1"
      d="M52.01,45.08c1.81-0.32,3.24,1.17,2.95,2.95l-5.2,15.57c-1.5,2.46-5.09,1.15-4.64-1.7l5.15-15.46
		C50.56,45.83,51.35,45.2,52.01,45.08z"
    />
  </g>
</svg>
