<?xml version="1.0" encoding="UTF-8"?>
<svg xmlns="http://www.w3.org/2000/svg" version="1.1" viewBox="0 0 935.3 310">
  <defs>
    <style>
      .cls-1 {
        fill: #fff;
      }

      .cls-1, .cls-2 {
        fill-rule: evenodd;
      }
    </style>
  </defs>
  <!-- Generator: Adobe Illustrator 28.7.4, SVG Export Plug-In . SVG Version: 1.2.0 Build 166)  -->
  <g>
    <g id="Layer_1">
      <g id="background">
        <path class="cls-2" d="M27.1,214.1c-8.3-18-13-38-13-59.1s.3-10.9.9-16.2c.6-5.4,1.5-10.6,2.7-15.8,6.7-28.8,22.2-54.3,43.6-73.3,18-16,40-27.4,64.1-32.5,9.5-2,19.4-3.1,29.5-3.1,3.5,0,7.1.1,10.7.4,17.1,1.3,33.2,5.6,47.9,12.3,11.9,5.4,22.8,12.5,32.7,20.8,24.7,21,41.9,50.3,47.6,83.1,1.4,7.9,2.1,16,2.1,24.2,0,3.6-.1,7.1-.4,10.7-1,13.6-4,26.6-8.6,38.8-6.4,17-15.9,32.4-27.9,45.5-15.6,15.9-35.5,23-52,22.7-12.1-.2-23.8-5-32-12-11.6-10-16.3-21.5-18-34.3-.4-3.2-.2-11.8,1.5-17.8,1.2-4.5,4.4-13.1,8.9-16.9-5.3-2.3-12.2-7.3-14.4-9.7-.5-.6-.5-1.5,0-2.2.5-.6,1.3-.9,2.1-.6,4.6,1.6,10.2,3.1,16.1,4.1,7.8,1.3,17.4,2.9,27.2,3.4,23.9,1.2,48.8-9.5,56.5-30.8,7.7-21.3,4.7-42.4-23-55-27.7-12.6-40.6-27.7-63-36.7-14.6-5.9-30.9-2.4-47.7,6.8-45.1,24.9-85.4,103.6-66.8,176.5.3,1-.2,2-1.1,2.5-.8.5-1.9.3-2.6-.3-5.4-6-10.3-12.4-14.7-19.2-3.4-5.3-6.4-10.8-9-16.5Z"/>
      </g>
      <g id="outline">
        <path class="cls-1" d="M162.2.2c85.5,4,151.6,76.6,147.6,162-4,85.5-76.6,151.6-162,147.6C62.3,305.9-3.8,233.3.2,147.8,4.1,62.3,76.7-3.8,162.2.2ZM198.4,186.8c-9.8-.5-19.4-2.1-27.2-3.4-5.9-1-11.5-2.5-16.1-4.1-.8-.3-1.6,0-2.1.6-.5.6-.5,1.6,0,2.2,2.2,2.4,9.1,7.4,14.4,9.7-4.6,3.8-7.7,12.4-8.9,16.9-1.7,6-1.9,14.7-1.5,17.8,1.6,12.8,6.3,24.2,18,34.3,8.1,7,19.9,11.8,32,12,16.6.3,36.6-6.8,52.2-22.9,20.4-22.4,33.8-51.6,36.3-84.1,5.9-77.5-52.2-145.3-129.8-151.2C88.2,8.6,20.4,66.7,14.5,144.3c-3.1,40.2,11.1,77.7,36.1,105.4.7.8,1.8.9,2.7.4s1.4-1.5,1.1-2.5c-18.6-72.9,21.8-151.6,66.8-176.5,16.7-9.2,33-12.8,47.7-6.8,22.4,9.1,35.2,24.1,63,36.7,27.7,12.6,30.7,33.7,23,55-7.7,21.3-32.7,32-56.5,30.8Z"/>
      </g>
      <g id="eye">
        <path class="cls-2" d="M150,74c7.6-.6,14.2,5.9,15.4,14.5,1.5,11.5-2.7,23.4-16.6,23.6-11.8.2-15.4-11.7-14.7-19,.8-7.2,6.7-18.5,15.8-19.2Z"/>
      </g>
      <path class="cls-2" d="M590.6,227.7c-44,0-73.6-30.1-73.6-71.6s29.5-71.6,73.6-71.6,73.9,29,73.9,71.6-30.7,71.6-73.9,71.6ZM590.6,194.5c20.2,0,36.1-15.9,36.1-38.4s-15.3-38.4-36.1-38.4-36.1,16.5-36.1,38.4,15.1,38.4,36.1,38.4ZM749.6,227.7c-41.2,0-71.3-29-71.3-71.6s30.1-71.6,73-71.6,44.9,8.8,58.8,26.4l-25,21.6c-7.4-8.5-18.2-14.8-32.4-14.8-22.2,0-36.9,15.6-36.9,38.1s15.3,38.6,37.2,38.6,25.9-6.8,32.4-14.2l25.3,22.4c-11.9,13.9-33.2,25-61.1,25ZM879.2,227.7c-22.2,0-40.9-7.1-56.2-20.2l18.2-25.9c11.4,10.8,23.3,16.2,38.4,16.2s17-4.5,17-11.4-7.1-9.7-25.3-15.3c-22.7-7.7-42.6-18.5-42.6-45.2s21.6-41.5,50-41.5,34.9,5.1,50.6,17.3l-17.9,27.3c-10.8-10.2-23-14.8-33.2-14.8s-13.6,3.1-13.6,10.5,7.4,9.7,21,14.8c30.1,11.1,47.7,17.6,47.7,44.9s-17.6,43.2-54,43.2ZM380.6,225.4V84.5h50.9c44.6,0,73.2,29,73.2,70.6s-26.9,70.3-72.6,70.3h-51.5ZM417.2,191.9h12.3c21.5,0,35.6-16.5,35.6-36.7s-14.3-37.1-32.8-37.1h-15.1v73.8Z"/>
    </g>
  </g>
</svg>