<svg width="812" height="319" viewBox="0 0 812 319" fill="none" xmlns="http://www.w3.org/2000/svg">
<g filter="url(#filter0_d_300_8713)">
<rect x="38.9246" y="60.4598" width="401.08" height="210.08" rx="14.2537" fill="#FFF7ED"/>
<path d="M205.481 84.0576V87.9072H206.545C207.395 87.9072 207.989 87.7637 208.329 87.4766C208.675 87.1895 208.848 86.6914 208.848 85.9824C208.848 85.2734 208.675 84.7754 208.329 84.4883C207.989 84.2012 207.395 84.0576 206.545 84.0576H205.481ZM202.889 81.8779H206.448C208.259 81.8779 209.56 82.2002 210.351 82.8447C211.147 83.4893 211.546 84.5352 211.546 85.9824C211.546 87.4297 211.147 88.4756 210.351 89.1201C209.56 89.7646 208.259 90.0869 206.448 90.0869H205.481V95H202.889V81.8779ZM222.427 87.8721C222.146 87.6143 221.814 87.4209 221.434 87.292C221.059 87.1631 220.646 87.0986 220.194 87.0986C219.649 87.0986 219.172 87.1953 218.762 87.3887C218.357 87.5762 218.044 87.8516 217.821 88.2148C217.681 88.4375 217.581 88.707 217.522 89.0234C217.47 89.3398 217.443 89.8203 217.443 90.4648V95H214.868V85.1562H217.443V86.6855C217.695 86.123 218.082 85.6895 218.604 85.3848C219.125 85.0742 219.734 84.9189 220.432 84.9189C220.783 84.9189 221.126 84.9629 221.46 85.0508C221.8 85.1328 222.122 85.2559 222.427 85.4199V87.8721ZM228.57 87.0107C227.955 87.0107 227.472 87.2832 227.12 87.8281C226.769 88.3672 226.593 89.1201 226.593 90.0869C226.593 91.0537 226.769 91.8096 227.12 92.3545C227.472 92.8936 227.955 93.1631 228.57 93.1631C229.191 93.1631 229.678 92.8936 230.029 92.3545C230.381 91.8096 230.557 91.0537 230.557 90.0869C230.557 89.1201 230.381 88.3672 230.029 87.8281C229.678 87.2832 229.191 87.0107 228.57 87.0107ZM224.018 90.0869C224.018 88.499 224.428 87.2422 225.248 86.3164C226.074 85.3848 227.182 84.9189 228.57 84.9189C229.965 84.9189 231.072 85.3848 231.893 86.3164C232.719 87.2422 233.132 88.499 233.132 90.0869C233.132 91.6748 232.719 92.9346 231.893 93.8662C231.072 94.792 229.965 95.2549 228.57 95.2549C227.182 95.2549 226.074 94.792 225.248 93.8662C224.428 92.9346 224.018 91.6748 224.018 90.0869ZM241.473 94.6221C241.473 96.0986 241.206 97.1504 240.673 97.7773C240.146 98.4102 239.267 98.7266 238.036 98.7266H235.259V96.749H237.315C237.89 96.749 238.297 96.5879 238.537 96.2656C238.777 95.9434 238.897 95.3955 238.897 94.6221V87.1338H236.287V85.1562H241.473V94.6221ZM241.473 83.3721H238.897V80.3662H241.473V83.3721ZM254.533 94.5166C253.936 94.7627 253.326 94.9473 252.705 95.0703C252.084 95.1934 251.428 95.2549 250.736 95.2549C249.09 95.2549 247.83 94.8154 246.957 93.9365C246.09 93.0518 245.656 91.7803 245.656 90.1221C245.656 88.5166 246.075 87.248 246.913 86.3164C247.751 85.3848 248.894 84.9189 250.341 84.9189C251.8 84.9189 252.931 85.3525 253.733 86.2197C254.542 87.0811 254.946 88.2969 254.946 89.8672V90.9131H248.275C248.281 91.6865 248.51 92.2637 248.961 92.6445C249.412 93.0254 250.086 93.2158 250.982 93.2158C251.574 93.2158 252.157 93.1309 252.731 92.9609C253.306 92.791 253.906 92.5215 254.533 92.1523V94.5166ZM252.354 88.9795C252.342 88.2998 252.166 87.7871 251.826 87.4414C251.492 87.0898 250.997 86.9141 250.341 86.9141C249.749 86.9141 249.277 87.0957 248.926 87.459C248.574 87.8164 248.366 88.3262 248.302 88.9883L252.354 88.9795ZM265.019 94.499C264.585 94.751 264.119 94.9385 263.621 95.0615C263.123 95.1904 262.587 95.2549 262.013 95.2549C260.495 95.2549 259.309 94.7979 258.453 93.8838C257.598 92.9697 257.17 91.7041 257.17 90.0869C257.17 88.4639 257.601 87.1953 258.462 86.2812C259.323 85.3613 260.513 84.9014 262.03 84.9014C262.558 84.9014 263.064 84.9629 263.551 85.0859C264.043 85.209 264.532 85.3994 265.019 85.6572V88.0127C264.644 87.6904 264.23 87.4443 263.779 87.2744C263.334 87.0986 262.871 87.0107 262.391 87.0107C261.553 87.0107 260.908 87.2773 260.457 87.8105C260.006 88.3438 259.78 89.1025 259.78 90.0869C259.78 91.0713 260.006 91.8271 260.457 92.3545C260.908 92.8818 261.553 93.1455 262.391 93.1455C262.889 93.1455 263.354 93.0635 263.788 92.8994C264.222 92.7295 264.632 92.4746 265.019 92.1348V94.499ZM272.604 82.3613V85.1562H275.97V87.1338H272.604V91.792C272.604 92.2314 272.709 92.5479 272.92 92.7412C273.137 92.9287 273.494 93.0225 273.992 93.0225H275.97V95H273.808C272.331 95 271.332 94.7656 270.811 94.2969C270.289 93.8223 270.028 92.9463 270.028 91.6689V87.1338H267.515V85.1562H270.028V82.3613H272.604Z" fill="#EA580C"/>
<rect x="59.9246" y="115.46" width="359.08" height="62.5804" fill="#FFEDD5"/>
<path d="M204.599 126.296V131.043H204.994C205.567 131.043 205.975 130.863 206.219 130.505C206.462 130.142 206.584 129.528 206.584 128.662C206.584 127.803 206.462 127.194 206.219 126.835C205.975 126.476 205.567 126.296 204.994 126.296H204.599ZM203.142 124.982H204.702C205.907 124.982 206.775 125.271 207.305 125.847C207.835 126.42 208.1 127.358 208.1 128.662C208.1 129.969 207.835 130.913 207.305 131.492C206.775 132.069 205.907 132.357 204.702 132.357H203.142V124.982ZM214.003 132.085C213.667 132.223 213.325 132.327 212.975 132.396C212.626 132.465 212.258 132.5 211.869 132.5C210.944 132.5 210.236 132.253 209.745 131.759C209.258 131.262 209.014 130.547 209.014 129.615C209.014 128.713 209.25 128 209.721 127.477C210.191 126.953 210.834 126.691 211.647 126.691C212.467 126.691 213.102 126.935 213.553 127.422C214.008 127.907 214.235 128.59 214.235 129.472V130.06H210.486C210.489 130.495 210.618 130.819 210.871 131.033C211.125 131.247 211.504 131.354 212.007 131.354C212.34 131.354 212.668 131.306 212.99 131.211C213.313 131.115 213.651 130.964 214.003 130.756V132.085ZM212.778 128.973C212.771 128.591 212.673 128.303 212.482 128.109C212.294 127.911 212.016 127.813 211.647 127.813C211.314 127.813 211.049 127.915 210.852 128.119C210.654 128.32 210.537 128.606 210.501 128.978L212.778 128.973ZM216.838 131.576V134.461H215.396V126.825H216.838V127.655C216.989 127.335 217.189 127.095 217.436 126.933C217.683 126.772 217.972 126.691 218.305 126.691C218.937 126.691 219.428 126.945 219.777 127.452C220.126 127.959 220.3 128.674 220.3 129.596C220.3 130.531 220.123 131.249 219.767 131.749C219.415 132.25 218.911 132.5 218.256 132.5C217.959 132.5 217.692 132.424 217.455 132.273C217.222 132.118 217.016 131.886 216.838 131.576ZM218.853 129.586C218.853 129.052 218.764 128.634 218.586 128.331C218.409 128.028 218.163 127.877 217.851 127.877C217.538 127.877 217.291 128.028 217.11 128.331C216.929 128.634 216.838 129.052 216.838 129.586C216.838 130.119 216.929 130.537 217.11 130.84C217.291 131.143 217.538 131.295 217.851 131.295C218.163 131.295 218.409 131.143 218.586 130.84C218.764 130.537 218.853 130.119 218.853 129.586ZM222.661 130.05V125.783H221.194V124.671H224.108V130.05C224.108 130.485 224.176 130.793 224.311 130.974C224.446 131.155 224.675 131.245 224.998 131.245H226.153V132.357H224.593C223.904 132.357 223.41 132.179 223.111 131.823C222.811 131.468 222.661 130.877 222.661 130.05ZM229.887 127.867C229.542 127.867 229.27 128.02 229.072 128.326C228.875 128.629 228.776 129.052 228.776 129.596C228.776 130.139 228.875 130.564 229.072 130.87C229.27 131.173 229.542 131.324 229.887 131.324C230.236 131.324 230.51 131.173 230.707 130.87C230.905 130.564 231.004 130.139 231.004 129.596C231.004 129.052 230.905 128.629 230.707 128.326C230.51 128.02 230.236 127.867 229.887 127.867ZM227.329 129.596C227.329 128.703 227.559 127.997 228.02 127.477C228.485 126.953 229.107 126.691 229.887 126.691C230.671 126.691 231.293 126.953 231.754 127.477C232.219 127.997 232.451 128.703 232.451 129.596C232.451 130.488 232.219 131.196 231.754 131.72C231.293 132.24 230.671 132.5 229.887 132.5C229.107 132.5 228.485 132.24 228.02 131.72C227.559 131.196 227.329 130.488 227.329 129.596ZM236.452 132.954C236.257 133.475 236.024 133.853 235.75 134.09C235.48 134.331 235.151 134.451 234.762 134.451H233.567V133.35H234.155C234.451 133.35 234.669 133.298 234.807 133.196C234.945 133.098 235.085 132.865 235.227 132.5L235.335 132.204L233.231 126.825H234.753L236.017 130.416L237.227 126.825H238.748L236.452 132.954ZM242.443 127.378C242.552 127.144 242.69 126.971 242.858 126.859C243.026 126.747 243.231 126.691 243.475 126.691C243.953 126.691 244.282 126.856 244.463 127.185C244.647 127.515 244.74 128.2 244.74 129.24V132.357H243.554V128.805C243.554 128.394 243.523 128.119 243.46 127.981C243.398 127.842 243.284 127.773 243.12 127.773C242.955 127.773 242.84 127.844 242.774 127.986C242.708 128.127 242.675 128.4 242.675 128.805V132.357H241.504V128.805C241.504 128.4 241.471 128.127 241.406 127.986C241.34 127.844 241.225 127.773 241.06 127.773C240.895 127.773 240.782 127.842 240.719 127.981C240.657 128.119 240.625 128.394 240.625 128.805V132.357H239.44V126.825H240.492V127.398C240.574 127.18 240.706 127.009 240.887 126.884C241.068 126.756 241.271 126.691 241.495 126.691C241.718 126.691 241.923 126.759 242.107 126.894C242.291 127.026 242.403 127.187 242.443 127.378ZM250.573 132.085C250.237 132.223 249.894 132.327 249.545 132.396C249.196 132.465 248.828 132.5 248.439 132.5C247.514 132.5 246.806 132.253 246.315 131.759C245.828 131.262 245.584 130.547 245.584 129.615C245.584 128.713 245.82 128 246.291 127.477C246.761 126.953 247.403 126.691 248.217 126.691C249.037 126.691 249.672 126.935 250.123 127.422C250.578 127.907 250.805 128.59 250.805 129.472V130.06H247.056C247.059 130.495 247.188 130.819 247.441 131.033C247.695 131.247 248.074 131.354 248.577 131.354C248.91 131.354 249.238 131.306 249.56 131.211C249.883 131.115 250.22 130.964 250.573 130.756V132.085ZM249.348 128.973C249.341 128.591 249.243 128.303 249.052 128.109C248.864 127.911 248.586 127.813 248.217 127.813C247.884 127.813 247.619 127.915 247.422 128.119C247.224 128.32 247.107 128.606 247.071 128.978L249.348 128.973ZM256.515 128.766V132.357H255.077V128.988C255.077 128.586 255.02 128.3 254.905 128.129C254.793 127.954 254.608 127.867 254.351 127.867C254.091 127.867 253.885 127.984 253.734 128.218C253.586 128.451 253.512 128.776 253.512 129.191V132.357H252.074V126.825H253.512V127.655C253.614 127.348 253.788 127.111 254.035 126.943C254.282 126.775 254.58 126.691 254.929 126.691C255.453 126.691 255.848 126.866 256.115 127.215C256.381 127.561 256.515 128.078 256.515 128.766ZM260.728 125.254V126.825H262.62V127.936H260.728V130.554C260.728 130.801 260.787 130.979 260.906 131.087C261.027 131.193 261.228 131.245 261.508 131.245H262.62V132.357H261.405C260.575 132.357 260.013 132.225 259.72 131.962C259.427 131.695 259.281 131.203 259.281 130.485V127.936H257.868V126.825H259.281V125.254H260.728ZM270.438 131.073H272.068V126.286L270.552 126.662V125.348L272.078 124.982H273.486V131.073H275.116V132.357H270.438V131.073Z" fill="#EA580C"/>
<rect x="70.9598" y="142.173" width="105.593" height="28.5102" fill="#FED7AA"/>
<path d="M110.85 154.163V152.934C111.056 153.145 111.275 153.305 111.507 153.415C111.742 153.526 111.978 153.581 112.215 153.581C112.493 153.581 112.696 153.511 112.825 153.372C112.955 153.233 113.019 153.012 113.019 152.708V149.999H111.723V149.065H114.079V152.708C114.079 153.361 113.941 153.83 113.666 154.112C113.393 154.392 112.942 154.533 112.312 154.533C112.084 154.533 111.846 154.501 111.597 154.439C111.35 154.377 111.101 154.285 110.85 154.163ZM116.723 152.076C116.189 151.872 115.827 151.659 115.638 151.436C115.449 151.211 115.354 150.909 115.354 150.531C115.354 150.045 115.51 149.663 115.821 149.385C116.133 149.107 116.56 148.968 117.104 148.968C117.35 148.968 117.597 148.997 117.844 149.054C118.09 149.11 118.335 149.192 118.576 149.302V150.337C118.349 150.176 118.118 150.054 117.883 149.971C117.648 149.887 117.416 149.845 117.186 149.845C116.93 149.845 116.734 149.896 116.597 149.999C116.461 150.102 116.392 150.249 116.392 150.441C116.392 150.59 116.442 150.713 116.54 150.811C116.64 150.907 116.849 151.013 117.165 151.131L117.621 151.303C118.052 151.461 118.369 151.671 118.573 151.932C118.776 152.193 118.878 152.522 118.878 152.92C118.878 153.461 118.718 153.866 118.397 154.134C118.078 154.4 117.596 154.533 116.949 154.533C116.683 154.533 116.416 154.5 116.148 154.436C115.882 154.373 115.625 154.28 115.376 154.155V153.06C115.658 153.261 115.931 153.411 116.195 153.509C116.461 153.607 116.723 153.656 116.982 153.656C117.243 153.656 117.445 153.597 117.589 153.48C117.732 153.36 117.804 153.194 117.804 152.981C117.804 152.82 117.756 152.68 117.66 152.56C117.565 152.438 117.426 152.343 117.244 152.273L116.723 152.076ZM122.553 149.065H123.347L120.523 155.111H119.73L122.553 149.065ZM126.501 154.428H125.441V149.992H124.08V149.065H127.862V149.992H126.501V154.428ZM130.021 152.076C129.487 151.872 129.125 151.659 128.936 151.436C128.747 151.211 128.652 150.909 128.652 150.531C128.652 150.045 128.808 149.663 129.119 149.385C129.431 149.107 129.858 148.968 130.402 148.968C130.649 148.968 130.895 148.997 131.142 149.054C131.388 149.11 131.633 149.192 131.875 149.302V150.337C131.647 150.176 131.416 150.054 131.181 149.971C130.947 149.887 130.714 149.845 130.484 149.845C130.228 149.845 130.032 149.896 129.895 149.999C129.759 150.102 129.691 150.249 129.691 150.441C129.691 150.59 129.74 150.713 129.838 150.811C129.938 150.907 130.147 151.013 130.463 151.131L130.919 151.303C131.35 151.461 131.667 151.671 131.871 151.932C132.075 152.193 132.176 152.522 132.176 152.92C132.176 153.461 132.016 153.866 131.695 154.134C131.377 154.4 130.894 154.533 130.247 154.533C129.982 154.533 129.715 154.5 129.446 154.436C129.181 154.373 128.923 154.28 128.674 154.155V153.06C128.957 153.261 129.23 153.411 129.493 153.509C129.759 153.607 130.021 153.656 130.28 153.656C130.541 153.656 130.743 153.597 130.887 153.48C131.03 153.36 131.102 153.194 131.102 152.981C131.102 152.82 131.054 152.68 130.959 152.56C130.863 152.438 130.724 152.343 130.542 152.273L130.021 152.076ZM118.774 163.274C118.606 163.36 118.43 163.425 118.246 163.468C118.062 163.511 117.868 163.533 117.664 163.533C116.941 163.533 116.389 163.294 116.008 162.818C115.627 162.341 115.437 161.653 115.437 160.752C115.437 159.849 115.627 159.16 116.008 158.683C116.389 158.207 116.941 157.968 117.664 157.968C117.868 157.968 118.063 157.99 118.25 158.033C118.436 158.076 118.611 158.141 118.774 158.227V159.405C118.592 159.238 118.415 159.115 118.242 159.039C118.072 158.96 117.896 158.92 117.714 158.92C117.326 158.92 117.033 159.075 116.834 159.384C116.638 159.69 116.54 160.146 116.54 160.752C116.54 161.356 116.638 161.812 116.834 162.121C117.033 162.427 117.326 162.581 117.714 162.581C117.896 162.581 118.072 162.542 118.242 162.466C118.415 162.387 118.592 162.263 118.774 162.096V163.274ZM121.536 160.163C121.285 160.163 121.087 160.274 120.944 160.497C120.8 160.717 120.728 161.025 120.728 161.42C120.728 161.815 120.8 162.124 120.944 162.347C121.087 162.567 121.285 162.678 121.536 162.678C121.79 162.678 121.989 162.567 122.133 162.347C122.276 162.124 122.348 161.815 122.348 161.42C122.348 161.025 122.276 160.717 122.133 160.497C121.989 160.274 121.79 160.163 121.536 160.163ZM119.676 161.42C119.676 160.771 119.843 160.258 120.179 159.879C120.516 159.499 120.969 159.308 121.536 159.308C122.106 159.308 122.559 159.499 122.894 159.879C123.232 160.258 123.401 160.771 123.401 161.42C123.401 162.069 123.232 162.584 122.894 162.965C122.559 163.343 122.106 163.533 121.536 163.533C120.969 163.533 120.516 163.343 120.179 162.965C119.843 162.584 119.676 162.069 119.676 161.42ZM126.598 159.976V157.839H127.647V163.428H126.598V162.832C126.485 163.064 126.339 163.239 126.16 163.357C125.982 163.474 125.773 163.533 125.531 163.533C125.071 163.533 124.714 163.348 124.46 162.979C124.207 162.611 124.08 162.091 124.08 161.42C124.08 160.74 124.208 160.218 124.464 159.854C124.723 159.49 125.09 159.308 125.567 159.308C125.782 159.308 125.975 159.364 126.145 159.477C126.318 159.587 126.468 159.754 126.598 159.976ZM125.132 161.428C125.132 161.815 125.197 162.12 125.326 162.34C125.455 162.56 125.634 162.67 125.861 162.67C126.089 162.67 126.268 162.56 126.4 162.34C126.532 162.12 126.598 161.815 126.598 161.428C126.598 161.04 126.532 160.735 126.4 160.515C126.268 160.295 126.089 160.185 125.861 160.185C125.634 160.185 125.455 160.295 125.326 160.515C125.197 160.735 125.132 161.04 125.132 161.428ZM132.148 163.231C131.903 163.331 131.654 163.407 131.4 163.457C131.147 163.507 130.878 163.533 130.596 163.533C129.923 163.533 129.408 163.353 129.051 162.994C128.697 162.632 128.52 162.112 128.52 161.435C128.52 160.779 128.691 160.26 129.033 159.879C129.376 159.499 129.843 159.308 130.434 159.308C131.03 159.308 131.493 159.485 131.821 159.84C132.151 160.192 132.316 160.689 132.316 161.331V161.758H129.59C129.592 162.074 129.686 162.31 129.87 162.466C130.055 162.621 130.33 162.699 130.696 162.699C130.938 162.699 131.177 162.664 131.411 162.595C131.646 162.526 131.891 162.415 132.148 162.265V163.231ZM131.257 160.968C131.252 160.69 131.18 160.48 131.041 160.339C130.905 160.195 130.702 160.124 130.434 160.124C130.192 160.124 130 160.198 129.856 160.346C129.712 160.492 129.627 160.701 129.601 160.971L131.257 160.968Z" fill="#EA580C"/>
<rect x="70.9598" y="142.173" width="105.593" height="28.5102" stroke="#FDBA74" stroke-width="0.919592"/>
<rect x="186.668" y="142.173" width="105.593" height="28.5102" fill="#FED7AA"/>
<path d="M227.999 152.076C227.465 151.872 227.103 151.659 226.914 151.436C226.725 151.211 226.63 150.909 226.63 150.531C226.63 150.045 226.786 149.663 227.097 149.385C227.408 149.107 227.836 148.968 228.379 148.968C228.626 148.968 228.873 148.997 229.119 149.054C229.366 149.11 229.61 149.192 229.852 149.302V150.337C229.625 150.176 229.394 150.054 229.159 149.971C228.924 149.887 228.692 149.845 228.462 149.845C228.206 149.845 228.009 149.896 227.873 149.999C227.736 150.102 227.668 150.249 227.668 150.441C227.668 150.59 227.717 150.713 227.815 150.811C227.916 150.907 228.124 151.013 228.441 151.131L228.897 151.303C229.328 151.461 229.645 151.671 229.849 151.932C230.052 152.193 230.154 152.522 230.154 152.92C230.154 153.461 229.994 153.866 229.673 154.134C229.354 154.4 228.872 154.533 228.225 154.533C227.959 154.533 227.692 154.5 227.424 154.436C227.158 154.373 226.901 154.28 226.652 154.155V153.06C226.934 153.261 227.207 153.411 227.471 153.509C227.736 153.607 227.999 153.656 228.257 153.656C228.518 153.656 228.721 153.597 228.864 153.48C229.008 153.36 229.08 153.194 229.08 152.981C229.08 152.82 229.032 152.68 228.936 152.56C228.84 152.438 228.702 152.343 228.52 152.273L227.999 152.076ZM233.078 149.263V150.405H234.454V151.213H233.078V153.117C233.078 153.297 233.121 153.426 233.207 153.505C233.296 153.582 233.442 153.62 233.646 153.62H234.454V154.428H233.57C232.967 154.428 232.558 154.333 232.345 154.141C232.132 153.947 232.025 153.589 232.025 153.067V151.213H230.998V150.405H232.025V149.263H233.078ZM237.547 152.539C237.154 152.539 236.88 152.589 236.724 152.69C236.568 152.79 236.491 152.963 236.491 153.207C236.491 153.389 236.544 153.534 236.652 153.642C236.76 153.749 236.906 153.803 237.09 153.803C237.368 153.803 237.584 153.699 237.737 153.491C237.89 153.28 237.967 152.987 237.967 152.611V152.539H237.547ZM239.012 152.133V154.428H237.967V153.979C237.84 154.157 237.677 154.293 237.478 154.389C237.28 154.485 237.06 154.533 236.821 154.533C236.364 154.533 236.007 154.412 235.751 154.17C235.497 153.928 235.37 153.59 235.37 153.157C235.37 152.687 235.522 152.341 235.826 152.119C236.13 151.894 236.601 151.781 237.238 151.781H237.967V151.605C237.967 151.435 237.905 151.307 237.78 151.221C237.658 151.132 237.477 151.088 237.238 151.088C236.986 151.088 236.742 151.12 236.505 151.185C236.27 151.247 236.025 151.347 235.769 151.486V150.588C236.001 150.493 236.237 150.422 236.476 150.376C236.716 150.331 236.969 150.308 237.238 150.308C237.891 150.308 238.35 150.441 238.614 150.707C238.879 150.973 239.012 151.448 239.012 152.133ZM241.943 149.263V150.405H243.319V151.213H241.943V153.117C241.943 153.297 241.987 153.426 242.073 153.505C242.161 153.582 242.307 153.62 242.511 153.62H243.319V154.428H242.436C241.832 154.428 241.424 154.333 241.211 154.141C240.997 153.947 240.891 153.589 240.891 153.067V151.213H239.864V150.405H240.891V149.263H241.943ZM244.691 150.405H246.775V153.62H248.082V154.428H244.411V153.62H245.722V151.213H244.691V150.405ZM245.722 148.447H246.775V149.676H245.722V148.447ZM252.142 154.224C251.964 154.327 251.774 154.403 251.57 154.454C251.367 154.506 251.148 154.533 250.913 154.533C250.293 154.533 249.808 154.346 249.458 153.972C249.109 153.599 248.934 153.081 248.934 152.42C248.934 151.757 249.11 151.239 249.462 150.865C249.814 150.489 250.3 150.301 250.92 150.301C251.136 150.301 251.343 150.326 251.542 150.376C251.743 150.427 251.943 150.505 252.142 150.61V151.573C251.988 151.441 251.819 151.34 251.635 151.271C251.453 151.199 251.264 151.163 251.068 151.163C250.725 151.163 250.462 151.272 250.277 151.49C250.093 151.708 250.001 152.018 250.001 152.42C250.001 152.823 250.093 153.132 250.277 153.347C250.462 153.563 250.725 153.67 251.068 153.67C251.271 153.67 251.461 153.637 251.639 153.57C251.816 153.5 251.984 153.396 252.142 153.257V154.224ZM232.378 158.999H230.096V160.156H232.173V161.09H230.096V163.428H229.037V158.065H232.378V158.999ZM233.61 159.405H235.693V162.62H237.001V163.428H233.329V162.62H234.641V160.213H233.61V159.405ZM234.641 157.447H235.693V158.676H234.641V157.447ZM238.639 161.751V158.647H237.572V157.839H239.691V161.751C239.691 162.067 239.74 162.291 239.838 162.423C239.937 162.554 240.103 162.62 240.338 162.62H241.178V163.428H240.043C239.543 163.428 239.183 163.299 238.966 163.04C238.748 162.782 238.639 162.352 238.639 161.751ZM245.64 163.231C245.395 163.331 245.146 163.407 244.893 163.457C244.639 163.507 244.371 163.533 244.088 163.533C243.415 163.533 242.9 163.353 242.543 162.994C242.189 162.632 242.012 162.112 242.012 161.435C242.012 160.779 242.183 160.26 242.525 159.879C242.868 159.499 243.335 159.308 243.926 159.308C244.523 159.308 244.985 159.485 245.313 159.84C245.643 160.192 245.809 160.689 245.809 161.331V161.758H243.082C243.085 162.074 243.178 162.31 243.362 162.466C243.547 162.621 243.822 162.699 244.189 162.699C244.43 162.699 244.669 162.664 244.903 162.595C245.138 162.526 245.384 162.415 245.64 162.265V163.231ZM244.749 160.968C244.744 160.69 244.672 160.48 244.533 160.339C244.397 160.195 244.195 160.124 243.926 160.124C243.684 160.124 243.492 160.198 243.348 160.346C243.204 160.492 243.119 160.701 243.093 160.971L244.749 160.968ZM249.674 159.531V160.45C249.48 160.326 249.277 160.233 249.067 160.17C248.858 160.106 248.649 160.073 248.438 160.073C248.203 160.073 248.026 160.108 247.906 160.177C247.787 160.245 247.727 160.345 247.727 160.479C247.727 160.671 247.983 160.826 248.496 160.946L248.535 160.957L248.837 161.029C249.22 161.12 249.5 161.267 249.677 161.471C249.857 161.672 249.947 161.945 249.947 162.29C249.947 162.704 249.81 163.015 249.537 163.224C249.267 163.43 248.858 163.533 248.312 163.533C248.07 163.533 247.823 163.511 247.569 163.468C247.315 163.427 247.057 163.365 246.796 163.281V162.361C247.029 162.493 247.265 162.594 247.504 162.663C247.746 162.733 247.979 162.767 248.205 162.767C248.451 162.767 248.638 162.731 248.765 162.66C248.892 162.588 248.955 162.484 248.955 162.347C248.955 162.213 248.91 162.11 248.819 162.038C248.73 161.966 248.517 161.89 248.179 161.808L247.888 161.744C247.486 161.653 247.193 161.51 247.008 161.316C246.824 161.122 246.732 160.862 246.732 160.537C246.732 160.149 246.872 159.847 247.152 159.631C247.432 159.416 247.826 159.308 248.334 159.308C248.561 159.308 248.788 159.327 249.013 159.366C249.24 159.402 249.461 159.457 249.674 159.531Z" fill="#EA580C"/>
<rect x="186.668" y="142.173" width="105.593" height="28.5102" stroke="#FDBA74" stroke-width="0.919592"/>
<rect x="302.377" y="142.173" width="105.593" height="28.5102" fill="#FED7AA"/>
<path d="M352.468 154.428H349.128V149.065H352.468V149.999H350.187V151.156H352.253V152.09H350.187V153.494H352.468V154.428ZM356.804 151.817V154.428H355.759V151.979C355.759 151.686 355.717 151.478 355.633 151.353C355.552 151.227 355.418 151.163 355.231 151.163C355.042 151.163 354.892 151.248 354.782 151.418C354.674 151.588 354.62 151.824 354.62 152.126V154.428H353.575V150.405H354.62V151.009C354.694 150.786 354.821 150.613 355.001 150.491C355.181 150.369 355.397 150.308 355.651 150.308C356.032 150.308 356.319 150.435 356.513 150.689C356.707 150.94 356.804 151.316 356.804 151.817ZM361.531 150.405L360.253 154.428H358.956L357.677 150.405H358.744L359.602 153.545L360.465 150.405H361.531ZM348.521 162.545L349.465 158.065H350.532L349.257 163.428H347.788L346.513 158.065H347.58L348.521 162.545ZM353.255 161.539C352.862 161.539 352.588 161.589 352.433 161.69C352.277 161.79 352.199 161.963 352.199 162.207C352.199 162.389 352.253 162.534 352.361 162.642C352.468 162.749 352.615 162.803 352.799 162.803C353.077 162.803 353.292 162.699 353.446 162.491C353.599 162.28 353.675 161.987 353.675 161.611V161.539H353.255ZM354.721 161.133V163.428H353.675V162.979C353.548 163.157 353.386 163.293 353.187 163.389C352.988 163.485 352.769 163.533 352.53 163.533C352.072 163.533 351.715 163.412 351.459 163.17C351.205 162.928 351.078 162.59 351.078 162.157C351.078 161.687 351.23 161.341 351.534 161.119C351.839 160.894 352.309 160.781 352.946 160.781H353.675V160.605C353.675 160.435 353.613 160.307 353.489 160.221C353.366 160.132 353.186 160.088 352.946 160.088C352.695 160.088 352.45 160.12 352.213 160.185C351.979 160.247 351.733 160.347 351.477 160.486V159.588C351.709 159.493 351.945 159.422 352.185 159.376C352.424 159.331 352.678 159.308 352.946 159.308C353.6 159.308 354.059 159.441 354.322 159.707C354.588 159.973 354.721 160.448 354.721 161.133ZM359.308 160.515C359.193 160.41 359.058 160.331 358.902 160.278C358.749 160.225 358.58 160.199 358.396 160.199C358.173 160.199 357.978 160.239 357.81 160.318C357.645 160.394 357.517 160.507 357.426 160.655C357.368 160.746 357.327 160.856 357.303 160.986C357.282 161.115 357.271 161.311 357.271 161.575V163.428H356.219V159.405H357.271V160.03C357.374 159.8 357.532 159.623 357.745 159.499C357.958 159.372 358.208 159.308 358.492 159.308C358.636 159.308 358.776 159.326 358.913 159.362C359.052 159.396 359.183 159.446 359.308 159.513V160.515ZM363.166 159.531V160.45C362.972 160.326 362.77 160.233 362.559 160.17C362.35 160.106 362.141 160.073 361.93 160.073C361.696 160.073 361.518 160.108 361.399 160.177C361.279 160.245 361.219 160.345 361.219 160.479C361.219 160.671 361.475 160.826 361.988 160.946L362.027 160.957L362.329 161.029C362.712 161.12 362.992 161.267 363.169 161.471C363.349 161.672 363.439 161.945 363.439 162.29C363.439 162.704 363.302 163.015 363.029 163.224C362.759 163.43 362.35 163.533 361.804 163.533C361.563 163.533 361.315 163.511 361.061 163.468C360.807 163.427 360.55 163.365 360.289 163.281V162.361C360.521 162.493 360.757 162.594 360.996 162.663C361.238 162.733 361.472 162.767 361.697 162.767C361.943 162.767 362.13 162.731 362.257 162.66C362.384 162.588 362.447 162.484 362.447 162.347C362.447 162.213 362.402 162.11 362.311 162.038C362.222 161.966 362.009 161.89 361.672 161.808L361.381 161.744C360.978 161.653 360.685 161.51 360.501 161.316C360.316 161.122 360.224 160.862 360.224 160.537C360.224 160.149 360.364 159.847 360.644 159.631C360.924 159.416 361.318 159.308 361.826 159.308C362.054 159.308 362.28 159.327 362.505 159.366C362.732 159.402 362.953 159.457 363.166 159.531Z" fill="#EA580C"/>
<rect x="302.377" y="142.173" width="105.593" height="28.5102" stroke="#FDBA74" stroke-width="0.919592"/>
<rect x="59.9246" y="115.46" width="359.08" height="62.5804" stroke="#FED7AA" stroke-width="0.919592"/>
<g opacity="0.6">
<rect x="59.9246" y="186.96" width="359.08" height="62.5804" fill="#FFEDD5"/>
<path d="M204.599 197.796V202.543H204.994C205.567 202.543 205.975 202.363 206.219 202.005C206.462 201.642 206.584 201.028 206.584 200.162C206.584 199.303 206.462 198.694 206.219 198.335C205.975 197.976 205.567 197.796 204.994 197.796H204.599ZM203.142 196.482H204.702C205.907 196.482 206.775 196.771 207.305 197.347C207.835 197.92 208.1 198.858 208.1 200.162C208.1 201.469 207.835 202.413 207.305 202.992C206.775 203.569 205.907 203.857 204.702 203.857H203.142V196.482ZM214.003 203.585C213.667 203.723 213.325 203.827 212.975 203.896C212.626 203.965 212.258 204 211.869 204C210.944 204 210.236 203.753 209.745 203.259C209.258 202.762 209.014 202.047 209.014 201.115C209.014 200.213 209.25 199.5 209.721 198.977C210.191 198.453 210.834 198.191 211.647 198.191C212.467 198.191 213.102 198.435 213.553 198.922C214.008 199.407 214.235 200.09 214.235 200.972V201.56H210.486C210.489 201.995 210.618 202.319 210.871 202.533C211.125 202.747 211.504 202.854 212.007 202.854C212.34 202.854 212.668 202.806 212.99 202.711C213.313 202.615 213.651 202.464 214.003 202.256V203.585ZM212.778 200.473C212.771 200.091 212.673 199.803 212.482 199.609C212.294 199.411 212.016 199.313 211.647 199.313C211.314 199.313 211.049 199.415 210.852 199.619C210.654 199.82 210.537 200.106 210.501 200.478L212.778 200.473ZM216.838 203.076V205.961H215.396V198.325H216.838V199.155C216.989 198.835 217.189 198.595 217.436 198.433C217.683 198.272 217.972 198.191 218.305 198.191C218.937 198.191 219.428 198.445 219.777 198.952C220.126 199.459 220.3 200.174 220.3 201.096C220.3 202.031 220.123 202.749 219.767 203.249C219.415 203.75 218.911 204 218.256 204C217.959 204 217.692 203.924 217.455 203.773C217.222 203.618 217.016 203.386 216.838 203.076ZM218.853 201.086C218.853 200.552 218.764 200.134 218.586 199.831C218.409 199.528 218.163 199.377 217.851 199.377C217.538 199.377 217.291 199.528 217.11 199.831C216.929 200.134 216.838 200.552 216.838 201.086C216.838 201.619 216.929 202.037 217.11 202.34C217.291 202.643 217.538 202.795 217.851 202.795C218.163 202.795 218.409 202.643 218.586 202.34C218.764 202.037 218.853 201.619 218.853 201.086ZM222.661 201.55V197.283H221.194V196.171H224.108V201.55C224.108 201.985 224.176 202.293 224.311 202.474C224.446 202.655 224.675 202.745 224.998 202.745H226.153V203.857H224.593C223.904 203.857 223.41 203.679 223.111 203.323C222.811 202.968 222.661 202.377 222.661 201.55ZM229.887 199.367C229.542 199.367 229.27 199.52 229.072 199.826C228.875 200.129 228.776 200.552 228.776 201.096C228.776 201.639 228.875 202.064 229.072 202.37C229.27 202.673 229.542 202.824 229.887 202.824C230.236 202.824 230.51 202.673 230.707 202.37C230.905 202.064 231.004 201.639 231.004 201.096C231.004 200.552 230.905 200.129 230.707 199.826C230.51 199.52 230.236 199.367 229.887 199.367ZM227.329 201.096C227.329 200.203 227.559 199.497 228.02 198.977C228.485 198.453 229.107 198.191 229.887 198.191C230.671 198.191 231.293 198.453 231.754 198.977C232.219 199.497 232.451 200.203 232.451 201.096C232.451 201.988 232.219 202.696 231.754 203.22C231.293 203.74 230.671 204 229.887 204C229.107 204 228.485 203.74 228.02 203.22C227.559 202.696 227.329 201.988 227.329 201.096ZM236.452 204.454C236.257 204.975 236.024 205.353 235.75 205.59C235.48 205.831 235.151 205.951 234.762 205.951H233.567V204.85H234.155C234.451 204.85 234.669 204.798 234.807 204.696C234.945 204.598 235.085 204.365 235.227 204L235.335 203.704L233.231 198.325H234.753L236.017 201.916L237.227 198.325H238.748L236.452 204.454ZM242.443 198.878C242.552 198.644 242.69 198.471 242.858 198.359C243.026 198.247 243.231 198.191 243.475 198.191C243.953 198.191 244.282 198.356 244.463 198.685C244.647 199.015 244.74 199.7 244.74 200.74V203.857H243.554V200.305C243.554 199.894 243.523 199.619 243.46 199.481C243.398 199.342 243.284 199.273 243.12 199.273C242.955 199.273 242.84 199.344 242.774 199.486C242.708 199.627 242.675 199.9 242.675 200.305V203.857H241.504V200.305C241.504 199.9 241.471 199.627 241.406 199.486C241.34 199.344 241.225 199.273 241.06 199.273C240.895 199.273 240.782 199.342 240.719 199.481C240.657 199.619 240.625 199.894 240.625 200.305V203.857H239.44V198.325H240.492V198.898C240.574 198.68 240.706 198.509 240.887 198.384C241.068 198.256 241.271 198.191 241.495 198.191C241.718 198.191 241.923 198.259 242.107 198.394C242.291 198.526 242.403 198.687 242.443 198.878ZM250.573 203.585C250.237 203.723 249.894 203.827 249.545 203.896C249.196 203.965 248.828 204 248.439 204C247.514 204 246.806 203.753 246.315 203.259C245.828 202.762 245.584 202.047 245.584 201.115C245.584 200.213 245.82 199.5 246.291 198.977C246.761 198.453 247.403 198.191 248.217 198.191C249.037 198.191 249.672 198.435 250.123 198.922C250.578 199.407 250.805 200.09 250.805 200.972V201.56H247.056C247.059 201.995 247.188 202.319 247.441 202.533C247.695 202.747 248.074 202.854 248.577 202.854C248.91 202.854 249.238 202.806 249.56 202.711C249.883 202.615 250.22 202.464 250.573 202.256V203.585ZM249.348 200.473C249.341 200.091 249.243 199.803 249.052 199.609C248.864 199.411 248.586 199.313 248.217 199.313C247.884 199.313 247.619 199.415 247.422 199.619C247.224 199.82 247.107 200.106 247.071 200.478L249.348 200.473ZM256.515 200.266V203.857H255.077V200.488C255.077 200.086 255.02 199.8 254.905 199.629C254.793 199.454 254.608 199.367 254.351 199.367C254.091 199.367 253.885 199.484 253.734 199.718C253.586 199.951 253.512 200.276 253.512 200.691V203.857H252.074V198.325H253.512V199.155C253.614 198.848 253.788 198.611 254.035 198.443C254.282 198.275 254.58 198.191 254.929 198.191C255.453 198.191 255.848 198.366 256.115 198.715C256.381 199.061 256.515 199.578 256.515 200.266ZM260.728 196.754V198.325H262.62V199.436H260.728V202.054C260.728 202.301 260.787 202.479 260.906 202.587C261.027 202.693 261.228 202.745 261.508 202.745H262.62V203.857H261.405C260.575 203.857 260.013 203.725 259.72 203.462C259.427 203.195 259.281 202.703 259.281 201.985V199.436H257.868V198.325H259.281V196.754H260.728ZM271.653 202.573H274.76V203.857H270.078V202.612L270.868 201.772C271.807 200.775 272.376 200.161 272.577 199.93C272.824 199.647 273.002 199.397 273.11 199.179C273.219 198.959 273.273 198.741 273.273 198.527C273.273 198.198 273.173 197.944 272.972 197.767C272.775 197.586 272.493 197.495 272.128 197.495C271.867 197.495 271.574 197.548 271.248 197.653C270.926 197.755 270.588 197.905 270.236 198.103V196.744C270.588 196.616 270.932 196.519 271.268 196.453C271.607 196.384 271.932 196.349 272.241 196.349C273.022 196.349 273.634 196.532 274.079 196.897C274.526 197.26 274.75 197.755 274.75 198.384C274.75 198.674 274.701 198.946 274.602 199.199C274.507 199.453 274.34 199.734 274.103 200.044C273.929 200.268 273.45 200.771 272.666 201.555C272.241 201.98 271.904 202.319 271.653 202.573Z" fill="#EA580C"/>
<rect x="70.9598" y="213.673" width="105.593" height="28.5102" fill="#FED7AA"/>
<path d="M110.85 225.663V224.434C111.056 224.645 111.275 224.805 111.507 224.915C111.742 225.026 111.978 225.081 112.215 225.081C112.493 225.081 112.696 225.011 112.825 224.872C112.955 224.733 113.019 224.512 113.019 224.208V221.499H111.723V220.565H114.079V224.208C114.079 224.861 113.941 225.33 113.666 225.612C113.393 225.892 112.942 226.033 112.312 226.033C112.084 226.033 111.846 226.001 111.597 225.939C111.35 225.877 111.101 225.785 110.85 225.663ZM116.723 223.575C116.189 223.372 115.827 223.159 115.638 222.936C115.449 222.711 115.354 222.409 115.354 222.031C115.354 221.545 115.51 221.163 115.821 220.885C116.133 220.607 116.56 220.468 117.104 220.468C117.35 220.468 117.597 220.497 117.844 220.554C118.09 220.61 118.335 220.692 118.576 220.802V221.837C118.349 221.676 118.118 221.554 117.883 221.47C117.648 221.387 117.416 221.345 117.186 221.345C116.93 221.345 116.734 221.396 116.597 221.499C116.461 221.602 116.392 221.749 116.392 221.941C116.392 222.09 116.442 222.213 116.54 222.311C116.64 222.407 116.849 222.513 117.165 222.631L117.621 222.803C118.052 222.961 118.369 223.171 118.573 223.432C118.776 223.693 118.878 224.022 118.878 224.42C118.878 224.961 118.718 225.366 118.397 225.634C118.078 225.9 117.596 226.033 116.949 226.033C116.683 226.033 116.416 226 116.148 225.936C115.882 225.873 115.625 225.78 115.376 225.655V224.56C115.658 224.761 115.931 224.911 116.195 225.009C116.461 225.107 116.723 225.156 116.982 225.156C117.243 225.156 117.445 225.097 117.589 224.98C117.732 224.86 117.804 224.694 117.804 224.481C117.804 224.32 117.756 224.18 117.66 224.06C117.565 223.938 117.426 223.843 117.244 223.773L116.723 223.575ZM122.553 220.565H123.347L120.523 226.611H119.73L122.553 220.565ZM126.501 225.928H125.441V221.492H124.08V220.565H127.862V221.492H126.501V225.928ZM130.021 223.575C129.487 223.372 129.125 223.159 128.936 222.936C128.747 222.711 128.652 222.409 128.652 222.031C128.652 221.545 128.808 221.163 129.119 220.885C129.431 220.607 129.858 220.468 130.402 220.468C130.649 220.468 130.895 220.497 131.142 220.554C131.388 220.61 131.633 220.692 131.875 220.802V221.837C131.647 221.676 131.416 221.554 131.181 221.47C130.947 221.387 130.714 221.345 130.484 221.345C130.228 221.345 130.032 221.396 129.895 221.499C129.759 221.602 129.691 221.749 129.691 221.941C129.691 222.09 129.74 222.213 129.838 222.311C129.938 222.407 130.147 222.513 130.463 222.631L130.919 222.803C131.35 222.961 131.667 223.171 131.871 223.432C132.075 223.693 132.176 224.022 132.176 224.42C132.176 224.961 132.016 225.366 131.695 225.634C131.377 225.9 130.894 226.033 130.247 226.033C129.982 226.033 129.715 226 129.446 225.936C129.181 225.873 128.923 225.78 128.674 225.655V224.56C128.957 224.761 129.23 224.911 129.493 225.009C129.759 225.107 130.021 225.156 130.28 225.156C130.541 225.156 130.743 225.097 130.887 224.98C131.03 224.86 131.102 224.694 131.102 224.481C131.102 224.32 131.054 224.18 130.959 224.06C130.863 223.938 130.724 223.843 130.542 223.773L130.021 223.575ZM118.774 234.774C118.606 234.86 118.43 234.925 118.246 234.968C118.062 235.011 117.868 235.033 117.664 235.033C116.941 235.033 116.389 234.794 116.008 234.318C115.627 233.841 115.437 233.153 115.437 232.252C115.437 231.349 115.627 230.66 116.008 230.183C116.389 229.707 116.941 229.468 117.664 229.468C117.868 229.468 118.063 229.49 118.25 229.533C118.436 229.576 118.611 229.641 118.774 229.727V230.905C118.592 230.738 118.415 230.615 118.242 230.539C118.072 230.46 117.896 230.42 117.714 230.42C117.326 230.42 117.033 230.575 116.834 230.884C116.638 231.19 116.54 231.646 116.54 232.252C116.54 232.856 116.638 233.312 116.834 233.621C117.033 233.927 117.326 234.081 117.714 234.081C117.896 234.081 118.072 234.042 118.242 233.966C118.415 233.887 118.592 233.763 118.774 233.596V234.774ZM121.536 231.663C121.285 231.663 121.087 231.774 120.944 231.997C120.8 232.217 120.728 232.525 120.728 232.92C120.728 233.315 120.8 233.624 120.944 233.847C121.087 234.067 121.285 234.178 121.536 234.178C121.79 234.178 121.989 234.067 122.133 233.847C122.276 233.624 122.348 233.315 122.348 232.92C122.348 232.525 122.276 232.217 122.133 231.997C121.989 231.774 121.79 231.663 121.536 231.663ZM119.676 232.92C119.676 232.271 119.843 231.758 120.179 231.379C120.516 230.999 120.969 230.808 121.536 230.808C122.106 230.808 122.559 230.999 122.894 231.379C123.232 231.758 123.401 232.271 123.401 232.92C123.401 233.569 123.232 234.084 122.894 234.465C122.559 234.843 122.106 235.033 121.536 235.033C120.969 235.033 120.516 234.843 120.179 234.465C119.843 234.084 119.676 233.569 119.676 232.92ZM126.598 231.476V229.339H127.647V234.928H126.598V234.332C126.485 234.564 126.339 234.739 126.16 234.857C125.982 234.974 125.773 235.033 125.531 235.033C125.071 235.033 124.714 234.848 124.46 234.479C124.207 234.111 124.08 233.591 124.08 232.92C124.08 232.24 124.208 231.718 124.464 231.354C124.723 230.99 125.09 230.808 125.567 230.808C125.782 230.808 125.975 230.864 126.145 230.977C126.318 231.087 126.468 231.254 126.598 231.476ZM125.132 232.928C125.132 233.315 125.197 233.62 125.326 233.84C125.455 234.06 125.634 234.17 125.861 234.17C126.089 234.17 126.268 234.06 126.4 233.84C126.532 233.62 126.598 233.315 126.598 232.928C126.598 232.54 126.532 232.235 126.4 232.015C126.268 231.795 126.089 231.685 125.861 231.685C125.634 231.685 125.455 231.795 125.326 232.015C125.197 232.235 125.132 232.54 125.132 232.928ZM132.148 234.731C131.903 234.831 131.654 234.907 131.4 234.957C131.147 235.007 130.878 235.033 130.596 235.033C129.923 235.033 129.408 234.853 129.051 234.494C128.697 234.132 128.52 233.612 128.52 232.935C128.52 232.279 128.691 231.76 129.033 231.379C129.376 230.999 129.843 230.808 130.434 230.808C131.03 230.808 131.493 230.985 131.821 231.34C132.151 231.692 132.316 232.189 132.316 232.831V233.258H129.59C129.592 233.574 129.686 233.81 129.87 233.966C130.055 234.121 130.33 234.199 130.696 234.199C130.938 234.199 131.177 234.164 131.411 234.095C131.646 234.026 131.891 233.915 132.148 233.765V234.731ZM131.257 232.468C131.252 232.19 131.18 231.98 131.041 231.839C130.905 231.695 130.702 231.624 130.434 231.624C130.192 231.624 130 231.698 129.856 231.846C129.712 231.992 129.627 232.201 129.601 232.471L131.257 232.468Z" fill="#EA580C"/>
<rect x="70.9598" y="213.673" width="105.593" height="28.5102" stroke="#FDBA74" stroke-width="0.919592"/>
<rect x="186.668" y="213.673" width="105.593" height="28.5102" fill="#FED7AA"/>
<path d="M227.999 223.575C227.465 223.372 227.103 223.159 226.914 222.936C226.725 222.711 226.63 222.409 226.63 222.031C226.63 221.545 226.786 221.163 227.097 220.885C227.408 220.607 227.836 220.468 228.379 220.468C228.626 220.468 228.873 220.497 229.119 220.554C229.366 220.61 229.61 220.692 229.852 220.802V221.837C229.625 221.676 229.394 221.554 229.159 221.47C228.924 221.387 228.692 221.345 228.462 221.345C228.206 221.345 228.009 221.396 227.873 221.499C227.736 221.602 227.668 221.749 227.668 221.941C227.668 222.09 227.717 222.213 227.815 222.311C227.916 222.407 228.124 222.513 228.441 222.631L228.897 222.803C229.328 222.961 229.645 223.171 229.849 223.432C230.052 223.693 230.154 224.022 230.154 224.42C230.154 224.961 229.994 225.366 229.673 225.634C229.354 225.9 228.872 226.033 228.225 226.033C227.959 226.033 227.692 226 227.424 225.936C227.158 225.873 226.901 225.78 226.652 225.655V224.56C226.934 224.761 227.207 224.911 227.471 225.009C227.736 225.107 227.999 225.156 228.257 225.156C228.518 225.156 228.721 225.097 228.864 224.98C229.008 224.86 229.08 224.694 229.08 224.481C229.08 224.32 229.032 224.18 228.936 224.06C228.84 223.938 228.702 223.843 228.52 223.773L227.999 223.575ZM233.078 220.763V221.905H234.454V222.713H233.078V224.617C233.078 224.797 233.121 224.926 233.207 225.005C233.296 225.082 233.442 225.12 233.646 225.12H234.454V225.928H233.57C232.967 225.928 232.558 225.833 232.345 225.641C232.132 225.447 232.025 225.089 232.025 224.567V222.713H230.998V221.905H232.025V220.763H233.078ZM237.547 224.039C237.154 224.039 236.88 224.089 236.724 224.19C236.568 224.29 236.491 224.463 236.491 224.707C236.491 224.889 236.544 225.034 236.652 225.142C236.76 225.249 236.906 225.303 237.09 225.303C237.368 225.303 237.584 225.199 237.737 224.991C237.89 224.78 237.967 224.487 237.967 224.111V224.039H237.547ZM239.012 223.633V225.928H237.967V225.479C237.84 225.657 237.677 225.793 237.478 225.889C237.28 225.985 237.06 226.033 236.821 226.033C236.364 226.033 236.007 225.912 235.751 225.67C235.497 225.428 235.37 225.09 235.37 224.657C235.37 224.187 235.522 223.841 235.826 223.619C236.13 223.393 236.601 223.281 237.238 223.281H237.967V223.105C237.967 222.935 237.905 222.807 237.78 222.721C237.658 222.632 237.477 222.588 237.238 222.588C236.986 222.588 236.742 222.62 236.505 222.685C236.27 222.747 236.025 222.847 235.769 222.986V222.088C236.001 221.993 236.237 221.922 236.476 221.876C236.716 221.831 236.969 221.808 237.238 221.808C237.891 221.808 238.35 221.941 238.614 222.207C238.879 222.473 239.012 222.948 239.012 223.633ZM241.943 220.763V221.905H243.319V222.713H241.943V224.617C241.943 224.797 241.987 224.926 242.073 225.005C242.161 225.082 242.307 225.12 242.511 225.12H243.319V225.928H242.436C241.832 225.928 241.424 225.833 241.211 225.641C240.997 225.447 240.891 225.089 240.891 224.567V222.713H239.864V221.905H240.891V220.763H241.943ZM244.691 221.905H246.775V225.12H248.082V225.928H244.411V225.12H245.722V222.713H244.691V221.905ZM245.722 219.947H246.775V221.176H245.722V219.947ZM252.142 225.724C251.964 225.827 251.774 225.903 251.57 225.954C251.367 226.006 251.148 226.033 250.913 226.033C250.293 226.033 249.808 225.846 249.458 225.472C249.109 225.099 248.934 224.581 248.934 223.92C248.934 223.257 249.11 222.739 249.462 222.365C249.814 221.989 250.3 221.801 250.92 221.801C251.136 221.801 251.343 221.826 251.542 221.876C251.743 221.927 251.943 222.005 252.142 222.11V223.073C251.988 222.941 251.819 222.84 251.635 222.771C251.453 222.699 251.264 222.663 251.068 222.663C250.725 222.663 250.462 222.772 250.277 222.99C250.093 223.208 250.001 223.518 250.001 223.92C250.001 224.323 250.093 224.632 250.277 224.847C250.462 225.063 250.725 225.17 251.068 225.17C251.271 225.17 251.461 225.137 251.639 225.07C251.816 225 251.984 224.896 252.142 224.757V225.724ZM232.378 230.499H230.096V231.656H232.173V232.59H230.096V234.928H229.037V229.565H232.378V230.499ZM233.61 230.905H235.693V234.12H237.001V234.928H233.329V234.12H234.641V231.713H233.61V230.905ZM234.641 228.947H235.693V230.176H234.641V228.947ZM238.639 233.251V230.147H237.572V229.339H239.691V233.251C239.691 233.567 239.74 233.791 239.838 233.923C239.937 234.054 240.103 234.12 240.338 234.12H241.178V234.928H240.043C239.543 234.928 239.183 234.799 238.966 234.54C238.748 234.282 238.639 233.852 238.639 233.251ZM245.64 234.731C245.395 234.831 245.146 234.907 244.893 234.957C244.639 235.007 244.371 235.033 244.088 235.033C243.415 235.033 242.9 234.853 242.543 234.494C242.189 234.132 242.012 233.612 242.012 232.935C242.012 232.279 242.183 231.76 242.525 231.379C242.868 230.999 243.335 230.808 243.926 230.808C244.523 230.808 244.985 230.985 245.313 231.34C245.643 231.692 245.809 232.189 245.809 232.831V233.258H243.082C243.085 233.574 243.178 233.81 243.362 233.966C243.547 234.121 243.822 234.199 244.189 234.199C244.43 234.199 244.669 234.164 244.903 234.095C245.138 234.026 245.384 233.915 245.64 233.765V234.731ZM244.749 232.468C244.744 232.19 244.672 231.98 244.533 231.839C244.397 231.695 244.195 231.624 243.926 231.624C243.684 231.624 243.492 231.698 243.348 231.846C243.204 231.992 243.119 232.201 243.093 232.471L244.749 232.468ZM249.674 231.031V231.95C249.48 231.826 249.277 231.733 249.067 231.67C248.858 231.606 248.649 231.573 248.438 231.573C248.203 231.573 248.026 231.608 247.906 231.677C247.787 231.745 247.727 231.845 247.727 231.979C247.727 232.171 247.983 232.326 248.496 232.446L248.535 232.457L248.837 232.529C249.22 232.62 249.5 232.767 249.677 232.971C249.857 233.172 249.947 233.445 249.947 233.79C249.947 234.204 249.81 234.515 249.537 234.724C249.267 234.93 248.858 235.033 248.312 235.033C248.07 235.033 247.823 235.011 247.569 234.968C247.315 234.927 247.057 234.865 246.796 234.781V233.861C247.029 233.993 247.265 234.094 247.504 234.163C247.746 234.233 247.979 234.267 248.205 234.267C248.451 234.267 248.638 234.231 248.765 234.16C248.892 234.088 248.955 233.984 248.955 233.847C248.955 233.713 248.91 233.61 248.819 233.538C248.73 233.466 248.517 233.39 248.179 233.308L247.888 233.244C247.486 233.153 247.193 233.01 247.008 232.816C246.824 232.622 246.732 232.362 246.732 232.037C246.732 231.649 246.872 231.347 247.152 231.131C247.432 230.916 247.826 230.808 248.334 230.808C248.561 230.808 248.788 230.827 249.013 230.866C249.24 230.902 249.461 230.957 249.674 231.031Z" fill="#EA580C"/>
<rect x="186.668" y="213.673" width="105.593" height="28.5102" stroke="#FDBA74" stroke-width="0.919592"/>
<rect x="302.377" y="213.673" width="105.593" height="28.5102" fill="#FED7AA"/>
<path d="M352.468 225.928H349.128V220.565H352.468V221.499H350.187V222.656H352.253V223.59H350.187V224.994H352.468V225.928ZM356.804 223.317V225.928H355.759V223.479C355.759 223.186 355.717 222.978 355.633 222.853C355.552 222.727 355.418 222.663 355.231 222.663C355.042 222.663 354.892 222.748 354.782 222.918C354.674 223.088 354.62 223.324 354.62 223.626V225.928H353.575V221.905H354.62V222.509C354.694 222.286 354.821 222.113 355.001 221.991C355.181 221.869 355.397 221.808 355.651 221.808C356.032 221.808 356.319 221.935 356.513 222.189C356.707 222.44 356.804 222.816 356.804 223.317ZM361.531 221.905L360.253 225.928H358.956L357.677 221.905H358.744L359.602 225.045L360.465 221.905H361.531ZM348.521 234.045L349.465 229.565H350.532L349.257 234.928H347.788L346.513 229.565H347.58L348.521 234.045ZM353.255 233.039C352.862 233.039 352.588 233.089 352.433 233.19C352.277 233.29 352.199 233.463 352.199 233.707C352.199 233.889 352.253 234.034 352.361 234.142C352.468 234.249 352.615 234.303 352.799 234.303C353.077 234.303 353.292 234.199 353.446 233.991C353.599 233.78 353.675 233.487 353.675 233.111V233.039H353.255ZM354.721 232.633V234.928H353.675V234.479C353.548 234.657 353.386 234.793 353.187 234.889C352.988 234.985 352.769 235.033 352.53 235.033C352.072 235.033 351.715 234.912 351.459 234.67C351.205 234.428 351.078 234.09 351.078 233.657C351.078 233.187 351.23 232.841 351.534 232.619C351.839 232.393 352.309 232.281 352.946 232.281H353.675V232.105C353.675 231.935 353.613 231.807 353.489 231.721C353.366 231.632 353.186 231.588 352.946 231.588C352.695 231.588 352.45 231.62 352.213 231.685C351.979 231.747 351.733 231.847 351.477 231.986V231.088C351.709 230.993 351.945 230.922 352.185 230.876C352.424 230.831 352.678 230.808 352.946 230.808C353.6 230.808 354.059 230.941 354.322 231.207C354.588 231.473 354.721 231.948 354.721 232.633ZM359.308 232.015C359.193 231.91 359.058 231.831 358.902 231.778C358.749 231.725 358.58 231.699 358.396 231.699C358.173 231.699 357.978 231.739 357.81 231.818C357.645 231.894 357.517 232.007 357.426 232.155C357.368 232.246 357.327 232.356 357.303 232.486C357.282 232.615 357.271 232.811 357.271 233.075V234.928H356.219V230.905H357.271V231.53C357.374 231.3 357.532 231.123 357.745 230.999C357.958 230.872 358.208 230.808 358.492 230.808C358.636 230.808 358.776 230.826 358.913 230.862C359.052 230.896 359.183 230.946 359.308 231.013V232.015ZM363.166 231.031V231.95C362.972 231.826 362.77 231.733 362.559 231.67C362.35 231.606 362.141 231.573 361.93 231.573C361.696 231.573 361.518 231.608 361.399 231.677C361.279 231.745 361.219 231.845 361.219 231.979C361.219 232.171 361.475 232.326 361.988 232.446L362.027 232.457L362.329 232.529C362.712 232.62 362.992 232.767 363.169 232.971C363.349 233.172 363.439 233.445 363.439 233.79C363.439 234.204 363.302 234.515 363.029 234.724C362.759 234.93 362.35 235.033 361.804 235.033C361.563 235.033 361.315 235.011 361.061 234.968C360.807 234.927 360.55 234.865 360.289 234.781V233.861C360.521 233.993 360.757 234.094 360.996 234.163C361.238 234.233 361.472 234.267 361.697 234.267C361.943 234.267 362.13 234.231 362.257 234.16C362.384 234.088 362.447 233.984 362.447 233.847C362.447 233.713 362.402 233.61 362.311 233.538C362.222 233.466 362.009 233.39 361.672 233.308L361.381 233.244C360.978 233.153 360.685 233.01 360.501 232.816C360.316 232.622 360.224 232.362 360.224 232.037C360.224 231.649 360.364 231.347 360.644 231.131C360.924 230.916 361.318 230.808 361.826 230.808C362.054 230.808 362.28 230.827 362.505 230.866C362.732 230.902 362.953 230.957 363.166 231.031Z" fill="#EA580C"/>
<rect x="302.377" y="213.673" width="105.593" height="28.5102" stroke="#FDBA74" stroke-width="0.919592"/>
<rect x="59.9246" y="186.96" width="359.08" height="62.5804" stroke="#FED7AA" stroke-width="0.919592"/>
</g>
<rect x="38.9246" y="60.4598" width="401.08" height="210.08" rx="14.2537" stroke="#FED7AA" stroke-width="0.919592"/>
</g>
<g filter="url(#filter1_d_300_8713)">
<rect x="462.995" y="60.4598" width="310.08" height="99.0804" rx="14.2537" fill="#EFF6FF"/>
<path d="M583.832 105.716V114.162H584.535C585.555 114.162 586.281 113.843 586.715 113.204C587.148 112.56 587.365 111.467 587.365 109.926C587.365 108.396 587.148 107.312 586.715 106.674C586.281 106.035 585.555 105.716 584.535 105.716H583.832ZM581.239 103.378H584.017C586.161 103.378 587.705 103.891 588.648 104.916C589.592 105.936 590.063 107.605 590.063 109.926C590.063 112.252 589.592 113.931 588.648 114.962C587.705 115.987 586.161 116.5 584.017 116.5H581.239V103.378ZM596.295 108.511C595.68 108.511 595.196 108.783 594.845 109.328C594.493 109.867 594.317 110.62 594.317 111.587C594.317 112.554 594.493 113.31 594.845 113.854C595.196 114.394 595.68 114.663 596.295 114.663C596.916 114.663 597.402 114.394 597.754 113.854C598.105 113.31 598.281 112.554 598.281 111.587C598.281 110.62 598.105 109.867 597.754 109.328C597.402 108.783 596.916 108.511 596.295 108.511ZM591.742 111.587C591.742 109.999 592.152 108.742 592.973 107.816C593.799 106.885 594.906 106.419 596.295 106.419C597.689 106.419 598.797 106.885 599.617 107.816C600.443 108.742 600.856 109.999 600.856 111.587C600.856 113.175 600.443 114.435 599.617 115.366C598.797 116.292 597.689 116.755 596.295 116.755C594.906 116.755 593.799 116.292 592.973 115.366C592.152 114.435 591.742 113.175 591.742 111.587ZM607.791 107.641C607.984 107.225 608.23 106.917 608.529 106.718C608.828 106.519 609.194 106.419 609.628 106.419C610.478 106.419 611.063 106.712 611.386 107.298C611.714 107.884 611.878 109.103 611.878 110.954V116.5H609.769V110.181C609.769 109.448 609.713 108.959 609.602 108.713C609.49 108.467 609.288 108.344 608.995 108.344C608.702 108.344 608.497 108.47 608.38 108.722C608.263 108.974 608.204 109.46 608.204 110.181V116.5H606.121V110.181C606.121 109.46 606.062 108.974 605.945 108.722C605.828 108.47 605.623 108.344 605.33 108.344C605.037 108.344 604.835 108.467 604.724 108.713C604.612 108.959 604.557 109.448 604.557 110.181V116.5H602.447V106.656H604.319V107.676C604.466 107.289 604.7 106.984 605.022 106.762C605.345 106.533 605.705 106.419 606.104 106.419C606.502 106.419 606.865 106.539 607.193 106.779C607.521 107.014 607.721 107.301 607.791 107.641ZM618.725 111.877C617.764 111.877 617.093 112 616.712 112.246C616.331 112.492 616.141 112.914 616.141 113.512C616.141 113.957 616.272 114.312 616.536 114.575C616.8 114.839 617.157 114.971 617.608 114.971C618.288 114.971 618.815 114.716 619.19 114.206C619.565 113.69 619.753 112.973 619.753 112.053V111.877H618.725ZM622.311 110.884V116.5H619.753V115.401C619.442 115.835 619.044 116.169 618.558 116.403C618.071 116.638 617.535 116.755 616.949 116.755C615.83 116.755 614.957 116.459 614.33 115.867C613.709 115.275 613.398 114.449 613.398 113.389C613.398 112.24 613.771 111.394 614.515 110.849C615.259 110.298 616.41 110.022 617.969 110.022H619.753V109.592C619.753 109.176 619.601 108.862 619.296 108.651C618.997 108.435 618.555 108.326 617.969 108.326C617.354 108.326 616.756 108.405 616.176 108.563C615.602 108.716 615.001 108.962 614.374 109.302V107.104C614.942 106.87 615.52 106.697 616.105 106.586C616.691 106.475 617.312 106.419 617.969 106.419C619.568 106.419 620.69 106.744 621.335 107.395C621.985 108.045 622.311 109.208 622.311 110.884ZM625.36 106.656H630.458V114.522H633.657V116.5H624.675V114.522H627.883V108.634H625.36V106.656ZM627.883 101.866H630.458V104.872H627.883V101.866ZM643.677 110.11V116.5H641.119V110.506C641.119 109.791 641.017 109.281 640.812 108.977C640.612 108.666 640.284 108.511 639.827 108.511C639.364 108.511 638.998 108.719 638.729 109.135C638.465 109.551 638.333 110.128 638.333 110.866V116.5H635.775V106.656H638.333V108.133C638.515 107.588 638.825 107.166 639.265 106.867C639.704 106.568 640.234 106.419 640.855 106.419C641.787 106.419 642.49 106.729 642.965 107.351C643.439 107.966 643.677 108.886 643.677 110.11ZM653.819 106.964V109.214C653.345 108.909 652.85 108.681 652.334 108.528C651.824 108.37 651.312 108.291 650.796 108.291C650.222 108.291 649.788 108.376 649.495 108.546C649.202 108.71 649.056 108.956 649.056 109.284C649.056 109.753 649.683 110.134 650.937 110.427L651.033 110.453L651.771 110.629C652.709 110.852 653.395 111.212 653.828 111.71C654.268 112.202 654.487 112.87 654.487 113.714C654.487 114.728 654.153 115.489 653.485 115.999C652.823 116.503 651.824 116.755 650.488 116.755C649.896 116.755 649.29 116.702 648.669 116.597C648.048 116.497 647.418 116.345 646.779 116.14V113.89C647.348 114.212 647.925 114.458 648.511 114.628C649.103 114.798 649.674 114.883 650.225 114.883C650.828 114.883 651.285 114.795 651.596 114.619C651.906 114.443 652.062 114.188 652.062 113.854C652.062 113.526 651.95 113.274 651.728 113.099C651.511 112.923 650.989 112.735 650.163 112.536L649.451 112.378C648.467 112.155 647.749 111.807 647.298 111.332C646.847 110.857 646.621 110.222 646.621 109.425C646.621 108.476 646.964 107.737 647.649 107.21C648.335 106.683 649.299 106.419 650.541 106.419C651.098 106.419 651.651 106.466 652.202 106.56C652.759 106.647 653.298 106.782 653.819 106.964Z" fill="#2563EB"/>
<g filter="url(#filter2_dd_300_8713)">
<path d="M460.173 124.599C460.332 124.216 460.15 123.778 459.767 123.619L453.531 121.036C453.149 120.877 452.71 121.059 452.551 121.442C452.393 121.824 452.575 122.263 452.957 122.422L458.501 124.718L456.204 130.261C456.046 130.644 456.228 131.082 456.61 131.241C456.993 131.4 457.432 131.218 457.59 130.835L460.173 124.599ZM458.214 181.245C458.596 181.083 458.774 180.643 458.613 180.262L455.986 174.044C455.825 173.662 455.385 173.484 455.003 173.645C454.622 173.806 454.443 174.246 454.604 174.628L456.94 180.155L451.413 182.49C451.031 182.651 450.853 183.091 451.014 183.473C451.175 183.854 451.615 184.033 451.997 183.872L458.214 181.245ZM459.193 123.619L458.726 123.813L459.3 125.199L459.767 125.005L459.193 123.619ZM457.322 124.394L456.387 124.782L456.961 126.167L457.896 125.78L457.322 124.394ZM454.984 125.363L454.048 125.75L454.622 127.136L455.558 126.749L454.984 125.363ZM452.645 126.332L451.709 126.719L452.283 128.105L453.219 127.717L452.645 126.332ZM450.306 127.3L449.37 127.688L449.944 129.074L450.88 128.686L450.306 127.3ZM447.967 128.269L447.032 128.657L447.606 130.042L448.541 129.655L447.967 128.269ZM445.628 129.238L444.693 129.625L445.267 131.011L446.202 130.624L445.628 129.238ZM443.29 130.207L442.354 130.594L442.928 131.98L443.864 131.592L443.29 130.207ZM440.951 131.175L440.015 131.563L440.589 132.949L441.525 132.561L440.951 131.175ZM438.612 132.144L437.676 132.532L438.25 133.917L439.186 133.53L438.612 132.144ZM436.273 133.113L435.338 133.5L435.912 134.886L436.847 134.499L436.273 133.113ZM433.934 134.082L432.999 134.469L433.573 135.855L434.508 135.467L433.934 134.082ZM431.596 135.05L430.66 135.438L431.234 136.824L432.17 136.436L431.596 135.05ZM429.257 136.019L428.321 136.407L428.895 137.793L429.831 137.405L429.257 136.019ZM426.918 136.988L425.982 137.375L426.556 138.761L427.492 138.374L426.918 136.988ZM424.579 137.957L423.644 138.344L424.218 139.73L425.153 139.343L424.579 137.957ZM422.24 138.925L421.773 139.119L422.347 140.505L422.814 140.311L422.24 138.925ZM458.205 179.859L457.726 179.665L457.162 181.055L457.64 181.249L458.205 179.859ZM456.292 179.082L455.335 178.694L454.771 180.084L455.728 180.472L456.292 179.082ZM453.901 178.112L452.945 177.724L452.38 179.113L453.337 179.502L453.901 178.112ZM451.51 177.141L450.554 176.753L449.99 178.143L450.946 178.531L451.51 177.141ZM449.119 176.171L448.163 175.782L447.599 177.172L448.555 177.56L449.119 176.171ZM446.728 175.2L445.772 174.812L445.208 176.202L446.164 176.59L446.728 175.2ZM444.338 174.229L443.381 173.841L442.817 175.231L443.773 175.619L444.338 174.229ZM441.947 173.259L440.99 172.871L440.426 174.26L441.382 174.649L441.947 173.259ZM439.556 172.288L438.6 171.9L438.035 173.29L438.992 173.678L439.556 172.288ZM437.165 171.318L436.209 170.929L435.644 172.319L436.601 172.708L437.165 171.318ZM434.774 170.347L433.818 169.959L433.254 171.349L434.21 171.737L434.774 170.347ZM432.383 169.377L431.427 168.988L430.863 170.378L431.819 170.766L432.383 169.377ZM429.992 168.406L429.036 168.018L428.472 169.408L429.428 169.796L429.992 168.406ZM427.602 167.435L426.645 167.047L426.081 168.437L427.037 168.825L427.602 167.435ZM425.211 166.465L424.254 166.077L423.69 167.466L424.647 167.855L425.211 166.465ZM422.82 165.494L422.342 165.3L421.777 166.69L422.256 166.884L422.82 165.494ZM460.866 124.886C461.183 124.121 460.82 123.243 460.054 122.926L447.582 117.76C446.817 117.443 445.939 117.806 445.622 118.572C445.305 119.337 445.669 120.214 446.434 120.532L457.521 125.124L452.928 136.21C452.611 136.976 452.975 137.853 453.74 138.17C454.506 138.487 455.383 138.124 455.7 137.358L460.866 124.886ZM458.506 181.935C459.269 181.613 459.627 180.733 459.304 179.97L454.05 167.534C453.727 166.771 452.847 166.414 452.084 166.736C451.321 167.059 450.964 167.939 451.286 168.702L455.957 179.756L444.903 184.426C444.14 184.749 443.783 185.629 444.105 186.392C444.428 187.155 445.308 187.512 446.071 187.19L458.506 181.935ZM458.906 122.926L458.439 123.12L459.587 125.891L460.054 125.698L458.906 122.926ZM457.035 123.701L456.1 124.089L457.248 126.86L458.183 126.473L457.035 123.701ZM454.697 124.67L453.761 125.057L454.909 127.829L455.845 127.442L454.697 124.67ZM452.358 125.639L451.422 126.026L452.57 128.798L453.506 128.41L452.358 125.639ZM450.019 126.607L449.083 126.995L450.232 129.767L451.167 129.379L450.019 126.607ZM447.68 127.576L446.745 127.964L447.893 130.735L448.828 130.348L447.68 127.576ZM445.341 128.545L444.406 128.932L445.554 131.704L446.489 131.317L445.341 128.545ZM443.003 129.514L442.067 129.901L443.215 132.673L444.151 132.285L443.003 129.514ZM440.664 130.482L439.728 130.87L440.876 133.642L441.812 133.254L440.664 130.482ZM438.325 131.451L437.389 131.839L438.537 134.61L439.473 134.223L438.325 131.451ZM435.986 132.42L435.051 132.808L436.199 135.579L437.134 135.192L435.986 132.42ZM433.647 133.389L432.712 133.776L433.86 136.548L434.795 136.16L433.647 133.389ZM431.309 134.358L430.373 134.745L431.521 137.517L432.457 137.129L431.309 134.358ZM428.97 135.326L428.034 135.714L429.182 138.485L430.118 138.098L428.97 135.326ZM426.631 136.295L425.695 136.683L426.843 139.454L427.779 139.067L426.631 136.295ZM424.292 137.264L423.357 137.651L424.505 140.423L425.44 140.035L424.292 137.264ZM421.953 138.233L421.486 138.426L422.634 141.198L423.101 141.004L421.953 138.233ZM458.487 179.164L458.008 178.97L456.88 181.749L457.358 181.944L458.487 179.164ZM456.574 178.387L455.618 177.999L454.489 180.779L455.446 181.167L456.574 178.387ZM454.183 177.417L453.227 177.029L452.098 179.808L453.055 180.197L454.183 177.417ZM451.792 176.446L450.836 176.058L449.707 178.838L450.664 179.226L451.792 176.446ZM449.401 175.476L448.445 175.087L447.317 177.867L448.273 178.255L449.401 175.476ZM447.011 174.505L446.054 174.117L444.926 176.897L445.882 177.285L447.011 174.505ZM444.62 173.534L443.663 173.146L442.535 175.926L443.491 176.314L444.62 173.534ZM442.229 172.564L441.272 172.176L440.144 174.955L441.1 175.344L442.229 172.564ZM439.838 171.593L438.882 171.205L437.753 173.985L438.71 174.373L439.838 171.593ZM437.447 170.623L436.491 170.235L435.362 173.014L436.319 173.402L437.447 170.623ZM435.056 169.652L434.1 169.264L432.971 172.044L433.928 172.432L435.056 169.652ZM432.665 168.682L431.709 168.293L430.581 171.073L431.537 171.461L432.665 168.682ZM430.275 167.711L429.318 167.323L428.19 170.102L429.146 170.491L430.275 167.711ZM427.884 166.74L426.927 166.352L425.799 169.132L426.755 169.52L427.884 166.74ZM425.493 165.77L424.536 165.382L423.408 168.161L424.364 168.55L425.493 165.77ZM423.102 164.799L422.624 164.605L421.495 167.385L421.974 167.579L423.102 164.799Z" fill="#FB923C" fill-opacity="0.8"/>
</g>
<rect x="462.995" y="60.4598" width="310.08" height="99.0804" rx="14.2537" stroke="#BFDBFE" stroke-width="0.919592"/>
<rect x="462.995" y="171.46" width="310.08" height="99.0804" rx="14.2537" fill="#F0FDF4"/>
<path d="M553.563 214.378H556.156V219.563L560.217 214.378H563.152L559.013 219.546L563.302 227.5H560.419L557.308 221.594L556.156 223.053V227.5H553.563V214.378ZM568.795 225.338L571.106 214.378H573.717L570.597 227.5H567.002L563.882 214.378H566.492L568.795 225.338ZM588.869 216.716V225.162H589.572C590.592 225.162 591.318 224.843 591.752 224.204C592.186 223.56 592.402 222.467 592.402 220.926C592.402 219.396 592.186 218.312 591.752 217.674C591.318 217.035 590.592 216.716 589.572 216.716H588.869ZM586.276 214.378H589.054C591.198 214.378 592.742 214.891 593.686 215.916C594.629 216.936 595.101 218.605 595.101 220.926C595.101 223.252 594.629 224.931 593.686 225.962C592.742 226.987 591.198 227.5 589.054 227.5H586.276V214.378ZM602.07 222.877C601.109 222.877 600.438 223 600.058 223.246C599.677 223.492 599.486 223.914 599.486 224.512C599.486 224.957 599.618 225.312 599.882 225.575C600.146 225.839 600.503 225.971 600.954 225.971C601.634 225.971 602.161 225.716 602.536 225.206C602.911 224.69 603.099 223.973 603.099 223.053V222.877H602.07ZM605.656 221.884V227.5H603.099V226.401C602.788 226.835 602.39 227.169 601.903 227.403C601.417 227.638 600.881 227.755 600.295 227.755C599.176 227.755 598.303 227.459 597.676 226.867C597.055 226.275 596.744 225.449 596.744 224.389C596.744 223.24 597.116 222.394 597.86 221.849C598.604 221.298 599.756 221.022 601.314 221.022H603.099V220.592C603.099 220.176 602.946 219.862 602.642 219.651C602.343 219.435 601.9 219.326 601.314 219.326C600.699 219.326 600.102 219.405 599.521 219.563C598.947 219.716 598.347 219.962 597.72 220.302V218.104C598.288 217.87 598.865 217.697 599.451 217.586C600.037 217.475 600.658 217.419 601.314 217.419C602.914 217.419 604.036 217.744 604.681 218.395C605.331 219.045 605.656 220.208 605.656 221.884ZM612.828 214.861V217.656H616.194V219.634H612.828V224.292C612.828 224.731 612.934 225.048 613.145 225.241C613.361 225.429 613.719 225.522 614.217 225.522H616.194V227.5H614.032C612.556 227.5 611.557 227.266 611.035 226.797C610.514 226.322 610.253 225.446 610.253 224.169V219.634H607.739V217.656H610.253V214.861H612.828ZM623.762 222.877C622.801 222.877 622.13 223 621.749 223.246C621.368 223.492 621.178 223.914 621.178 224.512C621.178 224.957 621.31 225.312 621.573 225.575C621.837 225.839 622.194 225.971 622.646 225.971C623.325 225.971 623.853 225.716 624.228 225.206C624.603 224.69 624.79 223.973 624.79 223.053V222.877H623.762ZM627.348 221.884V227.5H624.79V226.401C624.479 226.835 624.081 227.169 623.595 227.403C623.108 227.638 622.572 227.755 621.986 227.755C620.867 227.755 619.994 227.459 619.367 226.867C618.746 226.275 618.436 225.449 618.436 224.389C618.436 223.24 618.808 222.394 619.552 221.849C620.296 221.298 621.447 221.022 623.006 221.022H624.79V220.592C624.79 220.176 624.638 219.862 624.333 219.651C624.034 219.435 623.592 219.326 623.006 219.326C622.391 219.326 621.793 219.405 621.213 219.563C620.639 219.716 620.038 219.962 619.411 220.302V218.104C619.979 217.87 620.557 217.697 621.143 217.586C621.729 217.475 622.35 217.419 623.006 217.419C624.605 217.419 625.728 217.744 626.372 218.395C627.022 219.045 627.348 220.208 627.348 221.884ZM635.926 222.604C635.926 221.655 635.768 220.911 635.451 220.372C635.135 219.833 634.698 219.563 634.142 219.563C633.585 219.563 633.146 219.833 632.823 220.372C632.501 220.911 632.34 221.655 632.34 222.604C632.34 223.554 632.501 224.298 632.823 224.837C633.146 225.376 633.585 225.646 634.142 225.646C634.698 225.646 635.135 225.376 635.451 224.837C635.768 224.298 635.926 223.554 635.926 222.604ZM632.34 219.054C632.656 218.509 633.022 218.102 633.438 217.832C633.86 217.557 634.335 217.419 634.862 217.419C636.028 217.419 636.925 217.864 637.552 218.755C638.185 219.646 638.501 220.923 638.501 222.587C638.501 224.228 638.19 225.499 637.569 226.401C636.948 227.304 636.075 227.755 634.95 227.755C634.358 227.755 633.843 227.611 633.403 227.324C632.964 227.037 632.609 226.609 632.34 226.041V227.5H629.773V213.824H632.34V219.054ZM645.453 222.877C644.492 222.877 643.821 223 643.44 223.246C643.06 223.492 642.869 223.914 642.869 224.512C642.869 224.957 643.001 225.312 643.265 225.575C643.528 225.839 643.886 225.971 644.337 225.971C645.017 225.971 645.544 225.716 645.919 225.206C646.294 224.69 646.481 223.973 646.481 223.053V222.877H645.453ZM649.039 221.884V227.5H646.481V226.401C646.171 226.835 645.772 227.169 645.286 227.403C644.8 227.638 644.264 227.755 643.678 227.755C642.559 227.755 641.686 227.459 641.059 226.867C640.438 226.275 640.127 225.449 640.127 224.389C640.127 223.24 640.499 222.394 641.243 221.849C641.987 221.298 643.139 221.022 644.697 221.022H646.481V220.592C646.481 220.176 646.329 219.862 646.024 219.651C645.726 219.435 645.283 219.326 644.697 219.326C644.082 219.326 643.484 219.405 642.904 219.563C642.33 219.716 641.729 219.962 641.103 220.302V218.104C641.671 217.87 642.248 217.697 642.834 217.586C643.42 217.475 644.041 217.419 644.697 217.419C646.297 217.419 647.419 217.744 648.063 218.395C648.714 219.045 649.039 220.208 649.039 221.884ZM658.856 217.964V220.214C658.382 219.909 657.887 219.681 657.371 219.528C656.861 219.37 656.349 219.291 655.833 219.291C655.259 219.291 654.825 219.376 654.532 219.546C654.239 219.71 654.093 219.956 654.093 220.284C654.093 220.753 654.72 221.134 655.974 221.427L656.07 221.453L656.809 221.629C657.746 221.852 658.432 222.212 658.865 222.71C659.305 223.202 659.524 223.87 659.524 224.714C659.524 225.728 659.19 226.489 658.522 226.999C657.86 227.503 656.861 227.755 655.525 227.755C654.934 227.755 654.327 227.702 653.706 227.597C653.085 227.497 652.455 227.345 651.816 227.14V224.89C652.385 225.212 652.962 225.458 653.548 225.628C654.14 225.798 654.711 225.883 655.262 225.883C655.865 225.883 656.322 225.795 656.633 225.619C656.943 225.443 657.099 225.188 657.099 224.854C657.099 224.526 656.987 224.274 656.765 224.099C656.548 223.923 656.026 223.735 655.2 223.536L654.488 223.378C653.504 223.155 652.786 222.807 652.335 222.332C651.884 221.857 651.658 221.222 651.658 220.425C651.658 219.476 652.001 218.737 652.687 218.21C653.372 217.683 654.336 217.419 655.578 217.419C656.135 217.419 656.688 217.466 657.239 217.56C657.796 217.647 658.335 217.782 658.856 217.964ZM670.678 227.017C670.08 227.263 669.471 227.447 668.85 227.57C668.229 227.693 667.572 227.755 666.881 227.755C665.234 227.755 663.975 227.315 663.102 226.437C662.234 225.552 661.801 224.28 661.801 222.622C661.801 221.017 662.22 219.748 663.058 218.816C663.896 217.885 665.038 217.419 666.485 217.419C667.944 217.419 669.075 217.853 669.878 218.72C670.687 219.581 671.091 220.797 671.091 222.367V223.413H664.42C664.426 224.187 664.654 224.764 665.105 225.145C665.557 225.525 666.23 225.716 667.127 225.716C667.719 225.716 668.302 225.631 668.876 225.461C669.45 225.291 670.051 225.021 670.678 224.652V227.017ZM668.498 221.479C668.486 220.8 668.311 220.287 667.971 219.941C667.637 219.59 667.142 219.414 666.485 219.414C665.894 219.414 665.422 219.596 665.07 219.959C664.719 220.316 664.511 220.826 664.446 221.488L668.498 221.479ZM680.548 217.964V220.214C680.073 219.909 679.578 219.681 679.062 219.528C678.553 219.37 678.04 219.291 677.524 219.291C676.95 219.291 676.517 219.376 676.224 219.546C675.931 219.71 675.784 219.956 675.784 220.284C675.784 220.753 676.411 221.134 677.665 221.427L677.762 221.453L678.5 221.629C679.438 221.852 680.123 222.212 680.557 222.71C680.996 223.202 681.216 223.87 681.216 224.714C681.216 225.728 680.882 226.489 680.214 226.999C679.552 227.503 678.553 227.755 677.217 227.755C676.625 227.755 676.019 227.702 675.397 227.597C674.776 227.497 674.146 227.345 673.508 227.14V224.89C674.076 225.212 674.653 225.458 675.239 225.628C675.831 225.798 676.402 225.883 676.953 225.883C677.557 225.883 678.014 225.795 678.324 225.619C678.635 225.443 678.79 225.188 678.79 224.854C678.79 224.526 678.679 224.274 678.456 224.099C678.239 223.923 677.718 223.735 676.892 223.536L676.18 223.378C675.195 223.155 674.478 222.807 674.026 222.332C673.575 221.857 673.35 221.222 673.35 220.425C673.35 219.476 673.692 218.737 674.378 218.21C675.063 217.683 676.027 217.419 677.27 217.419C677.826 217.419 678.38 217.466 678.931 217.56C679.487 217.647 680.026 217.782 680.548 217.964Z" fill="#16A34A"/>
<rect x="462.995" y="171.46" width="310.08" height="99.0804" rx="14.2537" stroke="#BBF7D0" stroke-width="0.919592"/>
</g>
<rect x="0.459796" y="20.4598" width="811.08" height="290.08" rx="14.2537" stroke="#E5E7EB" stroke-width="0.919592"/>
<rect x="261.5" y="0.5" width="265" height="33.3918" rx="7.5" fill="white"/>
<path d="M322.055 11.9899H324.229L326.211 16.0914L328.2 11.9899H330.374L327.223 18.1764V22.1959H325.206V18.1764L322.055 11.9899ZM334.646 15.9821C334.168 15.9821 333.792 16.194 333.519 16.6178C333.245 17.0371 333.108 17.6227 333.108 18.3746C333.108 19.1266 333.245 19.7145 333.519 20.1383C333.792 20.5576 334.168 20.7672 334.646 20.7672C335.13 20.7672 335.508 20.5576 335.781 20.1383C336.055 19.7145 336.191 19.1266 336.191 18.3746C336.191 17.6227 336.055 17.0371 335.781 16.6178C335.508 16.194 335.13 15.9821 334.646 15.9821ZM331.105 18.3746C331.105 17.1396 331.424 16.1621 332.062 15.442C332.705 14.7174 333.566 14.3551 334.646 14.3551C335.731 14.3551 336.592 14.7174 337.23 15.442C337.873 16.1621 338.194 17.1396 338.194 18.3746C338.194 19.6097 337.873 20.5895 337.23 21.3141C336.592 22.0341 335.731 22.3942 334.646 22.3942C333.566 22.3942 332.705 22.0341 332.062 21.3141C331.424 20.5895 331.105 19.6097 331.105 18.3746ZM339.965 19.5231V14.5397H341.968V19.2155C341.968 19.7669 342.045 20.1611 342.2 20.3981C342.355 20.6351 342.613 20.7535 342.973 20.7535C343.333 20.7535 343.613 20.594 343.813 20.275C344.019 19.956 344.121 19.5094 344.121 18.9352V14.5397H346.124V22.1959H344.121V21.0612C343.98 21.485 343.738 21.8131 343.396 22.0455C343.059 22.278 342.651 22.3942 342.173 22.3942C341.444 22.3942 340.892 22.1526 340.519 21.6696C340.149 21.1865 339.965 20.471 339.965 19.5231ZM355.175 16.652C354.956 16.4515 354.699 16.3011 354.402 16.2008C354.111 16.1005 353.789 16.0504 353.438 16.0504C353.015 16.0504 352.643 16.1256 352.324 16.276C352.01 16.4218 351.766 16.636 351.593 16.9186C351.483 17.0918 351.406 17.3014 351.36 17.5475C351.319 17.7936 351.299 18.1673 351.299 18.6686V22.1959H349.296V14.5397H351.299V15.7291C351.495 15.2916 351.796 14.9544 352.201 14.7174C352.607 14.4759 353.081 14.3551 353.623 14.3551C353.896 14.3551 354.163 14.3893 354.423 14.4576C354.687 14.5214 354.938 14.6171 355.175 14.7448V16.652ZM368.389 13.6168C367.874 13.6168 367.498 13.8925 367.261 14.444C367.024 14.9908 366.905 15.8772 366.905 17.1031C366.905 18.3245 367.024 19.2109 367.261 19.7623C367.498 20.3092 367.874 20.5826 368.389 20.5826C368.908 20.5826 369.286 20.3092 369.523 19.7623C369.76 19.2109 369.879 18.3245 369.879 17.1031C369.879 15.8772 369.76 14.9908 369.523 14.444C369.286 13.8925 368.908 13.6168 368.389 13.6168ZM364.807 17.1031C364.807 15.3577 365.107 14.0384 365.709 13.1451C366.315 12.2519 367.208 11.8053 368.389 11.8053C369.574 11.8053 370.467 12.2519 371.068 13.1451C371.674 14.0384 371.978 15.3577 371.978 17.1031C371.978 18.844 371.674 20.1611 371.068 21.0543C370.467 21.9476 369.574 22.3942 368.389 22.3942C367.208 22.3942 366.315 21.9476 365.709 21.0543C365.107 20.1611 364.807 18.844 364.807 17.1031ZM380.481 16.652C380.263 16.4515 380.005 16.3011 379.709 16.2008C379.417 16.1005 379.096 16.0504 378.745 16.0504C378.321 16.0504 377.95 16.1256 377.631 16.276C377.316 16.4218 377.073 16.636 376.899 16.9186C376.79 17.0918 376.713 17.3014 376.667 17.5475C376.626 17.7936 376.605 18.1673 376.605 18.6686V22.1959H374.603V14.5397H376.605V15.7291C376.801 15.2916 377.102 14.9544 377.508 14.7174C377.913 14.4759 378.387 14.3551 378.93 14.3551C379.203 14.3551 379.47 14.3893 379.729 14.4576C379.994 14.5214 380.244 14.6171 380.481 14.7448V16.652ZM386.538 18.2448C386.538 17.5612 386.408 17.0143 386.148 16.6041C385.889 16.1894 385.547 15.9821 385.123 15.9821C384.704 15.9821 384.364 16.1871 384.104 16.5973C383.849 17.0074 383.722 17.5566 383.722 18.2448C383.722 18.9375 383.849 19.4889 384.104 19.899C384.364 20.3092 384.704 20.5143 385.123 20.5143C385.547 20.5143 385.889 20.3092 386.148 19.899C386.408 19.4843 386.538 18.9329 386.538 18.2448ZM388.541 21.6217C388.541 22.8476 388.263 23.7317 387.707 24.274C387.156 24.8209 386.258 25.0944 385.014 25.0944C384.594 25.0944 384.18 25.0625 383.77 24.9987C383.359 24.9394 382.942 24.846 382.519 24.7184V22.8795C382.897 23.0892 383.282 23.2441 383.674 23.3444C384.066 23.4446 384.469 23.4948 384.884 23.4948C385.449 23.4948 385.866 23.3603 386.135 23.0914C386.404 22.8271 386.538 22.4124 386.538 21.8473V21.0201C386.342 21.3847 386.082 21.6559 385.759 21.8336C385.435 22.0114 385.041 22.1002 384.576 22.1002C383.701 22.1002 383.006 21.7584 382.491 21.0748C381.976 20.3912 381.719 19.4638 381.719 18.2926C381.719 17.0804 381.976 16.1188 382.491 15.4078C383.006 14.6969 383.697 14.3414 384.562 14.3414C385 14.3414 385.39 14.444 385.731 14.649C386.073 14.8541 386.342 15.1435 386.538 15.5172V14.5397H388.541V21.6217ZM394.27 18.6002C393.522 18.6002 393 18.6959 392.704 18.8873C392.408 19.0787 392.26 19.4069 392.26 19.8717C392.26 20.2181 392.362 20.4938 392.567 20.6989C392.772 20.9039 393.05 21.0065 393.401 21.0065C393.93 21.0065 394.34 20.8082 394.632 20.4117C394.924 20.0107 395.069 19.4524 395.069 18.7369V18.6002H394.27ZM397.059 17.8278V22.1959H395.069V21.3414C394.828 21.6787 394.518 21.9384 394.14 22.1207C393.761 22.303 393.344 22.3942 392.889 22.3942C392.018 22.3942 391.339 22.164 390.852 21.7037C390.368 21.2434 390.127 20.6009 390.127 19.776C390.127 18.8828 390.416 18.2242 390.995 17.8004C391.574 17.372 392.469 17.1578 393.682 17.1578H395.069V16.8229C395.069 16.4993 394.951 16.2555 394.714 16.0914C394.481 15.9228 394.137 15.8385 393.682 15.8385C393.203 15.8385 392.738 15.9 392.287 16.0231C391.84 16.1416 391.373 16.333 390.886 16.5973V14.8883C391.328 14.706 391.777 14.5716 392.232 14.485C392.688 14.3984 393.171 14.3551 393.682 14.3551C394.926 14.3551 395.799 14.608 396.3 15.1139C396.806 15.6198 397.059 16.5244 397.059 17.8278ZM405.241 17.2262V22.1959H403.252V17.5338C403.252 16.9778 403.172 16.5813 403.013 16.3444C402.858 16.1028 402.603 15.9821 402.247 15.9821C401.887 15.9821 401.602 16.1438 401.393 16.4674C401.188 16.791 401.085 17.2399 401.085 17.8141V22.1959H399.096V14.5397H401.085V15.6881C401.226 15.2643 401.468 14.9362 401.81 14.7037C402.151 14.4713 402.564 14.3551 403.047 14.3551C403.771 14.3551 404.318 14.5966 404.688 15.0797C405.057 15.5582 405.241 16.2737 405.241 17.2262ZM407.866 14.5397H411.831V20.6578H414.319V22.1959H407.333V20.6578H409.828V16.0778H407.866V14.5397ZM409.828 10.8141H411.831V13.152H409.828V10.8141ZM416.062 14.5397H422.181V16.1051L418.154 20.6989H422.181V22.1959H415.898V20.6305L419.932 16.0367H416.062V14.5397ZM428.012 18.6002C427.264 18.6002 426.743 18.6959 426.446 18.8873C426.15 19.0787 426.002 19.4069 426.002 19.8717C426.002 20.2181 426.104 20.4938 426.31 20.6989C426.515 20.9039 426.793 21.0065 427.144 21.0065C427.672 21.0065 428.082 20.8082 428.374 20.4117C428.666 20.0107 428.812 19.4524 428.812 18.7369V18.6002H428.012ZM430.801 17.8278V22.1959H428.812V21.3414C428.57 21.6787 428.26 21.9384 427.882 22.1207C427.504 22.303 427.087 22.3942 426.631 22.3942C425.76 22.3942 425.081 22.164 424.594 21.7037C424.111 21.2434 423.869 20.6009 423.869 19.776C423.869 18.8828 424.159 18.2242 424.737 17.8004C425.316 17.372 426.212 17.1578 427.424 17.1578H428.812V16.8229C428.812 16.4993 428.693 16.2555 428.456 16.0914C428.224 15.9228 427.88 15.8385 427.424 15.8385C426.945 15.8385 426.48 15.9 426.029 16.0231C425.583 16.1416 425.116 16.333 424.628 16.5973V14.8883C425.07 14.706 425.519 14.5716 425.975 14.485C426.43 14.3984 426.913 14.3551 427.424 14.3551C428.668 14.3551 429.541 14.608 430.042 15.1139C430.548 15.6198 430.801 16.5244 430.801 17.8278ZM436.379 12.3658V14.5397H438.997V16.0778H436.379V19.7008C436.379 20.0426 436.461 20.2887 436.625 20.4391C436.794 20.5849 437.072 20.6578 437.459 20.6578H438.997V22.1959H437.315C436.167 22.1959 435.39 22.0136 434.984 21.649C434.579 21.2799 434.376 20.5986 434.376 19.6051V16.0778H432.421V14.5397H434.376V12.3658H436.379ZM441.608 14.5397H445.573V20.6578H448.062V22.1959H441.075V20.6578H443.57V16.0778H441.608V14.5397ZM443.57 10.8141H445.573V13.152H443.57V10.8141ZM452.744 15.9821C452.266 15.9821 451.89 16.194 451.616 16.6178C451.343 17.0371 451.206 17.6227 451.206 18.3746C451.206 19.1266 451.343 19.7145 451.616 20.1383C451.89 20.5576 452.266 20.7672 452.744 20.7672C453.227 20.7672 453.605 20.5576 453.879 20.1383C454.152 19.7145 454.289 19.1266 454.289 18.3746C454.289 17.6227 454.152 17.0371 453.879 16.6178C453.605 16.194 453.227 15.9821 452.744 15.9821ZM449.203 18.3746C449.203 17.1396 449.522 16.1621 450.16 15.442C450.803 14.7174 451.664 14.3551 452.744 14.3551C453.829 14.3551 454.69 14.7174 455.328 15.442C455.971 16.1621 456.292 17.1396 456.292 18.3746C456.292 19.6097 455.971 20.5895 455.328 21.3141C454.69 22.0341 453.829 22.3942 452.744 22.3942C451.664 22.3942 450.803 22.0341 450.16 21.3141C449.522 20.5895 449.203 19.6097 449.203 18.3746ZM464.29 17.2262V22.1959H462.301V17.5338C462.301 16.9778 462.221 16.5813 462.062 16.3444C461.907 16.1028 461.651 15.9821 461.296 15.9821C460.936 15.9821 460.651 16.1438 460.441 16.4674C460.236 16.791 460.134 17.2399 460.134 17.8141V22.1959H458.145V14.5397H460.134V15.6881C460.275 15.2643 460.517 14.9362 460.858 14.7037C461.2 14.4713 461.613 14.3551 462.096 14.3551C462.82 14.3551 463.367 14.5966 463.736 15.0797C464.105 15.5582 464.29 16.2737 464.29 17.2262Z" fill="#4B505A"/>
<rect x="261.5" y="0.5" width="265" height="33.3918" rx="7.5" stroke="#E5E7EB"/>
<defs>
<filter id="filter0_d_300_8713" x="36.6257" y="59.0804" width="405.678" height="214.678" filterUnits="userSpaceOnUse" color-interpolation-filters="sRGB">
<feFlood flood-opacity="0" result="BackgroundImageFix"/>
<feColorMatrix in="SourceAlpha" type="matrix" values="0 0 0 0 0 0 0 0 0 0 0 0 0 0 0 0 0 0 127 0" result="hardAlpha"/>
<feOffset dy="0.919592"/>
<feGaussianBlur stdDeviation="0.919592"/>
<feComposite in2="hardAlpha" operator="out"/>
<feColorMatrix type="matrix" values="0 0 0 0 0 0 0 0 0 0 0 0 0 0 0 0 0 0 0.05 0"/>
<feBlend mode="normal" in2="BackgroundImageFix" result="effect1_dropShadow_300_8713"/>
<feBlend mode="normal" in="SourceGraphic" in2="effect1_dropShadow_300_8713" result="shape"/>
</filter>
<filter id="filter1_d_300_8713" x="419.646" y="59.0804" width="355.728" height="214.678" filterUnits="userSpaceOnUse" color-interpolation-filters="sRGB">
<feFlood flood-opacity="0" result="BackgroundImageFix"/>
<feColorMatrix in="SourceAlpha" type="matrix" values="0 0 0 0 0 0 0 0 0 0 0 0 0 0 0 0 0 0 127 0" result="hardAlpha"/>
<feOffset dy="0.919592"/>
<feGaussianBlur stdDeviation="0.919592"/>
<feComposite in2="hardAlpha" operator="out"/>
<feColorMatrix type="matrix" values="0 0 0 0 0 0 0 0 0 0 0 0 0 0 0 0 0 0 0.05 0"/>
<feBlend mode="normal" in2="BackgroundImageFix" result="effect1_dropShadow_300_8713"/>
<feBlend mode="normal" in="SourceGraphic" in2="effect1_dropShadow_300_8713" result="shape"/>
</filter>
<filter id="filter2_dd_300_8713" x="418.727" y="115.806" width="45.0132" height="75.1806" filterUnits="userSpaceOnUse" color-interpolation-filters="sRGB">
<feFlood flood-opacity="0" result="BackgroundImageFix"/>
<feColorMatrix in="SourceAlpha" type="matrix" values="0 0 0 0 0 0 0 0 0 0 0 0 0 0 0 0 0 0 127 0" result="hardAlpha"/>
<feOffset dy="0.919592"/>
<feGaussianBlur stdDeviation="1.37939"/>
<feComposite in2="hardAlpha" operator="out"/>
<feColorMatrix type="matrix" values="0 0 0 0 0 0 0 0 0 0 0 0 0 0 0 0 0 0 0.1 0"/>
<feBlend mode="normal" in2="BackgroundImageFix" result="effect1_dropShadow_300_8713"/>
<feColorMatrix in="SourceAlpha" type="matrix" values="0 0 0 0 0 0 0 0 0 0 0 0 0 0 0 0 0 0 127 0" result="hardAlpha"/>
<feMorphology radius="0.919592" operator="erode" in="SourceAlpha" result="effect2_dropShadow_300_8713"/>
<feOffset dy="0.919592"/>
<feGaussianBlur stdDeviation="0.919592"/>
<feComposite in2="hardAlpha" operator="out"/>
<feColorMatrix type="matrix" values="0 0 0 0 0 0 0 0 0 0 0 0 0 0 0 0 0 0 0.1 0"/>
<feBlend mode="normal" in2="effect1_dropShadow_300_8713" result="effect2_dropShadow_300_8713"/>
<feBlend mode="normal" in="SourceGraphic" in2="effect2_dropShadow_300_8713" result="shape"/>
</filter>
</defs>
</svg>
