<svg xmlns="http://www.w3.org/2000/svg" class="flex-none w-[3.25rem] md:w-16 lg:w-18" viewBox="0 0 185 185"><defs><clipPath id="clippath"><circle cx="92.5" cy="92.5" r="84.79" style="fill:none"/></clipPath><style>.outofthebox-cls-3{fill:#040651}.outofthebox-cls-4{fill:#050055}.outofthebox-cls-5{fill:#000059}.outofthebox-cls-6{fill:#fff}.outofthebox-cls-7{fill:#6e6eff}</style></defs><g id="Nav"><circle cx="92.5" cy="92.5" r="92.5" class="outofthebox-cls-3"/><circle cx="92.5" cy="92.5" r="84.79" class="outofthebox-cls-3"/><g style="clip-path:url(#clippath)"><path d="M161.74 121a4.495 4.495 0 0 1-4.35-5.65l5.87-22.08a4.495 4.495 0 1 1 8.69 2.31l-5.87 22.08a4.52 4.52 0 0 1-4.35 3.35ZM147.71 89.97a4.495 4.495 0 0 1-4.35-5.65l5.87-22.08a4.495 4.495 0 1 1 8.69 2.31l-5.87 22.08a4.52 4.52 0 0 1-4.35 3.35ZM126.6 154.4a4.495 4.495 0 0 1-4.35-5.65l5.87-22.08a4.495 4.495 0 1 1 8.69 2.31l-5.87 22.08a4.52 4.52 0 0 1-4.35 3.35ZM82.41 115.22a4.495 4.495 0 0 1-4.35-5.65l5.87-22.08a4.495 4.495 0 1 1 8.69 2.31l-5.87 22.08a4.52 4.52 0 0 1-4.35 3.35ZM62.38 92.15a4.495 4.495 0 0 1-4.35-5.65l5.87-22.08a4.495 4.495 0 1 1 8.69 2.31l-5.87 22.08a4.52 4.52 0 0 1-4.35 3.35ZM118.18 72.82a4.495 4.495 0 0 1-4.35-5.65l5.87-22.08a4.495 4.495 0 1 1 8.69 2.31l-5.87 22.08a4.52 4.52 0 0 1-4.35 3.35ZM105.99 124.19a4.495 4.495 0 0 1-4.35-5.65l5.87-22.08a4.495 4.495 0 1 1 8.69 2.31l-5.87 22.08a4.52 4.52 0 0 1-4.35 3.35ZM143.9 44.25a4.495 4.495 0 0 1-4.35-5.65l5.87-22.08a4.495 4.495 0 1 1 8.69 2.31l-5.87 22.08a4.52 4.52 0 0 1-4.35 3.35ZM108.34 31.55a4.495 4.495 0 0 1-4.35-5.65l5.87-22.08a4.495 4.495 0 1 1 8.69 2.31l-5.87 22.08a4.52 4.52 0 0 1-4.35 3.35ZM75.64 42.03a4.495 4.495 0 0 1-4.35-5.65l5.87-22.08a4.495 4.495 0 1 1 8.69 2.31l-5.87 22.08a4.52 4.52 0 0 1-4.35 3.35ZM86.31 170.98a4.495 4.495 0 0 1-4.35-5.65l5.87-22.08a4.495 4.495 0 1 1 8.69 2.31l-5.87 22.08a4.52 4.52 0 0 1-4.35 3.35ZM52.49 188a4.495 4.495 0 0 1-4.35-5.65l5.87-22.08a4.495 4.495 0 1 1 8.69 2.31l-5.87 22.08a4.52 4.52 0 0 1-4.35 3.35ZM46.11 148.71a4.495 4.495 0 0 1-4.35-5.65l5.87-22.08a4.495 4.495 0 1 1 8.69 2.31l-5.87 22.08a4.52 4.52 0 0 1-4.35 3.35ZM42.26 67.39a4.495 4.495 0 0 1-4.35-5.65l5.87-22.08a4.495 4.495 0 1 1 8.69 2.31L46.6 64.05a4.52 4.52 0 0 1-4.35 3.35ZM14.59 98.39a4.495 4.495 0 0 1-4.35-5.65l5.87-22.08a4.495 4.495 0 1 1 8.69 2.31l-5.87 22.08a4.52 4.52 0 0 1-4.35 3.35Z" class="outofthebox-cls-7"/></g><path d="M55.32 82.81h97.03v52.48H45.48l9.84-52.48z" class="outofthebox-cls-6"/><path d="M101.6 19.97c27.38 11.32 26.2 69.01 23.25 88.26H81.32c0-6.55-.53-41.48-.53-46.41-9.54-.48-21.36-4.14-22.13-18-.77-13.86 13.1-36.19 42.94-23.85Z" class="outofthebox-cls-6"/><path d="M126.33 109.96H79.58v-1.73c0-3.49-.15-14.91-.29-25.94-.1-7.82-.2-15.27-.23-18.84-13.66-1.16-21.5-8.05-22.13-19.52-.42-7.53 3.14-17.95 12.03-24.26 6.12-4.34 16.86-8.09 33.3-1.29 29.77 12.31 26.74 74.22 24.3 90.13l-.23 1.47Zm-43.29-3.47h40.31c3.23-23.5 2.01-74.83-22.41-84.93-14.97-6.19-24.56-2.92-29.97.92-7.77 5.51-10.93 14.88-10.58 21.24.71 12.71 11.53 15.92 20.48 16.37l1.65.08v1.65c0 2.28.11 11.09.24 20.42.12 9.63.25 19.54.28 24.25Z" class="outofthebox-cls-4"/><path d="m142.81 98.08 9.54-15.27v52.48l-9.54 15.27V98.08Z" class="outofthebox-cls-6"/><path d="m142.22 96.31 10.41-13.51 10.58 19.99-9.54 15.8-11.45-22.29ZM33.08 98.08l22.24-15.27-9.84 52.48-12.4 15.27V98.08Z" class="outofthebox-cls-6"/><path d="M33.08 98.08h111.91l-2.18 52.48H33.08V98.08z" class="outofthebox-cls-6"/><path d="M140.65 128.91H25.92l-1.68-2.14 5.5-28.69 4.1-4.2-5.71 31.57h108.89l4.26-31.37 1.44-1.13 11.82 23.65 8.67-13.81 1.94 3.48-8.9 15.56-3.05-.05-9.46-18.16-3.51 23.81.42 1.48z" class="outofthebox-cls-4"/><path d="M52.94 83.42C66.26 70.91 84.51 80.94 87 86.15s3.63 13.95 3.63 13.95H83.9c-1.77 4.1-11.23 2.44-20.52 4.31-11.87 2.39-21.02-11.05-10.44-20.99Z" class="outofthebox-cls-6"/><path d="M90.36 83.69c13.01-12.51 30.44 3.35 32.86 8.56 2.42 5.21-1.52 7.48-1.52 7.48-1.04 0 .69.71-2.63.71-1.73 4.1-10.78 4.31-20.03 4.31-5.88 0-19-11.13-8.67-21.07Z" class="outofthebox-cls-6"/><path d="M62.63 112.36c-2.2 0-4.59-.39-7.16-1.18-7.01-2.14-9.38-6.62-10.12-10-1.66-7.53 3.03-17.13 8.52-22.05l3.18 1.03c-5.54 4.3-9.68 14.06-8.31 20.27.79 3.6 3.4 6.11 7.75 7.43 5.05 1.54 9.16 1.34 12.22-.61 4.53-2.88 5.41-8.75 5.41-8.81l.21-1.49h10.41l1.48 3.46h-8.99c-.62 2.37-2.32 6.98-6.64 9.75-2.29 1.46-4.95 2.2-7.96 2.2Z" class="outofthebox-cls-4"/><path d="M101.81 114.32c-2.17 0-4.46-.37-6.85-1.1-6.72-2.05-9.1-6.27-9.92-9.45-1.94-7.54 2.69-16.43 5.48-19.31 3.24-3.34 15.17-12.99 32.49 3.28l-3 .49c-4.86-4.57-16.67-12.01-27-1.36-1.97 2.03-6.22 9.77-4.61 16.03.87 3.37 3.42 5.72 7.58 7 4.72 1.44 8.89 1.22 12.38-.66 6.06-3.26 8.26-10.5 8.28-10.58l.37-1.24 16.6.54c1.82 0 2.23 1.67.92 2.92h-15c-.99 2.54-3.77 8.29-9.5 11.39-2.51 1.35-5.25 2.03-8.21 2.03ZM80.79 63.55v-3.47c8.15 0 20.52-4.15 23.16-8.78l-.44 2.94c-4.14 7.25-17.06 9.31-22.73 9.31Z" class="outofthebox-cls-4"/><circle cx="90.71" cy="40.21" r="3" class="outofthebox-cls-5"/><circle cx="72.72" cy="40.21" r="3" class="outofthebox-cls-5"/><path d="m132.774 98.398 25.158-19.905 1.862 2.353-25.159 19.904zM31.35 97.49h14.88v3H31.35zM73.77 105.02l-1.55-.7c1.83-2.99 2.76-8.36 1.28-10.27l3 1.84c2.3 2.98-1.47 7.04-2.74 9.12ZM116.5 104.49l-1.55-.68c1.79-3.01 2.66-8.39 1.17-10.28l3.02 1.81c2.34 2.95-1.39 7.06-2.64 9.15Z" class="outofthebox-cls-4"/></g></svg>