<svg xmlns="http://www.w3.org/2000/svg" class="flex-none w-[3.25rem] md:w-16 lg:w-18" viewBox="0 0 185 185"><defs><clipPath id="clippath"><circle cx="92.5" cy="92.5" r="84.79" style="fill:none"/></clipPath><style>.tooling-cls-3{fill:#040651}.tooling-cls-4{fill:#050055}.tooling-cls-5{fill:#000059}.tooling-cls-6{fill:#fff}.tooling-cls-7{fill:#6e6eff}</style></defs><g id="Nav"><circle cx="92.5" cy="92.5" r="92.5" class="tooling-cls-3"/><circle cx="92.5" cy="92.5" r="84.79" class="tooling-cls-3"/><g style="clip-path:url(#clippath)"><path d="M161.74 121a4.495 4.495 0 0 1-4.35-5.65l5.87-22.08a4.495 4.495 0 1 1 8.69 2.31l-5.87 22.08a4.52 4.52 0 0 1-4.35 3.35ZM147.71 89.97a4.495 4.495 0 0 1-4.35-5.65l5.87-22.08a4.495 4.495 0 1 1 8.69 2.31l-5.87 22.08a4.52 4.52 0 0 1-4.35 3.35ZM126.6 154.4a4.495 4.495 0 0 1-4.35-5.65l5.87-22.08a4.495 4.495 0 1 1 8.69 2.31l-5.87 22.08a4.52 4.52 0 0 1-4.35 3.35ZM82.41 115.22a4.495 4.495 0 0 1-4.35-5.65l5.87-22.08a4.495 4.495 0 1 1 8.69 2.31l-5.87 22.08a4.52 4.52 0 0 1-4.35 3.35ZM62.38 92.15a4.495 4.495 0 0 1-4.35-5.65l5.87-22.08a4.495 4.495 0 1 1 8.69 2.31l-5.87 22.08a4.52 4.52 0 0 1-4.35 3.35ZM118.18 72.82a4.495 4.495 0 0 1-4.35-5.65l5.87-22.08a4.495 4.495 0 1 1 8.69 2.31l-5.87 22.08a4.52 4.52 0 0 1-4.35 3.35ZM105.99 124.19a4.495 4.495 0 0 1-4.35-5.65l5.87-22.08a4.495 4.495 0 1 1 8.69 2.31l-5.87 22.08a4.52 4.52 0 0 1-4.35 3.35ZM143.9 44.25a4.495 4.495 0 0 1-4.35-5.65l5.87-22.08a4.495 4.495 0 1 1 8.69 2.31l-5.87 22.08a4.52 4.52 0 0 1-4.35 3.35ZM108.34 31.55a4.495 4.495 0 0 1-4.35-5.65l5.87-22.08a4.495 4.495 0 1 1 8.69 2.31l-5.87 22.08a4.52 4.52 0 0 1-4.35 3.35ZM75.64 42.03a4.495 4.495 0 0 1-4.35-5.65l5.87-22.08a4.495 4.495 0 1 1 8.69 2.31l-5.87 22.08a4.52 4.52 0 0 1-4.35 3.35ZM98.7 178.98a4.495 4.495 0 0 1-4.35-5.65l5.87-22.08a4.495 4.495 0 1 1 8.69 2.31l-5.87 22.08a4.52 4.52 0 0 1-4.35 3.35ZM66.71 177.55a4.495 4.495 0 0 1-4.35-5.65l5.87-22.08a4.495 4.495 0 1 1 8.69 2.31l-5.87 22.08a4.52 4.52 0 0 1-4.35 3.35ZM46.11 148.71a4.495 4.495 0 0 1-4.35-5.65l5.87-22.08a4.495 4.495 0 1 1 8.69 2.31l-5.87 22.08a4.52 4.52 0 0 1-4.35 3.35ZM28.92 123.91a4.495 4.495 0 0 1-4.35-5.65l5.87-22.08a4.495 4.495 0 1 1 8.69 2.31l-5.87 22.08a4.52 4.52 0 0 1-4.35 3.35ZM42.26 67.39a4.495 4.495 0 0 1-4.35-5.65l5.87-22.08a4.495 4.495 0 1 1 8.69 2.31L46.6 64.05a4.52 4.52 0 0 1-4.35 3.35ZM16.3 89.43a4.495 4.495 0 0 1-4.35-5.65l5.87-22.08a4.495 4.495 0 1 1 8.69 2.31l-5.87 22.08a4.52 4.52 0 0 1-4.35 3.35Z" class="tooling-cls-7"/></g><path d="M89.22 53.38c4.6 3.56 5.44 10.17 1.88 14.76l-43.56 56.3c-3.56 4.6-10.17 5.44-14.76 1.88-4.6-3.56-5.44-10.17-1.88-14.76l43.56-56.3c3.56-4.6 10.17-5.44 14.76-1.88Z" class="tooling-cls-6"/><path d="M39.21 130.02c-2.57 0-5.16-.82-7.34-2.51-5.24-4.06-6.21-11.62-2.15-16.87l43.56-56.3c4.06-5.24 11.62-6.21 16.87-2.15 5.24 4.06 6.21 11.62 2.15 16.87l-43.56 56.3a12.013 12.013 0 0 1-9.52 4.66Zm43.58-77.34c-2.7 0-5.37 1.2-7.15 3.5l-43.56 56.3a8.958 8.958 0 0 0-1.81 6.66 8.995 8.995 0 0 0 3.43 6c3.94 3.05 9.62 2.32 12.66-1.62l43.56-56.3c3.04-3.94 2.32-9.61-1.62-12.66a8.96 8.96 0 0 0-5.51-1.88Z" class="tooling-cls-4"/><path d="M54.71 82.39c-.5 0-.93-.37-.99-.87-.07-.55.32-1.05.87-1.12l27.25-3.48a1.002 1.002 0 1 1 .25 1.99l-27.25 3.48h-.13ZM48.07 90.97c-.5 0-.93-.37-.99-.87-.07-.55.32-1.05.87-1.12L75.2 85.5a1.002 1.002 0 1 1 .25 1.99L48.2 90.97h-.13ZM41.44 99.55c-.5 0-.93-.37-.99-.87-.07-.55.32-1.05.87-1.12l27.25-3.48a.997.997 0 0 1 1.12.87c.07.55-.32 1.05-.87 1.12l-27.25 3.48h-.13ZM34.8 108.12c-.5 0-.93-.37-.99-.87-.07-.55.32-1.05.87-1.12l27.25-3.48a1.002 1.002 0 1 1 .25 1.99l-27.25 3.48h-.13Z" class="tooling-cls-4"/><path d="M70.07 94.28c-.5 0-.93-.37-.99-.87L65.6 66.16a1.002 1.002 0 1 1 1.99-.25l3.48 27.25c.07.55-.32 1.05-.87 1.12h-.13ZM63.44 102.86c-.5 0-.93-.37-.99-.87l-3.48-27.25a1.002 1.002 0 1 1 1.99-.25l3.48 27.25c.07.55-.32 1.05-.87 1.12h-.13ZM56.8 111.44c-.5 0-.93-.37-.99-.87l-3.48-27.25a1.002 1.002 0 1 1 1.99-.25l3.48 27.25c.07.55-.32 1.05-.87 1.12h-.13ZM50.16 120.01c-.5 0-.93-.37-.99-.87l-3.48-27.25c-.07-.55.32-1.05.87-1.12a.997.997 0 0 1 1.12.87l3.48 27.25c.07.55-.32 1.05-.87 1.12h-.13Z" class="tooling-cls-4"/><path d="M75.63 39.23c6.29-4.39 14.95-2.85 19.34 3.44 4.39 6.29 2.85 14.95-3.44 19.34L46.79 93.24a51.078 51.078 0 0 1-36.44 8.69 50.88 50.88 0 0 1 20.74-31.62l44.53-31.08Z" class="tooling-cls-6"/><path d="M17.61 104.21c-2.49 0-4.99-.18-7.5-.53l-1.85-.26.37-1.84c2.7-13.32 10.32-24.94 21.46-32.72l44.53-31.08c3.43-2.39 7.58-3.31 11.71-2.58 4.12.73 7.71 3.02 10.1 6.46 4.94 7.08 3.2 16.86-3.88 21.8L47.81 94.69c-8.94 6.24-19.45 9.52-30.21 9.52Zm-5.1-3.8a49.118 49.118 0 0 0 33.28-8.62l44.74-31.23c5.48-3.83 6.83-11.4 3-16.89a12.033 12.033 0 0 0-7.82-5c-3.19-.57-6.41.14-9.06 2L32.12 71.75c-9.87 6.89-16.78 17.01-19.61 28.65Z" class="tooling-cls-4"/><path d="M31.87 84.78c-.16.61-.62 1.1-1.2 1.33l-3.61 1.41c.12-.3.22-.74.35-1.25.65-2.7 1.73-7.21 9.04-12.17 6.17-4.18 28.12-19.79 40.23-28.43.9-.64 2.14-.43 2.78.47.64.9.44 2.14-.46 2.78-12.11 8.67-33.98 24.5-40.31 28.49-4.36 2.75-6.04 4.16-6.62 6.57-.07.27-.13.54-.2.8Z" class="tooling-cls-4"/><path d="m163.59 86.99-1.38.97 1.38-.97c-.13-.19-.25-.36-.36-.51l-1.43.97 1.43-.97c-.67-.99-.81-1.4-.83-1.6s0-.1.05-.24c.06-.16.23-.48.66-.95a3.404 3.404 0 0 0-.19-4.79 3.377 3.377 0 0 0-4.79.19l1.3 1.19-1.3-1.19c-1.39 1.52-2.25 3.18-2.45 4.95-.11-.09-.23-.18-.35-.27-2.05-1.52-5.1-2.58-8.08-1-1.62.85-2.9 2.1-3.62 3.73l1.61.72-1.61-.72c-.71 1.6-.75 3.27-.44 4.75.06.31.14.61.24.91-1.07-.2-2.22-.2-3.44.08-3.51.8-5.39 3.5-5.79 6.4-.23 1.62 0 3.31.53 4.89-2.85-.93-5.68-.54-7.81 1.48-2.3 2.18-2.9 5.51-2.47 8.33.1.62.24 1.25.45 1.87-1.94-.53-3.9-.37-5.69.5-2.64 1.28-4.32 3.84-4.94 6.53-.64 2.75-.25 5.91 1.55 8.7 1.45 2.26 3.71 4.11 6.75 5.35-4.17.93-9.64-.38-14-6.47a3.381 3.381 0 0 0-4.73-.77l1.04 1.43-1.04-1.43a3.399 3.399 0 0 0-.76 4.73c7.77 10.86 19.43 11.54 26.66 6.74 1.84-1.22 3.42-2.82 4.53-4.72.65-.4 1.27-.85 1.85-1.36 2.82-2.45 4.78-6 5.89-9.62.27-.88.5-1.78.67-2.7 6.16-2.1 9-7.33 9.71-12.45.49-.29.99-.61 1.48-.96 3.07-2.19 5.04-4.81 6.11-7.57 2.06-.83 3.83-2.42 5.12-4.75 1.27-2.29 1.06-4.49.32-6.27-.49-1.18-1.27-2.3-1.81-3.07l-.04-.06Zm-28.7 37.64c-.25-.57-.54-1.14-.88-1.7.47.08.95.14 1.45.18-.17.53-.36 1.04-.57 1.53Zm8.06-10.33c-.04-.26-.08-.52-.13-.78-.15-.81-.36-1.62-.64-2.41.41.14.83.25 1.27.33.48.1.96.16 1.46.19a7.681 7.681 0 0 1-1.96 2.67Zm8.92-12.78-.21-.72c.21.09.42.17.63.25-.13.16-.27.32-.41.47Zm-10.25 20.92-.45-1.7.45 1.7Zm8.2-33.18s.04-.08.11-.15c.08-.08.21-.19.46-.32h.08c.13.02.41.11.84.43.85.64 1.81 1.87 2.4 3.51.2.55.35 1.14.44 1.73-.63-.29-1.27-.69-1.89-1.2-1.44-1.18-2.25-2.53-2.43-3.42-.08-.39-.02-.55 0-.59Zm.56-.47Zm-4.71 16.07c-.33 0-.63-.02-.9-.08-1.17-.23-2.22-1-2.96-2.11-.77-1.16-1-2.36-.9-3.1.05-.33.13-.47.18-.52.03-.04.12-.13.42-.2.6-.14 1.34 0 2.26 1.14.87 1.09 1.6 2.82 1.91 4.87Zm-9.5 9.92c.09.5.16 1.02.19 1.57-1.44-.03-2.46-.41-3.15-.84-1.19-.75-1.87-1.96-2.06-3.21-.21-1.36.22-2.16.43-2.36.04-.03.1-.09.29-.1.22-.01.73.03 1.64.52 1.22.65 2.22 2.06 2.66 4.43Zm-7.08 15.87c-.72.15-1.5.12-2.37-.11-2.96-.81-4.48-2.14-5.22-3.29-.75-1.17-.89-2.43-.64-3.48.26-1.11.86-1.74 1.31-1.96.19-.09.41-.14.69-.11.29.04.74.17 1.36.62 3.96 2.87 4.97 5.53 4.97 7.35 0 .33-.03.66-.1.99Z" class="tooling-cls-6"/><path d="M120.09 145.11c-1.27 0-2.55-.12-3.81-.36-3.98-.77-9.75-3.12-14.63-9.95-1.29-1.8-1.25-4.16-.08-5.9l-.18-.25 1.43-1.04 1.42-1.03.18.25c.72-.21 1.48-.25 2.23-.13 1.36.22 2.56.96 3.36 2.09 1.94 2.71 3.99 4.25 5.87 5.09a14.1 14.1 0 0 1-1.54-1.99c-1.95-3.03-2.59-6.6-1.79-10.06.8-3.47 2.95-6.29 5.89-7.72 1.33-.65 2.75-.98 4.21-.98-.43-3.67.7-7.16 3.06-9.41 1.82-1.73 4.18-2.56 6.72-2.43-.11-.99-.11-1.97.03-2.91.55-3.98 3.29-7 7.15-7.88.56-.13 1.11-.21 1.67-.24-.07-.96 0-1.9.19-2.81l-.16-.07.72-1.61.72-1.61.16.07c.88-1.23 2.07-2.26 3.53-3.03 2.52-1.33 5.47-1.29 8.18.06.29-.67.66-1.34 1.11-1.98l-.08-.08 1.19-1.3 1.19-1.3.23.21c.66-.34 1.4-.54 2.17-.57 1.37-.06 2.7.43 3.71 1.37 2.07 1.93 2.2 5.19.29 7.27-.02.02-.04.05-.06.07.08.13.18.28.31.48l1.39 1.98-.03.02c.38.6.75 1.28 1.05 2 1.09 2.65.95 5.35-.41 7.8-1.31 2.36-3.14 4.15-5.3 5.22-1.31 2.98-3.48 5.56-6.44 7.68-.3.21-.59.41-.89.6-1.08 6-4.6 10.55-9.8 12.69-.15.65-.32 1.28-.51 1.9-1.31 4.28-3.6 7.98-6.42 10.43-.55.47-1.12.91-1.71 1.29-1.19 1.91-2.86 3.61-4.85 4.93-3.09 2.05-6.83 3.13-10.63 3.13Zm-15.2-14.64a1.64 1.64 0 0 0-.37 2.27c7.13 9.97 17.6 10.71 24.25 6.29 1.67-1.11 3.05-2.54 3.98-4.14l.22-.38.38-.23c.56-.34 1.1-.74 1.61-1.18 2.33-2.02 4.24-5.15 5.36-8.8.16-.53.31-1.07.44-1.63l-.86.23-.45-1.7 2.67-.75c6.39-2.18 8.09-7.84 8.53-11.03l.12-.85.74-.43c.44-.26.9-.55 1.35-.87 2.62-1.87 4.47-4.15 5.49-6.77l.28-.71.71-.29c1.75-.71 3.17-2.04 4.24-3.97.83-1.5.91-3.1.24-4.74-.42-1-1.14-2.04-1.62-2.72l.02-.02-.04-.05-.02.02c-.14-.2-.27-.38-.37-.54-.23-.33-.41-.63-.57-.9l-.39-.58.08-.05c-.14-.33-.21-.61-.24-.89-.03-.36.02-.7.16-1.05.18-.46.52-.97 1.01-1.5.6-.66.56-1.69-.09-2.3a1.64 1.64 0 0 0-1.16-.43c-.42.02-.82.2-1.11.51l-.05.05c-1.15 1.27-1.81 2.59-1.96 3.91l-.36 3.2-2.51-2.02c-.1-.08-.2-.15-.29-.23-.98-.73-3.54-2.26-6.2-.86-1.31.69-2.25 1.64-2.8 2.81l-.06.14c-.47 1.09-.57 2.31-.29 3.61.05.25.12.5.19.74l.88 2.82-2.9-.56c-.87-.17-1.79-.15-2.71.06-3.5.8-4.27 3.71-4.44 4.92-.18 1.28-.02 2.69.45 4.07l1.14 3.34-3.36-1.09c-1.67-.54-4.07-.79-6.05 1.08-1.63 1.55-2.35 4.08-1.94 6.78.08.54.21 1.07.38 1.58l1.04 3.13-3.18-.88c-1.53-.42-3.07-.29-4.45.38-1.95.95-3.44 2.95-4 5.34-.58 2.52-.12 5.12 1.31 7.35 1.3 2.02 3.29 3.59 5.93 4.68l5.19 2.13-5.48 1.23c-5.78 1.29-11.68-1.39-15.82-7.17-.25-.35-.63-.59-1.05-.66-.42-.07-.85.03-1.2.29Zm23.29 2.04c-.63 0-1.27-.09-1.91-.27-3.65-1-5.4-2.75-6.23-4.04-.95-1.48-1.26-3.19-.88-4.83.33-1.45 1.18-2.62 2.26-3.15.52-.25 1.08-.35 1.67-.28.71.08 1.44.4 2.19.94 4.72 3.42 5.7 6.66 5.7 8.78 0 .44-.05.89-.14 1.34l-.23 1.15-1.15.23c-.42.08-.84.13-1.27.13Zm.92-1.86Zm-6.24-7.12c-.08.12-.19.32-.26.64-.1.41-.17 1.23.41 2.12.5.77 1.63 1.84 4.2 2.54.05.01.09.03.14.04-.26-1.19-1.21-3-4.14-5.13-.14-.1-.26-.17-.34-.22Zm12.05 5.56-1.63-3.77c-.22-.51-.48-1.01-.77-1.5l-1.98-3.31 3.8.66c.41.07.84.12 1.27.16l2.25.16-.7 2.14c-.19.58-.4 1.14-.63 1.67l-1.61 3.78Zm3.35-10.94-1.93-.04c-1.57-.04-2.94-.41-4.05-1.11-1.54-.97-2.58-2.59-2.87-4.43-.3-1.93.33-3.31.96-3.91.38-.36.85-.55 1.4-.59.72-.04 1.6.2 2.58.72 1.27.68 2.92 2.21 3.57 5.66.11.57.18 1.17.22 1.78l.12 1.92Zm-5.35-6.11c.13.83.59 1.55 1.26 1.97-.3-.92-.73-1.59-1.26-1.97Zm8.77 5.69-.46-3.18a7.86 7.86 0 0 0-.12-.7c-.14-.75-.33-1.48-.57-2.16l-1.17-3.38 3.4 1.12a9.16 9.16 0 0 0 2.28.44l2.56.16-1.06 2.33c-.59 1.3-1.4 2.4-2.42 3.28l-2.44 2.1Zm3.93-11.11c-.4 0-.79-.04-1.17-.11-1.62-.32-3.07-1.34-4.09-2.86-.92-1.38-1.37-3-1.18-4.33.08-.58.28-1.06.58-1.42.31-.37.78-.64 1.36-.77 1.48-.34 2.83.26 4.03 1.76 1.12 1.41 1.93 3.44 2.28 5.7l.3 2-2.02.04h-.11Zm5.41-1.6-.84-3.04c-.06-.22-.13-.44-.2-.66l-1.17-3.68 3.55 1.52c.18.08.37.15.55.22l2.3.87-1.56 1.9c-.15.19-.31.37-.48.55l-2.15 2.31Zm5.37-7.58-2.98-1.38c-.79-.36-1.55-.85-2.27-1.44-1.48-1.21-2.56-2.71-2.96-4.08h-2.06l2.17-2.17c.1-.18.23-.35.38-.5.17-.18.38-.34.61-.49l.37-.37h.9l.24.03c.49.08 1.02.34 1.58.75 1.26.94 2.36 2.52 3.01 4.33.24.67.41 1.36.52 2.06l.49 3.25Z" class="tooling-cls-4"/><ellipse cx="93.61" cy="51.01" class="tooling-cls-4" rx="4.75" ry="4.28"/><path d="M97.46 23.85c12.31 0 22.28 9.98 22.28 22.28v90.55c0 12.31-9.98 22.28-22.28 22.28-12.31 0-22.28-9.98-22.28-22.28V46.13c0-12.31 9.98-22.28 22.28-22.28Z" class="tooling-cls-6"/><path d="M97.45 161.46c-13.66 0-24.78-11.12-24.78-24.78V46.13c0-13.66 11.12-24.78 24.78-24.78s24.78 11.12 24.78 24.78v90.55c0 13.66-11.12 24.78-24.78 24.78Zm0-135.12c-10.91 0-19.78 8.87-19.78 19.78v90.55c0 10.91 8.87 19.78 19.78 19.78s19.78-8.87 19.78-19.78V46.13c0-10.91-8.87-19.78-19.78-19.78Z" class="tooling-cls-4"/><circle cx="97.46" cy="48.5" r="4.66" class="tooling-cls-5"/><circle cx="97.46" cy="134.31" r="4.66" class="tooling-cls-5"/></g></svg>