<svg width="100%" height="100%" viewBox="0 0 33 38" version="1.1" xmlns="http://www.w3.org/2000/svg" xmlns:xlink="http://www.w3.org/1999/xlink" xml:space="preserve" xmlns:serif="http://www.serif.com/" style="fill-rule:evenodd;clip-rule:evenodd;stroke-linejoin:round;stroke-miterlimit:2;"><path d="M2.689,13.426c1.437,-6.351 5.364,-10.872 9.9,-12.59c6.556,-2.476 12.432,0.866 13.422,5.853c2.437,2.233 5.168,5.815 6.09,10.889c0.849,4.663 0.252,10.113 -2.954,14.24c0.959,0.196 1.729,0.434 2.219,0.714c0.212,0.121 0.39,0.25 0.533,0.381l0.327,0.383l0.21,0.431l0.089,0.513l-0.028,0.339l-0.09,0.321l-0.298,0.516c-0.23,0.288 -0.61,0.581 -1.148,0.834c-2.236,1.037 -8.338,1.638 -13.106,1.632c-1.159,0.001 -2.187,-0.067 -3.076,-0.196l-0.007,-0c-6.695,-0.851 -11.927,-6.138 -13.54,-10.352c-1.943,-5.081 -1.192,-10.985 -0.421,-12.985l0.024,-0.063c0.525,-1.886 1.011,-1.55 1.854,-0.86Z" style="fill:#f8f9fc;"/><g><path d="M14.939,36.431c-6.189,-0.778 -11.036,-5.657 -12.526,-9.554c-1.806,-4.721 -1.14,-10.215 -0.423,-12.068c0.045,-0.091 0.128,-0.15 0.224,-0.169c0.097,-0.019 0.195,0.011 0.268,0.076c0.334,0.274 0.716,0.517 1.119,0.732c0.967,-6.789 4.832,-11.685 9.435,-13.428c5.871,-2.217 11.195,0.759 11.801,5.318c2.355,2.056 5.116,5.5 6.02,10.464c0.91,5.005 0.08,11.003 -4.273,14.924c2.651,0.259 4.659,0.748 4.676,1.54c0.033,1.541 -7.692,2.351 -13.405,2.356c-1.099,-0.003 -2.074,-0.072 -2.916,-0.191Z" style="fill:#002633;"/></g><g><path d="M12.511,12.319c-0.024,0 -0.045,0.007 -0.065,0.018c-1.921,1.184 -2.479,6.138 -2.512,8.107c0,0.07 -0.028,0.137 -0.078,0.186c-0.051,0.046 -0.118,0.072 -0.188,0.066c-1.715,-0.138 -4.783,-1.116 -5.806,-1.969c-0.03,-0.031 -0.07,-0.039 -0.108,-0.026c-0.038,0.013 -0.065,0.047 -0.068,0.089c-0.163,1.83 0.065,5.151 1.474,7.62c1.463,2.565 6.14,7.253 13.558,5.982c7.419,-1.27 9.93,-8.028 9.676,-12.495c-0.243,-4.287 -1.997,-7.356 -3.514,-8.88c-0.037,-0.034 -0.093,-0.048 -0.14,-0.029c-0.049,0.017 -0.083,0.061 -0.089,0.112c-0.333,1.903 -2.414,5.512 -3.875,5.997c-0.099,0.021 -0.203,-0.02 -0.26,-0.103c-1.397,-1.959 -5.125,-4.807 -8.005,-4.675Z" style="fill:#fefdf0;"/></g><g><ellipse cx="15.268" cy="6.761" rx="1.169" ry="1.463" style="fill:#fff;"/></g><g><ellipse cx="20.656" cy="6.761" rx="1.169" ry="1.463" style="fill:#fff;"/></g></svg>
