<?xml version="1.0" encoding="utf-8"?>
<!-- Generator: Adobe Illustrator 29.5.1, SVG Export Plug-In . SVG Version: 9.03 Build 0)  -->
<svg
  version="1.1"
  id="Layer_1"
  xmlns="http://www.w3.org/2000/svg"
  xmlns:xlink="http://www.w3.org/1999/xlink"
  x="0px"
  y="0px"
  viewBox="0 0 670 503"
  style="enable-background: new 0 0 670 503"
  xml:space="preserve"
>
  <style type="text/css">
  .st0 {
    fill: #ffffff;
    stroke: #000000;
    stroke-width: 7.8628;
    stroke-linecap: round;
    stroke-linejoin: round;
  }
  .st1 {
    fill: #c4c4c4;
  }
  </style>
  <path d="M363.5,462.5l-3.58-59.81l41.28-8.63L394.5,460L363.5,462.5z" />
  <path
    class="st0"
    d="M529.71,418.62c1.81,0,3.38-1.23,3.82-2.99c0.43-1.76-0.39-3.58-1.99-4.42c-21.65-11.38-45.48-28.28-55.03-55.8
	c-10.24-29.5-27.66-60.22-56.89-86.73c-27.68-25.09-53.22-29.3-83.88-34.35c-1.09-0.18-2.19-0.36-3.3-0.55c0-0.14,0-0.29,0-0.45
	c0.03-2.46,0.05-5.99,0.06-10.32c0.02-8.65-0.05-20.48-0.36-33.18c-0.32-12.69-0.88-26.28-1.88-38.45
	c-0.99-12.09-2.43-23.05-4.56-30.34c-8.45-28.86-29.88-48.86-60.24-52.46c-16.08-1.91-29.26,0.9-38.53,7.37
	c-9.37,6.54-14.36,16.56-14.36,28.03c0,11.8,6.74,22.64,16.51,31.76c9.32,8.69,21.8,16.22,35.3,22.01
	c1.51,20.24,1.02,38.53,0.58,55.45c-0.23,8.74-0.46,17.1-0.39,25.19c-12.92,16.7-24.35,44.61-31.55,71.03
	c-3.7,13.57-6.33,26.92-7.47,38.4c-1.07,10.74-0.9,20.39,1.33,27.01c-2.69,20.51-9.88,44.98-16.27,66.73
	c-0.73,2.48-1.45,4.92-2.14,7.32c-0.3,1.01-0.17,2.1,0.34,3.02c0.51,0.92,1.38,1.6,2.4,1.87c13.71,3.75,25.53,3.12,36.01,2.56
	c3.56-0.19,6.96-0.37,10.23-0.37c1.65,0,3.13-1.03,3.7-2.59c2.08-5.73,4.81-18.11,7.34-30.14c0.61-2.91,1.22-5.81,1.8-8.62
	c1.39-6.67,2.67-12.82,3.71-17.35c0.2,0.07,0.41,0.15,0.61,0.22c5.98,2.16,11.1,4.02,16.24,5.04c5.48,1.09,10.99,1.26,17.86,0.2
	v52.26c0,2.17,1.76,3.93,3.93,3.93h48.01c2.17,0,3.93-1.76,3.93-3.93c0-14.1,1.66-34.59,5.28-53.61l47.58-8.75
	c0.38,2.77,1.04,5.84,1.85,9.03c1.33,5.2,3.16,11.01,5.17,16.91c2.99,8.76,6.45,17.87,9.36,25.52c1,2.62,1.93,5.07,2.75,7.28
	c0.61,1.64,2.24,2.68,3.99,2.54c11.62-0.91,24.47-2.75,35.81-4.89c2.08-0.39,3.47-2.36,3.16-4.45c-1.28-8.47-4.44-21.44-7.66-34
	c-1.18-4.58-2.36-9.12-3.48-13.39c-0.36-1.37-0.71-2.71-1.05-4.01C486.81,411.59,508.89,418.62,529.71,418.62z"
  />
  <ellipse cx="282.53" cy="87.5" rx="5.53" ry="5.5" />
  <path
    d="M62.85,406.56C130.31,436.37,226.44,454,333.14,454c109.84,0,208.49-19.75,276.18-51.11
	c-67.69,39.8-166.34,64.87-276.18,64.87C226.44,467.76,130.31,444.39,62.85,406.56z"
  />
  <path
    class="st1"
    d="M298.99,156.21c-10.81,2.95-21.89,2.73-30.99-1.21l1,27.5C271.29,181.85,290.34,160.14,298.99,156.21z"
  />
  <path d="M271.47,416.66l16.71-12.78l-16.71-6.88V416.66z" />
  <path
    class="st1"
    d="M246.5,379.5c1.57,1.57,20.05,10.3,24.97,12.59l-3.93,15.73C264.59,402.58,249.65,386.58,246.5,379.5z"
  />
  <path
    class="st1"
    d="M365.82,397.99l3.93-13.76c0,3.93,5.24,9.5,7.86,11.79L365.82,397.99z"
  />
  <path
    class="st1"
    d="M312.75,397.99c0-6.29-3.93-15.07-5.9-18.67c1.57,3.93-0.65,15.4-1.97,20.64
	C305.87,399.95,309.8,398.97,312.75,397.99z"
  />
  <path
    class="st1"
    d="M419.78,94.78c-5.67-15.42-6.77-19.8-5.34-21.22c1.01-1.01,2.6-0.64,4.03,0.94
	c2.03,2.25,18.34,34.99,23.84,47.84c2.16,5.06,2.26,9.35,0.22,9.76c-2.08,0.43-4.48-1.78-8.21-7.56
	C430.83,119.15,422.36,101.82,419.78,94.78z"
  />
  <path
    class="st1"
    d="M499.7,140.06c-11.59-14.39-18.3-25.07-18.3-29.1c0-7.12,9.62,2.66,38.36,39.02
	c6.58,8.32,7.72,11.07,4.59,11.07C519.19,161.05,510.95,154.04,499.7,140.06z"
  />
  <path
    class="st1"
    d="M395.98,129.53c-1.5-5.15-1.87-10.47-0.81-11.53c0.34-0.34,1.43-0.5,2.41-0.36
	c5.21,0.74,12.34,29.49,7.69,31.01C403.99,149.06,398.2,137.16,395.98,129.53z"
  />
  <path
    class="st1"
    d="M389.27,224.26c-5.48-4.93-15.35-42.19-17.95-67.79c-0.57-5.59-0.51-5.89,1.25-5.89
	c2.28,0,2.78,1.26,6.19,15.51c3.89,16.24,9.77,37.51,10.88,39.29c0.55,0.88,4.03,16.62,4.03,18.22
	C393.67,225.52,391.09,225.9,389.27,224.26z"
  />
  <path
    class="st1"
    d="M482.81,191.22c-3.52-7.45-4.54-11.04-3.73-13.13c0.73-1.9,2.6-1.65,4.73,0.63
	c3.88,4.16,21.52,38.51,22.62,44.04c1.04,5.24-2.61,3.08-8.46-5.01C494.44,212.87,486.36,198.73,482.81,191.22z"
  />
  <path
    class="st1"
    d="M436.97,246.51c-8.43-23.92-13.55-44.46-12.17-48.79c0.59-1.84,1.89-2.24,3.66-1.12
	c1.3,0.82,20.65,58.33,23.05,68.51c2.16,9.13,2.35,13.66,0.59,13.66C449.62,278.78,444.47,267.81,436.97,246.51z"
  />
  <path
    class="st1"
    d="M605.91,238.06c-6.55-6.84-15.42-20.44-14.4-22.08c0.29-0.47,1.93-0.86,3.64-0.86c3.57,0,5.75,1.97,12.98,11.77
	c6.39,8.66,10.13,14.74,10.13,16.46C618.27,247.51,612.67,245.11,605.91,238.06z"
  />
  <path
    class="st1"
    d="M508.67,278.1c-6.67-9.26-18.36-32.87-19.14-38.67c-0.43-3.17-0.32-3.38,1.81-3.38c1.66,0,3.04,1.03,5.16,3.87
	c3.23,4.32,9.47,14.03,9.47,14.73c0,0.25,2.12,4.11,4.71,8.59c8.85,15.29,12.45,24.2,10.31,25.51
	C518.99,289.97,514.31,285.93,508.67,278.1z"
  />
  <path
    class="st1"
    d="M462.99,254.8c-3.06-9.72-3.81-13.22-3.09-14.37c1.7-2.73,4.73,1.19,10.8,13.93
	c2.86,5.99,5.49,11.88,5.86,13.08c0.37,1.2,1.01,2.61,1.43,3.13c0.42,0.52,1.31,2.48,1.98,4.36c1.33,3.72,2.99,7.39,11.99,26.52
	c20.6,43.81,25.03,57.74,17.65,55.41c-2.48-0.78-7.21-8.25-15.22-24.02l-27.02-64.09C466.31,265.39,464.35,259.11,462.99,254.8z"
  />
  <path
    class="st1"
    d="M596.74,318.02c-17.92-29.42-32.4-58.26-30.66-61.06c1-1.61,3.78-0.86,5.83,1.58c1.13,1.34,3.83,5.29,6,8.77
	c2.17,3.48,5.28,8.37,6.92,10.86c7.69,11.73,24.99,39.49,29.82,47.84c5.8,10.04,6.7,13.91,3.6,15.56
	C614.39,343.63,608.23,336.89,596.74,318.02z"
  />
  <path
    class="st1"
    d="M564.37,360.31c-13.42-27.09-25.94-57.01-25.94-61.98c0-0.68,0.76-1.23,1.69-1.23c1.09,0,2.96,1.91,5.33,5.45
	c3.72,5.57,22.1,42.06,27.12,53.85c1.53,3.6,3.36,7.83,4.06,9.4c1.75,3.92,1.7,10.31-0.1,10.99
	C573.71,377.86,571.77,375.24,564.37,360.31z"
  />
  <path
    class="st1"
    d="M187.49,168.71c2.76-7.28,12.95-26.05,14.44-26.61c1.94-0.73,3.9,2.51,3.21,5.31
	c-0.34,1.38-4.41,11.13-9.05,21.68c-4.63,10.55-8.43,19.44-8.43,19.77c0,1.65-5.47,8.55-6.77,8.55
	C177.93,197.41,179.97,188.53,187.49,168.71z"
  />
  <path
    class="st1"
    d="M131.02,221.85c0.79-5.8,1.9-8.21,23.04-50.26c5.45-10.83,8.32-13.73,7.94-8.01
	c-0.34,5.18-10.31,29.39-19.08,46.33c-6.18,11.95-8.83,15.99-10.73,16.35C130.56,226.58,130.44,226.11,131.02,221.85z"
  />
  <path
    class="st1"
    d="M214.9,218.26c0.69-2.01,3.74-10.44,6.76-18.74c3.4-9.32,6.02-15.09,6.86-15.1c2.36-0.01,0.15,9.63-7.68,33.49
	l-11.23,36.5c-4.09,14.56-9.02,29.46-10.5,31.72c-1.73,2.63-5.23,3.03-6.13,0.69c-0.57-1.48,0.84-6.49,8.67-30.9
	c3.93-12.25,9.9-29.56,11.04-32C213.22,222.81,214.21,220.26,214.9,218.26z"
  />
  <path
    class="st1"
    d="M42.23,242.23c0.7-2.21,7.35-12.2,12.69-19.07c5.86-7.53,9.52-2.41,4.12,5.77
	C52.38,239,40.19,248.65,42.23,242.23z"
  />
  <path
    class="st1"
    d="M167.1,251.06c0.79-1.73,2.8-6.23,4.48-9.99c1.9-4.26,3.52-6.67,4.31-6.4c2.02,0.71,1.32,6.73-1.49,12.74
	c-2.38,5.09-4.29,10.31-13.23,36c-3.68,10.57-14.05,34.43-17.52,40.3c-2.75,4.65-5.56,4.67-5.36,0.04
	c0.11-2.61,6.13-19.08,10.89-29.84c1.37-3.09,6.67-16.31,9.02-22.5c0.73-1.93,2.71-6.32,4.39-9.77c1.69-3.45,3.07-6.53,3.07-6.85
	C165.67,254.48,166.31,252.79,167.1,251.06z"
  />
  <path
    class="st1"
    d="M70.4,279.16c-3.41-1.12-0.74-9.59,6.68-21.18c2.88-4.51,4.11-5.64,5.87-5.39c1.89,0.27,2.21,0.91,2.12,4.32
	C84.91,263.2,73.68,280.24,70.4,279.16z"
  />
  <path
    class="st1"
    d="M88.75,327.41c4.26-9.5,9.71-19.13,11.74-20.75c2.05-1.64,3.66-1.58,5.14,0.2c1.27,1.53-0.22,7.17-5.68,21.55
	c-12.58,33.14-23.6,52.5-28.43,49.92c-1.02-0.54-1.85-1.91-1.85-3.04c0-2.08,9.17-26.31,13.39-35.38
	C84.33,337.16,86.9,331.54,88.75,327.41z"
  />
  <path
    class="st1"
    d="M165.67,340.87c0-0.36,0.74-2.2,1.63-4.09c0.9-1.89,2.14-3.27,2.75-3.05c2,0.7,1.02,7.96-2.66,19.69
	c-1.99,6.32-5.04,16.9-6.78,23.5c-3.9,14.8-6.69,21-9.44,21c-1.74,0-1.99-0.65-1.94-5c0.05-4.48,5.35-25.37,7.45-29.41
	c0.46-0.88,1.84-4.29,3.07-7.59c1.23-3.3,3.06-7.89,4.08-10.2S165.67,341.23,165.67,340.87z"
  />
  <path
    class="st1"
    d="M180.7,374.91c0.71-2.2,2.54-6.81,4.08-10.24c2.87-6.39,5.06-7.47,6.42-3.17c-2.27,9.17-7.55,29.8-10.5,39
	c-2.96,9.2-5.9,20.42-7.01,24.87c-3.49,6.83-8.02,6.05-8.02-1.38l13.04-44.08C179.09,379.36,179.99,377.11,180.7,374.91z"
  />
  <path
    class="st1"
    d="M123.22,413.41c-2.84,0-1.37-16.64,1.94-21.99c0.96-1.56,3.27-0.01,3.76,2.53
	C130.04,399.82,126.06,413.41,123.22,413.41z"
  />
</svg>
