<?xml version="1.0" encoding="utf-8"?>
<!-- Generator: Adobe Illustrator 29.5.1, SVG Export Plug-In . SVG Version: 9.03 Build 0)  -->
<svg version="1.1" id="Layer_1" xmlns="http://www.w3.org/2000/svg" xmlns:xlink="http://www.w3.org/1999/xlink" x="0px" y="0px"
	 viewBox="0 0 670 503" style="enable-background:new 0 0 670 503;" xml:space="preserve">
<style type="text/css">
	.st0{fill-rule:evenodd;clip-rule:evenodd;fill:#002633;}
	.st1{fill-rule:evenodd;clip-rule:evenodd;fill:#FEFDF0;}
	.st2{fill-rule:evenodd;clip-rule:evenodd;fill:#FFFFFF;}
</style>
<g id="mark" transform="matrix(1,0,0,1,-47.5996,-26.1172)">
	<path class="st0" d="M511.9,443.41c52.35-47.16,62.34-119.3,51.39-179.5c-10.87-59.71-44.08-101.12-72.41-125.86
		c-7.29-54.83-71.32-90.62-141.93-63.96c-55.36,20.96-101.85,79.85-113.47,161.51c-4.86-2.58-9.45-5.51-13.46-8.8
		c-0.88-0.79-2.07-1.14-3.22-0.92c-1.16,0.22-2.15,0.93-2.69,2.03c-8.63,22.28-16.65,88.37,5.08,145.15
		c17.92,46.86,76.22,105.55,150.65,114.91c10.13,1.42,21.86,2.27,35.08,2.3c68.71-0.06,161.63-9.8,161.23-28.34
		C567.93,452.41,543.78,446.52,511.9,443.41z"/>
	<path class="st1" d="M533.67,289.1c-2.93-51.55-24.02-88.48-42.28-106.81c-0.44-0.4-1.1-0.58-1.67-0.34
		c-0.59,0.19-1,0.73-1.07,1.34c-4,22.89-29.03,66.3-46.61,72.13c-1.2,0.25-2.43-0.23-3.13-1.24
		c-16.81-23.56-61.63-57.81-96.28-56.22c-0.28-0.01-0.55,0.08-0.79,0.21c-23.11,14.24-29.82,73.83-30.21,97.5
		c0,0.84-0.34,1.64-0.93,2.24c-0.61,0.55-1.42,0.87-2.26,0.8c-20.64-1.67-57.53-13.43-69.84-23.69c-0.35-0.38-0.85-0.46-1.3-0.31
		c-0.45,0.15-0.78,0.55-0.81,1.06c-1.97,22.02,0.79,61.96,17.72,91.65c17.6,30.86,73.86,87.24,163.08,71.96
		C506.52,424.11,536.72,342.84,533.67,289.1z"/>
	<ellipse class="st2" cx="375.79" cy="131.1" rx="14.05" ry="17.6"/>
	<ellipse class="st2" cx="440.61" cy="131.1" rx="14.05" ry="17.6"/>
</g>
</svg>
