<?xml version="1.0" encoding="UTF-8" standalone="no"?>
<!DOCTYPE svg PUBLIC "-//W3C//DTD SVG 1.1//EN" "http://www.w3.org/Graphics/SVG/1.1/DTD/svg11.dtd">
<svg width="100%" height="100%" viewBox="0 0 452 387" version="1.1" xmlns="http://www.w3.org/2000/svg" xmlns:xlink="http://www.w3.org/1999/xlink" xml:space="preserve" xmlns:serif="http://www.serif.com/" style="fill-rule:evenodd;clip-rule:evenodd;stroke-linejoin:round;stroke-miterlimit:2;">
    <g id="Body" transform="matrix(0.0686746,0.00359833,-0.00359833,0.0686746,-429.568,-497.644)">
        <path d="M9673.71,11429.5C9651.95,11428.1 9645.96,11428.9 9633.12,11438.1C9620.28,11447.2 9616.04,11465 9620.45,11480.7C9631.23,11519 9665.76,11691.2 9680.13,11786.2C9710.35,11985.9 9721.18,12157 9664.32,12207.8C9651.59,12214.8 9606.11,12240 9474.38,12255.9C9385.47,12266.6 9285.89,12269.5 9205.96,12268.6C9116.59,12267.5 9003.99,12268.4 8973.42,12166.4C8971.04,12158.4 8966.52,12133.3 8958.28,12095.8C8913.49,12095.9 8872.69,12096.6 8835.67,12097.1C8835.87,12098 8836.07,12098.8 8836.27,12099.7C8831.36,12099.6 8826.44,12099.5 8821.61,12099.4C8812.04,12098.9 8800.87,12098.3 8788.4,12097.7C8739.06,12098.2 8697.63,12097.8 8663.48,12094.6C8660.02,12094.6 8656.54,12094.6 8653.05,12094.6C8584.3,12088 8538.85,12074.8 8523.3,12060C8512.8,12036.2 8494.32,11984.1 8462.2,11905.1C8440.93,11860.6 8418.11,11807.3 8392.3,11744.1C8373.28,11703.7 8350.68,11658 8324.91,11610.2C8201.55,11403.5 8008.64,11229.9 7842.11,11087.7C7794.82,11051.4 7748.48,11011.9 7703.26,10969.5C7691.58,10959.3 7682.28,10950.4 7675.13,10942.6C7259.11,10537.1 6943.22,9888.09 6868.4,9255.65C6735.15,8129.2 7137.81,7483.78 7355.27,7196.35C7594.22,6880.53 7826.74,6944.36 7993.57,7037.58C8086.12,7089.31 8089.25,7106.03 8191.47,7151.31C8387.02,7237.93 8524.04,7256.09 8541.1,7425.97C8567.18,7685.65 8336.64,7853.31 8156.27,7876.8C8078.46,7886.93 7972.09,7898.53 7869.68,7892.27C7850.79,7891.11 7783.95,7894.44 7703.02,7876.35C7699.06,7875.46 7689.55,7906.2 7669.93,7956.96C7545.18,8279.7 7425.18,8701.49 7595,9202.38C7696.58,9501.98 7900.99,9728.12 8062.82,9797.79C8377.26,9933.17 8626.92,9749.97 8957.92,9589.61C9345.14,9402.02 10045.3,9338.37 10707.4,9685.04C11309.3,10000.2 11514,10493.2 12318.3,10503.7C12585.2,10507.2 12735.7,10464 12838.6,10422.1C13060.8,10331.7 13173.4,10186.6 13232,10147.8C13233.8,10146.8 13235.8,10146.7 13237.6,10147.6C13239.4,10148.4 13240.7,10150.1 13241,10152C13253.3,10273.8 13101.8,10672 12643.7,10945.1C12348.2,11121.2 11973.2,11207.4 11819.3,11238.1C11390.3,11323.7 11123.6,11295.8 11067.9,11288.3C11001.1,11283.1 10984.7,11339.4 10991.3,11362.6C11051.3,11573.2 11084,11682.6 11099.9,11830.2C11125.6,12067.9 11091.7,12101.1 11071.8,12117.1C11006.3,12170 10718.3,12192.2 10524.8,12171.7C10406.1,12159.2 10378.5,12116.1 10347.6,12039.1C10323.7,11979.8 10321.6,11977.9 10292.6,11926.7C10239.9,11934.5 10184,11940.6 10140.3,11940.4C10080.7,11945.2 10022.2,11938.7 10019.2,11934.1C10016.1,11929.2 10017.7,11931.6 10017,11930.2C9998.5,11894.7 9992.58,11857.1 9952.36,11771.9C9911.59,11689.1 9793.28,11502.9 9673.71,11429.5Z" style="fill:white;"/>
    </g>
    <g id="Outline" transform="matrix(0.0576748,0.0306136,-0.0374402,0.0481791,71.6849,-513.115)">
        <path d="M7578.54,11969.1C6882.77,11783.5 6085.09,11195.7 5563.26,10471.6C4820.7,9441.23 4694.11,8594.39 4715.75,8021.08C4741.26,7345.57 5245.34,7430.13 5400.94,7453.24C5477.93,7464.68 5484.58,7466.24 5648.32,7456.67C5812.36,7447.08 6020.5,7433.83 6176.36,7736.97C6332.49,8040.61 6217.64,8352.84 6046.94,8483.24C5955.11,8553.38 5875.74,8606.92 5778.28,8648.96C5778.04,8649.06 5747.65,8659.83 5707.06,8669.45C5784.86,9028.78 5921.71,9523.56 6377.36,9949.89C6587.08,10146.1 6870.37,10288.3 7037.12,10280.4C7332.8,10266.5 7419.64,9998.46 7609.37,9678.76C7888.34,9208.7 8618.29,8743.96 9597.71,8921.77C10218.4,9034.46 10639.8,9309.84 11286.2,8887.19C11679.5,8630.02 11634.4,8292.03 11704.6,8178.06C11749.1,8105.9 11868.7,8087.33 11958.9,8310.29C12050,8535.42 12128.6,9079.93 11801.2,9625.65C11665.4,9851.83 11475.7,10063.4 11280.6,10235C11043.2,10443.8 10848.5,10550.2 10740.4,10599.6C10738.9,10600.3 10737.9,10601.8 10737.7,10603.7C10737.6,10605.6 10738.4,10607.6 10739.8,10609.1C10763.4,10634 10784.1,10655.9 10788.2,10660.2C10872.6,10749.4 11005.8,10888.7 11139.7,11099.9C11271.7,11307.8 11274.3,11418.6 11160.3,11535.3C11037,11661.5 10771.8,11810.7 10649.7,11833.2C10496,11861.4 10400.4,11765.9 10332.3,11706.8C10332.2,11707.5 10332.2,11707.9 10332.2,11707.9C10328.7,11712.6 10298,11735.8 10294.9,11738.1C10224.3,11791.3 10136.7,11832.6 10079.3,11824.2C10004.7,11813.3 9964.28,11743.5 9831.08,11640.8C9790.69,11609.7 9764.57,11590.6 9743.7,11575.7C9742.11,11574.6 9740.2,11574.8 9739.23,11576.2C9738.26,11577.5 9738.53,11579.6 9739.86,11581.1C9850.43,11703.1 9957.78,11840.5 10018.5,11973.1C10038.8,12017.3 10079.1,12114.9 10053.6,12197.2C10052.7,12200.2 10039.2,12243.7 9975.86,12308.2C9846.93,12439.5 9597.54,12569.6 9534.47,12591.8C9377.47,12647.1 9269.77,12566.2 9218.81,12514C9167.21,12558.3 9125.55,12578.6 9123.57,12579.7C8865.52,12721.7 8793.19,12640.6 8761.23,12612.5C8699.78,12558.4 8528.68,12398.5 8332.94,12258.2C8324.16,12253.9 8313.59,12247 8300.83,12237C8292.25,12230.3 8283.27,12223.6 8273.92,12217.1C8266.7,12212.2 8259.47,12207.4 8252.21,12202.6C8115.33,12114.8 7911.62,12048.5 7713.57,12000.3C7673.39,11992.5 7632.78,11983.3 7591.79,11972.6C7586.96,11971.5 7582.55,11970.4 7578.54,11969.1ZM5584.67,8687.12C5479.72,8692.29 5404.57,8669.46 5364.89,8655.97C5353.12,8651.97 5352.38,8652.2 5344.65,8641.23C5343.48,8639.57 5336.65,8629.88 5337.62,8617.4C5338.59,8605.01 5338.82,8604.44 5347.94,8597.91C5359.22,8589.83 5360.67,8593.2 5375.45,8595.65C5556.02,8625.58 5691.85,8536.67 5720.39,8523.59C5814.06,8480.65 5900.3,8417.26 5962.37,8369.19C6106.27,8257.75 6206.1,7972.55 6024.57,7715.8C5905.82,7547.83 5774.51,7595.15 5550.04,7599.71C5432.69,7602.1 5419.73,7586.26 5306.93,7577.29C5103.62,7561.14 4860.63,7607.19 4843.94,8050.12C4828.75,8453.23 4869.79,9317.06 5674.87,10421.1C6236.96,11191.9 7141.75,11809.3 7845.89,11885.4C7850.07,11885.4 7854.87,11885.9 7860.43,11886.9C7865.09,11887.3 7869.74,11887.7 7874.38,11888.2C7902.25,11888.1 7931.16,11888.6 7960.81,11889.7C8264.87,11884 8365.92,11876.7 8459.99,11847C8554.07,11817.2 8670.68,11863 8698.89,11881.8C8727.1,11900.6 8878.79,11996.8 9022.12,12128.5C9180.48,12274 9281.89,12405.5 9299.89,12423.9C9389.07,12515 9487.3,12459.7 9566.35,12417.6C9637.03,12380 9722.6,12328.9 9794.06,12274.8C9899.94,12194.8 9924.46,12146.7 9931.35,12133.3C9950.17,12053.1 9836.13,11880.9 9687.64,11688.4C9617.02,11596.8 9481.48,11434.8 9448.65,11400.3C9435.21,11386.2 9428.03,11365.7 9433.7,11350C9439.38,11334.3 9444.16,11330.6 9464.08,11321.5C9568.03,11274.1 9631.81,11225.8 9700.47,11171.3C9721.58,11152.5 9741.78,11158.9 9755.87,11168C10028.5,11349.7 10119.6,11406.4 10303.2,11533.2C10367.4,11577.6 10368.1,11576.4 10427.7,11628.5C10501.9,11693.4 10552.4,11724.8 10664.2,11680.5C10846.5,11608.3 11085.6,11446.2 11110.8,11359.7C11118.4,11333.5 11127.9,11282.7 10960.2,11048.6C10856,10903.2 10760.5,10805.5 10579.2,10616.1C10559.2,10595.2 10539.2,10528.8 10601,10502C10654.5,10482.9 10905.4,10383 11229.5,10087.2C11345.8,9981.06 11622.1,9710.54 11773.8,9385.21C12008.9,8880.81 11898.5,8394.63 11813.3,8274.29C11811.8,8272.43 11809.7,8271.32 11807.6,8271.31C11805.5,8271.29 11803.8,8272.38 11802.9,8274.22C11775.1,8342.76 11765,8547.65 11625.3,8748.74C11560.6,8841.85 11454.9,8959.27 11218.6,9084.53C10506.6,9461.89 10025.9,9049.41 9305.24,9013.09C8512.6,8973.15 7937.19,9377.2 7712.08,9758.73C7519.65,10084.8 7412.54,10395.4 7053.97,10406.8C6869.43,10412.6 6551.94,10276.8 6279.8,10015.1C5824.8,9577.52 5672.39,9082.1 5584.67,8687.12ZM10199.8,11615.9C10200.5,11615.4 10200.8,11614.5 10200.7,11613.5C10200.6,11612.5 10200,11611.6 10199.2,11611C10157.4,11580.9 10073.2,11513.5 9998.83,11461.9C9922.15,11408.7 9753.5,11405.1 9888.88,11519.4C9889.83,11520.2 9890.67,11521 9891.39,11521.8C9999.81,11604.1 10029.6,11644.5 10071.2,11675.2C10072.6,11676.2 10069.8,11674.5 10075.5,11678.1C10081.2,11681.6 10142.9,11657.3 10194.3,11619.9C10196.2,11618.6 10198,11617.2 10199.8,11615.9ZM9138.84,12421C9029.9,12296.7 8935.01,12211.6 8858.88,12146.6C8596.28,11959.1 8269.18,11986.6 8362.11,12139.5C8523.72,12252.7 8651.79,12365 8682.66,12391.8C8764.45,12462.6 8815.29,12510.4 8840.02,12530.9C8874.2,12542.7 8965.94,12518 9084.45,12449.4C9095.8,12442.8 9117.48,12432 9138.84,12421ZM5059.32,7713.87C5109.51,7677.42 5189.4,7704.02 5241.85,7771.19C5311.73,7860.66 5343.33,7977.08 5247.54,8036.81C5165.73,8087.85 5079.03,8003.14 5047.24,7939.56C5015.42,7876 4999.27,7757.48 5059.32,7713.87Z"/>
    </g>
</svg>
